<?xml version="1.0" encoding="UTF-8"?>
<svg id="Layer_2" data-name="Layer 2" xmlns="http://www.w3.org/2000/svg" viewBox="0 0 150 292.04">
  <defs>
    <style>
      .cls-1 {
        fill: #ffbf8f;
      }
    </style>
  </defs>
  <g id="Layer_1-2" data-name="Layer 1">
    <g>
      <path class="cls-1" d="M150,51.17v3.01c-.39-.61-.61-1.21-.54-1.88.06-.52.32-.8.54-1.13Z"/>
      <path class="cls-1" d="M147.52,266.33c.5.75,1.4,1.84,2.48,3.06v-2.42c-4.04-5.19-7.16-10.99-9.09-17.13-1.05-3.5-1.28-5.33-1.28-11.66,0-9.44.78-11.99,4.44-14.1,1.33-.78,2.55-1.44,2.67-1.44.17,0-.39,1.55-1.22,3.44-1.33,3.22-1.44,4.11-1.44,11.27.06,7.16.17,8.11,1.55,11.6,1.03,2.6,2.58,5.09,4.37,7.5v-2.1c-.13-.19-.25-.34-.37-.58-.44-.94-.78-1.72-.61-1.72.19,0,.6.55.98,1.17v-1.89c-.63-.07-1.23-.58-1.09-1.33.11-.5.44-1,.78-1.11.12-.04.2.13.32.14v-5.97c-2.23-1.4-2.59-5.11-.04-7.66,0,0,.03-.02.04-.03v-1.92c-.23.2-.37.32-.65.56l-1.94,1.66,1.39-1.55c.36-.41.79-.82,1.2-1.19v-11c-.35.33-.74.78-1.15,1.36-.61,1-1.17,1.61-1.17,1.33,0-.28.5-1.33,1.17-2.33.58-.93.9-1.42,1.15-1.65v-1.34c-.23.02-.45.03-.65.27-1.11,1.39-12.88,6.94-14.66,6.94-1.11,0-2.28-.56-3.5-1.78-1-.94-2-1.55-2.22-1.33-.39.39.78,1.61,3.33,3.39.94.67.72,1.28-3.44,9.22-5.22,10.05-6.33,13.6-6.39,19.65,0,8.77,4.72,12.38,9.61,7.33,4.27-4.33,5.5-14.16,3.44-27.54-.67-4.05-1-7.61-.83-7.88.17-.28.78-.5,1.39-.5s1.89-.39,2.83-.89c1.61-.83,1.72-.83,1.28.11-1.55,3.55-2.55,9.05-2.22,12.16.17,1.83.44,4.5.56,5.94.17,1.39,1,4.94,1.94,7.88l1.72,5.28-1.11,3.11c-2.05,5.77-6.61,11.16-12.55,14.82-2.78,1.72-4.11,1.39-6.39-1.5-3.83-4.77-6.16-11.22-6.27-17.1l-.11-4,3.44-4.44c5.83-7.66,8.88-15.1,9.11-22.15.11-3.77.11-3.83-2.39-6.66-1.33-1.55-2.94-3.55-3.5-4.39-.67-1.05-1.28-1.44-1.89-1.17-1,.39-8.16,2.11-10.99,2.61-2.11.39-2.94-.5-4.11-4.5l-.67-2.39-1.22,1.5c-1.05,1.28-1.33,1.39-2.44.83-1.28-.72-1.39-2.28-.17-2.72.44-.11.67.11.56.5-.06.44,0,.83.28.89,1,.39,1.5.06,1.5-.94,0-1.33-2.44-2.11-3.61-1.11-1.05.89-1.05,2.39,0,4.44.78,1.5,1.72,2.05,4.33,2.44,1.67.22,1.72.89.06.89-4.66,0-8.05-5.5-5.22-8.33,1.5-1.5,3.61-1.39,4.77.11l.89,1.28-.33-1.39c-.22-.78-.5-2.17-.72-3.11-.28-1.61-.5-1.78-3-2.11-4.94-.67-13.49-3.11-14.55-4.11-1.33-1.33-2.22-7.33-1.94-13.49.17-4.5.06-4.94-.94-5.16-2.22-.61-10.88-5.44-11.22-6.27-.28-.78.17-2.39,1.78-6.44.39-.94.33-1-.78-.33-1.39.89-3,.17-3.28-1.44-.28-1.39.83-2.33,1.67-1.5.5.5.5.67,0,.67-.39,0-.67.39-.67.83,0,1.17,2,1.06,2.5-.11.22-.67-.06-1.33-.83-1.94-1.61-1.33-1.94-1.28-3.28.44-1.61,2-1.44,4.22.33,6.38.83,1,1.17,1.67.72,1.5-1.28-.39-3.33-3.77-3.33-5.44,0-1.78,1.78-4.22,3.39-4.72,1.67-.56,3.83,1.11,3.89,2.94,0,1.33.17,1.17,1.39-1.28l1.44-2.78-2.33-2.5c-3.61-3.89-7.77-10.44-7.77-12.21s4.16-8.33,7.77-12.21l2.33-2.5-1.44-2.78c-1.22-2.44-1.39-2.61-1.39-1.28-.06,1.83-2.22,3.5-3.89,2.94-1.61-.5-3.39-2.94-3.39-4.72,0-1.66,2.05-5.05,3.33-5.44.44-.17.11.5-.72,1.5-1.78,2.16-1.94,4.38-.33,6.38,1.33,1.72,1.67,1.78,3.28.44.78-.61,1.06-1.28.83-1.94-.5-1.17-2.5-1.28-2.5-.11,0,.44.28.83.67.83.5,0,.5.17,0,.67-.83.83-1.94-.11-1.67-1.5.28-1.61,1.89-2.33,3.28-1.44,1.11.67,1.17.61.78-.33-1.61-4.05-2.05-5.66-1.78-6.44.33-.83,8.99-5.66,11.22-6.27,1-.22,1.11-.67.94-5.16-.28-6.16.61-12.16,1.94-13.49,1.05-1,9.6-3.44,14.55-4.11,2.5-.33,2.72-.5,3-2.11.22-.94.5-2.33.72-3.11l.33-1.39-.89,1.22c-1.17,1.55-3.28,1.67-4.77.17-2.83-2.83.56-8.33,5.22-8.33,1.67,0,1.61.67-.06.89-2.61.39-3.55.94-4.33,2.44-1.05,2.05-1.05,3.55,0,4.44,1.17,1,3.61.22,3.61-1.11,0-1-.5-1.33-1.5-1-.28.11-.33.5-.28.94.11.39-.11.61-.56.5-1.22-.44-1.11-2,.17-2.72,1.11-.56,1.39-.44,2.44.83l1.22,1.5.67-2.39c1.17-4,2-4.89,4.11-4.5,2.83.5,9.99,2.22,10.99,2.61.61.28,1.22-.11,1.89-1.17.56-.83,2.16-2.83,3.5-4.39,2.5-2.83,2.5-2.89,2.39-6.66-.22-7.05-3.28-14.49-9.11-22.15l-3.44-4.44.11-4c.11-5.89,2.44-12.33,6.27-17.1,2.89-3.66,3.66-3.61,9.83.94,3.5,2.55,7.61,8.16,9.11,12.38l1.11,3.11-1.72,5.27c-.94,2.94-1.78,6.5-1.94,7.88-.11,1.44-.39,4.11-.56,5.94-.33,3.11.67,8.61,2.22,12.16.44.94.33.94-1.28.11-.94-.5-2.22-.89-2.83-.89s-1.22-.22-1.39-.5c-.17-.28.17-3.83.83-7.88,2.05-13.38.83-23.21-3.44-27.54-4.89-5.05-9.61-1.44-9.61,7.33.06,6.05,1.17,9.61,6.39,19.65,4.16,7.94,4.39,8.55,3.44,9.22-2.55,1.78-3.72,3-3.33,3.39.22.22,1.22-.39,2.22-1.33,1.22-1.22,2.39-1.78,3.5-1.78,1.78,0,13.55,5.55,14.66,6.94.2.24.42.25.65.27v-1.64c-.34-.27-.77-.72-1.2-1.41-.67-1.11-1.11-2.16-.89-2.33.17-.22.33-.11.33.22,0,.28.61,1.22,1.33,2,.2.21.28.38.43.58v-11.01c-.41-.34-.82-.71-1.15-1.06-1.83-1.99-1.27-1.75,1.15.45v-1.89c-1.24-1.27-1.76-2.57-1.76-4.17,0-1.7.73-2.73,1.76-3.4v-5.96c-.27.03-.54-.03-.76-.25-.33-.33-.44-1-.28-1.44.2-.51.62-.74,1.04-.8v-1.98c-.07.09-.07.13-.15.23l-1.11,1.39.89-1.83c.12-.26.24-.45.37-.68v-2.18c-1.78,2.42-3.35,4.93-4.37,7.52-1.39,3.5-1.5,4.44-1.55,11.6,0,7.16.11,8.05,1.44,11.22.83,1.94,1.39,3.5,1.22,3.5-.11,0-1.33-.67-2.67-1.44-3.66-2.11-4.44-4.66-4.44-14.1,0-6.33.22-8.16,1.28-11.66,1.99-6.2,5.1-11.83,9.09-17v-2.55c-1.08,1.22-1.99,2.31-2.48,3.06-1.67,2.61-2.55,2.66-2.61.22,0-3.55-4.5-8.16-14.05-14.49l-6.55-4.27,1.05-1.89,1.11-1.83-1.78-1.72C123.7.78,122.76,0,122.59,0s-.89,1-1.5,2.28l-1.22,2.28,1.44,1.11c.78.61,1.39,1.39,1.39,1.72,0,.39-2.16,3.55-4.72,7.05-2.61,3.5-5.39,7.66-6.16,9.27-1.5,3.05-2,7.61-1.11,10.1.44,1.28.28,1.22-2.22-.61-6.44-4.72-17.05-8.94-29.81-11.77-1.61-.39-1.72-1-.61-3.83.22-.61-.72-1.67-3.11-3.39-1.89-1.39-3.66-2.39-3.94-2.22-.56.33-.56,5.39,0,7.38.28,1,.94,1.55,2.28,1.89,1.06.28,2,.56,2.11.67.06.06-.61,2.72-1.5,5.89-2.72,9.44-3.61,15.1-3.61,22.87v7.05s-1.11-1.05-1.11-1.05c-4.22-3.78-8.66-4.11-26.26-1.94l-2.39.28-.33-2.22-.39-2.28h-2.72c-2.33,0-2.72.17-2.44.94.11.56.39,1.78.61,2.72.28,1.44.56,1.67,2.28,1.72,1.05.06,2.05.17,2.16.28.17.11.5,4.11.83,8.83.28,4.72.83,9.55,1.17,10.77.83,3.05,3,6.61,4.72,7.94l1.5,1.05-5.22.67c-6.38.83-14.55,3.5-23.04,7.55l-6.38,3-.83-1.89c-.78-1.94-.83-1.94-4.33-1.94-3.83,0-5.33.33-5.33,1.22,0,.67,3.83,4.77,5.11,5.5.67.33,1.61.28,2.94-.28l1.94-.83,1.78,4c4.72,10.72,9.27,18.04,14.71,23.65,1.61,1.67,2.94,3.05,2.94,3.05,0,.06-1.33.06-2.94.11-4.39.06-7.11,1.78-14.82,9.44-3.83,3.78-7.22,6.88-7.49,6.88s-1.06-.5-1.72-1.17l-1.22-1.16-2,1.55C.89,145.02,0,145.85,0,146.02s.89,1,2,1.89l2,1.55,1.22-1.17c.67-.67,1.44-1.17,1.72-1.17s3.66,3.11,7.49,6.88c7.72,7.66,10.44,9.38,14.82,9.44,1.61.06,2.94.06,2.94.11,0,0-1.33,1.39-2.94,3.05-5.44,5.61-9.99,12.94-14.71,23.65l-1.78,4-1.94-.83c-1.33-.56-2.28-.61-2.94-.28-1.28.72-5.11,4.83-5.11,5.5,0,.89,1.5,1.22,5.33,1.22,3.5,0,3.55,0,4.33-1.94l.83-1.89,6.38,3c8.49,4.05,16.66,6.72,23.04,7.55l5.22.67-1.5,1.05c-1.72,1.33-3.89,4.89-4.72,7.94-.33,1.22-.89,6.05-1.17,10.77-.33,4.72-.67,8.72-.83,8.83-.11.11-1.11.22-2.16.28-1.72.06-2,.28-2.28,1.72-.22.94-.5,2.16-.61,2.66-.28.83.11,1,2.44,1h2.72s.39-2.28.39-2.28l.33-2.22,2.39.28c17.6,2.16,22.04,1.83,26.26-1.94l1.11-1.05v7.05c0,7.77.89,13.44,3.61,22.88.89,3.16,1.55,5.83,1.5,5.88-.11.11-1.05.39-2.11.67-1.33.33-2,.89-2.28,1.89-.56,2-.56,7.05,0,7.38.28.17,2.05-.83,3.94-2.22,2.39-1.72,3.33-2.78,3.11-3.39-1.11-2.83-1-3.44.61-3.83,12.77-2.83,23.37-7.05,29.81-11.77,2.5-1.83,2.67-1.89,2.22-.61-.89,2.5-.39,7.05,1.11,10.11.78,1.61,3.55,5.77,6.16,9.27,2.55,3.5,4.72,6.66,4.72,7.05,0,.33-.61,1.11-1.39,1.72l-1.44,1.11,1.22,2.28c.61,1.28,1.33,2.28,1.5,2.28s1.11-.78,2.11-1.72l1.78-1.72-1.11-1.83-1.05-1.89,6.55-4.27c9.55-6.33,14.05-10.94,14.05-14.49.06-2.44.94-2.39,2.61.22ZM39.42,237.85c0,1.66-.72,2.55-2.05,2.55-1.17,0-1.33-.22-1.17-1.55.11-1.17.5-1.55,1.67-1.67,1.11-.11,1.55.05,1.55.67ZM12.21,195.71c0,.11-.28.89-.67,1.67-.56,1.28-.94,1.39-3.89,1.39-1.78,0-3.22-.22-3.22-.5,0-.28,1-1.39,2.22-2.5,1.22-1.11,2.28-2,2.39-2,.44.11,3.16,1.72,3.16,1.94ZM5.33,146.85c-1.33,1-1.44,1-2.78,0q-1.11-.83,0-1.67c1.33-1,1.44-1,2.78,0q1.06.83,0,1.67ZM10.55,97.44c-1.61.83-1.72.78-3.89-1.17-1.22-1.11-2.22-2.22-2.22-2.5,0-.28,1.44-.5,3.22-.5,2.94,0,3.33.11,3.89,1.39.89,1.89.89,1.78-1,2.78ZM39.42,54.19c0,.61-.44.78-1.55.67-1.17-.11-1.55-.5-1.67-1.72-.17-1.28,0-1.5,1.17-1.5,1.33,0,2.05.89,2.05,2.55ZM144.91,54.19c0-.83,1.33-1.55,1.89-1.05.72.78.28,1.83-.78,1.83-.61,0-1.11-.33-1.11-.78ZM145.96,49.86c.06.39.33.56.67.33.39-.22.33.17-.11.94-.61,1.17-.78,1.17-.94.33-.11-.5-.06-1.28.06-1.67.22-.5.33-.5.33.06ZM147.68,43.31c0,.44-.28,1.22-.56,1.67-.5.72-.56.72-.56,0,0-.44.28-1.22.56-1.67.5-.72.56-.72.56,0ZM147.24,48.75c-.5-.11-.94-.56-.94-1,0-.44.44-.89.94-1,.72-.11,1,.17,1,1s-.28,1.11-1,1ZM147.57,64.29c.5-.5.72-.39,1,.33.22.5.22,1.11,0,1.28-.17.22-.67.06-1-.28-.5-.5-.5-.83,0-1.33ZM146.85,61.07c-.44,0-.83-.33-.83-.78,0-.94.78-1.55,1.33-1.05.67.67.33,1.83-.5,1.83ZM133.25,62.18c-.56-.06-7.77-15.32-8.61-18.27-.44-1.67-.83-5.05-.83-7.55,0-3.83.22-4.89,1.28-6.44.67-1.05,1.78-1.94,2.33-2,2.89-.33,5.5,2.89,7.22,8.94.78,2.66.89,4.66.67,9.99-.28,6.55-1.44,15.32-2.05,15.32ZM97.99,86.17c.33,0,1.39.17,2.39.28,1,.11,1.67.5,1.5.78-.39.56-3,.11-3.89-.67-.33-.33-.33-.44,0-.39ZM97.99,205.59c.83-.89,3.5-1.33,3.89-.72.17.33-.28.55-1.05.55-.72,0-1.83.17-2.39.33-.67.28-.83.22-.44-.17ZM133.25,229.86c.61,0,1.78,8.77,2.05,15.32.33,7.33-.39,11.22-2.89,15.55-1.39,2.33-4,3.94-5.55,3.33-1.94-.72-3.05-3.78-3.05-8.44,0-5.83.94-8.94,5.44-18.1,2.05-4.22,3.83-7.61,4-7.66ZM147.41,226.97c0-.33.33-.72.72-.89.5-.17.72.11.56.67-.17,1.05-1.28,1.22-1.28.22ZM146.74,246.68c.17-.11.44.28.67.94.22.67.28,1.33.11,1.5-.17.11-.44-.28-.67-.94-.22-.67-.28-1.33-.11-1.5ZM146.3,244.29c0-.44.44-.89.94-1,.72-.11,1,.17,1,1s-.28,1.11-1,1c-.5-.11-.94-.56-.94-1ZM145.52,241.35c-.06-1.78.22-1.89,1.11-.33.33.72.39,1.05.06.83-.33-.17-.72,0-.83.33-.17.39-.33.06-.33-.83ZM146.02,237.07c1.06,0,1.5,1.05.78,1.83-.56.5-1.89-.22-1.89-1.05,0-.44.5-.78,1.11-.78ZM146.85,230.97c.56,0,.83.33.72.89-.22,1.17-1.22,1.28-1.44.06-.11-.56.17-.94.72-.94ZM122.7,286.65c.94-.61,1.17-.56,1.67.44.5.94.44,1.39-.33,2.22-.94,1.06-1.05,1.06-1.72.17-.39-.55-.72-1.28-.72-1.61,0-.28.5-.89,1.11-1.22ZM86.28,261.5c-.06-5,.28-6.44,1.11-5.11.72,1.17,1.33,9.27.78,9.94-1.39,1.72-1.83.67-1.89-4.83ZM88.11,253.95c-2.16,1.33-4.39-2.44-2.28-3.94.56-.39,1.17-.72,1.33-.72s.78.33,1.33.72c1.22.89,1,3.05-.39,3.94ZM88.39,234.63c-.11-.11.22-1,.72-1.94,1.17-2.39,1.61-2.16.44.22-.5,1.06-1,1.83-1.17,1.72ZM87.89,238.18c-.39,3.66-.72,4.39-.67,1.33,0-1.16.22-2.66.5-3.27.28-.67.33.06.17,1.94ZM80.78,240.96c-.22-.33-.06-.94.28-1.39,1.28-1.56,3.11-.72,2.44,1.05-.39,1-2.16,1.22-2.72.33ZM83.72,244.96c1.33-.22,2.11,1,1.55,2.44-.17.5-.83.78-1.55.67-.94-.11-1.28-.56-1.28-1.55s.33-1.44,1.28-1.55ZM80.62,233.35c.11-.55.61-1.05,1.17-1.17,1.11-.22,1.89,1.39,1.05,2.22-.83.83-2.44.05-2.22-1.06ZM81.06,224.58c0-.33.28-.94.56-1.39.28-.44.56-.61.56-.28,0,.28-.28.94-.56,1.39-.28.44-.56.56-.56.28ZM82.73,225.97c.72,0,1.11.39,1.11,1.11s-.39,1.11-1.11,1.11-1.11-.39-1.11-1.11.39-1.11,1.11-1.11ZM83.45,220.19c.22-.5.61-.89.94-.89.94,0,1.33,1.72.5,2.28-1,.61-1.89-.28-1.44-1.39ZM84.28,217.81c.94-1.78,1.78-2.05,1.78-.67,0,.67-.17,1.05-.39.89-.17-.22-.72-.06-1.17.33-.72.55-.78.5-.22-.56ZM76.51,272.94c.61,2,.5,2.16-3.16,4.66l-1.89,1.33.39-3.28c.22-1.83.44-3.33.56-3.44.11-.11.94-.39,1.83-.67,1.55-.44,1.72-.39,2.28,1.39ZM76.73,259.61c1-.72,3.17-1.89,4.77-2.5l2.94-1.17.5,1.44c.61,1.55.72,7,.22,8.94-.28.94-1.11,1.44-3.5,2.11-1.72.5-3.5,1-4,1.17-.67.17-1.11-.56-1.78-3.11-1.28-4.61-1.22-5.27.83-6.88ZM78.06,255.73c2.11-.83,4.11-1.67,4.44-1.83.61-.22,1.72.83,1.28,1.16-.11.06-1.61.72-3.28,1.39-1.72.67-3.78,1.83-4.61,2.61-1.28,1.17-1.55,1.22-1.83.56-.61-1.55.17-2.28,4-3.89ZM58.63,234.24c-1.22-.06-.89-.22,1.17-.56,1.55-.28,4.16-1,5.77-1.61,1.61-.67,3.61-1.67,4.5-2.28.83-.61,1.55-.89,1.55-.56,0,1.39-9.66,5.11-12.99,5ZM47.03,210.48c-3.22,3.72-3.66,5.83-4.94,22.71l-.17,1.94,5.55.67c3.05.33,7.77.67,10.55.67,5.5.06,8.72-1,11.49-3.66.89-.83,1.55-1.28,1.55-1.05,0,.61-2.89,3.05-5.05,4.22-3.17,1.67-6.83,1.89-16.1.83-4.72-.5-8.61-1-8.66-1.05-.28-.28,1-15.71,1.55-18.43.28-1.55,1.28-4,2.17-5.39.89-1.39,2.16-2.83,2.83-3.22,1-.5.78-.06-.78,1.78ZM44.97,227.64c0,4.11,1,5.33,4.83,5.88,6,.83,7.22,1.33,2.78,1.05-4.22-.28-7.44-1.33-7.88-2.66-1.78-5.27.94-15.93,5.77-22.49.94-1.28,2-2.33,2.33-2.33s-.33,1.05-1.44,2.33c-3.94,4.66-6.38,11.55-6.38,18.21ZM49.64,208.2c-.11,0-.22-.28-.22-.56,0-.33.28-.56.61-.56.28,0,.39.22.22.56-.17.28-.44.56-.61.56ZM24.65,197.04c1.11-.94,2.66-2.83,3.44-4.16.78-1.33,1.67-2.44,1.94-2.44,1.11,0,.39,2-2.05,5.66-2.17,3.22-2.72,3.77-3.78,3.44q-1.72-.55.44-2.5ZM17.38,187.77c.28-.39,1.5-.67,2.78-.61,2.44.05,2.55.05,6.33,1.39l2.39.89-1.11,2.11c-1.39,2.72-4.16,5.94-5.5,6.39-.56.17-2.67-.44-4.66-1.33l-3.72-1.67,1.55-3.22c.83-1.78,1.72-3.55,1.94-3.94ZM19.93,183.83c1.5.22,8.27,2.39,8.83,2.89,1.39,1.11-.22,1.55-2.39.61-1.22-.5-3.5-.94-5.11-1-2.89-.05-3.55-.61-2.28-1.89.39-.39.78-.67.94-.61ZM31.81,129.75c.17.28-.67.56-1.89.56-4.05.17-6.94,2.05-13.99,9.05l-6.72,6.66,6.72,6.66c7.05,7,9.94,8.88,13.99,9.05,1.22,0,2.05.28,1.89.56-.5.78-4.89,0-7.55-1.33-1.28-.67-5.39-4.27-9.11-8.05l-6.83-6.88,6.83-6.88c3.72-3.77,7.83-7.38,9.11-8.05,2.66-1.33,7.05-2.11,7.55-1.33ZM36.31,131.53c.17.28-.89.61-2.33.72-3.78.44-8.5,2.39-12.27,5.16-3.5,2.55-7.27,7.05-7.27,8.61s3.78,6.05,7.27,8.61c3.77,2.78,8.5,4.72,12.33,5.16,1.67.17,2.5.44,2.17.78-.67.67-6.72-.89-10.33-2.72-4.11-2.11-9-6.11-10.88-8.94-.94-1.39-1.67-2.67-1.67-2.89,0-1.17,3.78-5.72,6.5-7.88,4-3.11,7.88-5.11,12.21-6.22,3.94-1.05,3.89-1.05,4.28-.39ZM33.65,161.57c.44,0,.67.22.5.56-.17.28-.56.55-.89.55-.28,0-.5-.28-.5-.55,0-.33.39-.56.89-.56ZM33.65,130.47c-.5,0-.89-.28-.89-.56,0-.33.22-.55.5-.55.33,0,.72.22.89.55.17.28-.06.56-.5.56ZM19.82,105.88c.89.11,2.78-.11,4.33-.56,1.5-.44,3.16-.94,3.66-1.17,1.17-.5,1.83.44.89,1.22-.33.28-2.5,1.06-4.78,1.72-3.05.83-4.33,1-4.88.56-1.28-1.06-.83-2,.78-1.78ZM21.71,93.83c1.06,0,4.22,3.39,5.66,6l1.5,2.78-2.33.94c-1.33.5-3.77,1.05-5.5,1.22-3.5.33-3.22.56-5.61-4.44l-1.55-3.22,3.66-1.67c2-.89,3.89-1.61,4.16-1.61ZM27.98,95.94c2.44,3.66,3.16,5.66,2.05,5.66-.28,0-1.17-1.11-1.94-2.44-.78-1.33-2.33-3.22-3.44-4.16-1.11-1-1.94-1.89-1.83-1.94.11-.11.78-.33,1.39-.56,1.05-.33,1.61.22,3.78,3.44ZM71.07,60.3c0,.22-.67-.22-1.55-1.05-2.78-2.66-6-3.72-11.49-3.66-2.78,0-7.49.33-10.55.67l-5.55.67.17,1.94c1.28,16.88,1.72,18.99,4.94,22.71,1.55,1.83,1.78,2.28.78,1.78-1.83-1-4.39-5.33-5-8.61-.56-2.72-1.83-18.16-1.55-18.43.06-.06,3.66-.5,8.05-1,10.77-1.22,13.38-1.05,17.04.94,1.89,1.05,4.72,3.5,4.72,4.05ZM47.08,76.78c-2.44-5.22-3.61-13.05-2.39-16.66.11-.39,1-1.06,1.89-1.55.94-.44,3.61-.94,6-1.11,4.44-.28,3.22.22-2.78,1.05-3.83.56-4.83,1.78-4.83,5.89,0,6.66,2.44,13.55,6.38,18.16,1.11,1.33,1.78,2.39,1.44,2.39-.89,0-3.83-4.22-5.72-8.16ZM49.64,83.84c.17,0,.44.22.61.56.17.28.06.56-.22.56-.33,0-.61-.28-.61-.56,0-.33.11-.56.22-.56ZM71.62,62.79c0,.33-.72.06-1.55-.56-2.22-1.55-6.88-3.33-10.27-3.89-2.39-.39-2.55-.5-.94-.5,3.44-.06,12.77,3.55,12.77,4.94ZM76.06,33.09c.78.72,2.83,1.89,4.55,2.61,3.17,1.17,3.72,1.67,2.72,2.28-.89.56-9.22-3.33-9.38-4.39-.33-1.61.67-1.89,2.11-.5ZM83.45,71.84c-.44-1.11.44-2,1.44-1.39.83.56.44,2.28-.5,2.28-.33,0-.72-.39-.94-.89ZM84.67,73.84c.22.33.61.44.89.28.28-.22.5.17.5.83,0,1.33-.83,1.05-1.67-.61-.61-1.05-.33-1.5.28-.5ZM82.73,66.07c-.72,0-1.11-.39-1.11-1.11,0-.72.39-1.11,1.11-1.11s1.11.39,1.11,1.11c0,.72-.39,1.11-1.11,1.11ZM81.56,68.68c-.33-.56-.5-1.17-.33-1.28.11-.17.39.11.61.61.5,1.44.39,1.78-.28.67ZM80.62,58.46c.11-.56.61-1.06,1.17-1.17,1.11-.22,1.89,1.39,1.05,2.22-.83.83-2.44.06-2.22-1.05ZM80.78,51.58c0-1.17,2.28-1.28,2.72-.17.5,1.39-.56,2.28-1.78,1.55-.5-.33-.94-.94-.94-1.39ZM82.45,45.53c0-1,.33-1.44,1.28-1.55.72-.11,1.39.17,1.55.67.56,1.44-.22,2.66-1.55,2.44-.94-.11-1.28-.56-1.28-1.55ZM76.51,19.04c-.56,1.83-.67,1.89-2.33,1.44-.94-.28-1.78-.5-1.83-.5s-.28-1.39-.44-3.05c-.22-1.72-.33-3.22-.22-3.33.17-.11,1.39.67,2.83,1.67,2.5,1.83,2.55,1.94,2,3.77ZM85,34.53l-.56,1.55-2.94-1.17c-3.78-1.44-6.55-3.61-6.55-5,0-.56.39-2.55.94-4.39.5-1.83,1.05-3.33,1.22-3.28,1.05.11,7.44,2.17,7.77,2.44.61.61.72,8.33.11,9.83ZM87.39,35.64c-.83,1.33-1.17-.11-1.11-5.11.06-5.5.5-6.55,1.89-4.83.56.67-.06,8.77-.78,9.94ZM88.28,42.2c-2.33,1.22-4.55-1.89-2.66-3.78.39-.39,1.05-.67,1.55-.67,2.22,0,3.05,3.39,1.11,4.44ZM87.56,50.25l.06,1.94c.06,1.06.28,2.55.39,3.33l.33,1.39-.61-1.39c-.33-.72-.5-2.22-.39-3.33l.22-1.94ZM89.55,59.13c1.17,2.39.72,2.61-.44.22-.5-.94-.83-1.83-.72-1.94.17-.11.67.67,1.17,1.72ZM122.7,5.39c-.61-.33-1.11-.94-1.11-1.22,0-.33.33-1.06.72-1.61.67-.89.78-.89,1.72.17.78.83.83,1.28.33,2.22-.5,1-.72,1.05-1.67.44ZM143.8,30.31c0-.5.22-.89.56-.89.28,0,.56.22.56.5,0,.33-.28.72-.56.89-.33.17-.56-.06-.56-.5ZM143.24,26.98c0-1.83-2.83-5.94-5.61-8.22-2.83-2.28-12.83-9.05-13.38-9.05s-8.77,11.44-10.33,14.43c-1.11,2.17-1.44,3.61-1.44,6.5-.06,2.33-.28,3.5-.56,3.16-.94-.89-.5-5.72.78-8.77.72-1.61,3.16-5.5,5.44-8.55,2.28-3.11,4.39-6.22,4.72-6.94.33-.67.72-1.22.89-1.22.61.06,14.16,9.49,15.77,10.99.89.83,2.16,2.5,2.89,3.72,1.5,2.55,2.44,6.16,1.44,5.61-.33-.22-.61-.94-.61-1.67ZM112.1,35.31c.28-.17.61.06.83.5.33.89-.5,1.17-1.06.33-.17-.28-.06-.67.22-.83ZM115.04,33.48c-.17,2.94-.44,4.72-.78,4.39-.72-.72.39-8.83,1.78-12.44,1.44-3.83,4.89-9.27,6.94-10.88,1.94-1.55,2.66-1.5,6.11.28,4.27,2.22,9.99,8.38,12.33,13.27,1.05,2.22,1.83,4.39,1.72,4.77-.17.39-.61-.28-1-1.5-1.89-5.94-7.33-12.55-12.71-15.43-4-2.22-5.27-1.89-8.5,2.05-3.66,4.55-5.5,9.44-5.88,15.49ZM99.44,38.03c-2.33-.78-5.72-1.61-7.55-1.83-2.5-.33-3.28-.67-3.16-1.22.11-.44.33-2.66.5-4.89.22-2.39.56-4,.94-4,1.05.06,7.11,2.55,11.16,4.61,14.66,7.38,25.82,22.6,25.82,35.2,0,3.61-.11,3.94-1.89,5.66l-1.83,1.78-.28-5.16c-.78-14.32-9.49-25.37-23.71-30.15ZM94.55,38.7c.67.67.39,2.83-.39,3.11-1.28.5-2.72-.94-2.33-2.28.39-1.17,1.94-1.67,2.72-.83ZM104.49,44.58c.11-.56.56-1.05,1.05-1.17,1.06-.22,1.89,1.5,1.11,2.28s-2.39,0-2.16-1.11ZM105.88,57.46c.33.39.5,1.28.28,2-.28,1.22-.39,1.17-.72-.61-.5-2.28-.44-2.33.44-1.39ZM104.93,55.8c-.06.28-.44-.22-.89-1.11-1.94-3.66-3.94-6.11-6.27-7.61-1.39-.83-2.22-1.55-1.89-1.55,2.11,0,9.11,7.94,9.05,10.27ZM102.44,41.09c-.44-.67-.22-.67.83,0,.5.33.56.56.17.56-.33,0-.83-.28-1-.56ZM100.16,43.14c-.89.33-1.89-.61-1.89-1.83,0-.78,1.11-1.28,2.05-.94,1,.39.89,2.39-.17,2.78ZM108.82,44.75c-1-1.28-.5-1.06,1.39.56,1.06.83,1.22,1.17.5.83-.61-.28-1.44-.94-1.89-1.39ZM110.1,47.8c.83-.83,1.5-.78,1.83.22.39,1-.17,1.94-1.17,1.94s-1.44-1.39-.67-2.16ZM113.82,49.36c-1.06-1.94.22-.94,1.39,1.11.28.5.22.67-.17.39-.39-.22-.94-.89-1.22-1.5ZM115.59,52.3c.72-.11,1,.17,1,1s-.28,1.11-1,1c-.5-.11-.94-.56-.94-1s.44-.89.94-1ZM116.82,55.96c-.22-.33-.17-.44.22-.22.33.17.67-.11.78-.61.17-.94.22-.94.61,0,.56,1.39.5,1.5-.39,1.5-.44,0-1-.28-1.22-.67ZM117.48,63.29c.11,0,0,.5-.33,1.11-.33.61-.72,1.11-.89,1.11-.11,0,0-.5.33-1.11.33-.61.72-1.11.89-1.11ZM119.54,58.07c.78.78.39,1.94-.61,1.78-.5-.11-.94-.56-.94-.94,0-.89,1-1.39,1.55-.83ZM120.09,60.74c.11-.17.39.11.61.61.5,1.44.39,1.78-.28.67-.33-.56-.5-1.17-.33-1.28ZM120.87,74.29c1.28-3.78,1.78-3.61.67.22-.28,1.17-.78,2.11-1,2.11-.28,0-.11-1.06.33-2.33ZM119.92,69.68c0-.89.67-1.11,1.28-.44.67.61.44,1.28-.44,1.28-.44,0-.83-.39-.83-.83ZM119.48,64.79c-.11-.56.17-.94.72-.94s.83.33.72.89c-.22,1.17-1.22,1.28-1.44.06ZM108.82,73.34c0-.39.78-1.44,1.72-2.33,1.28-1.17,2.28-1.61,3.83-1.61,3.94,0,6.44,3.55,4,5.72-1.94,1.78-4.55.83-4.55-1.61,0-1.28,1.72-2.28,2.78-1.61.72.44.72,1.94,0,1.94-.33,0-.56-.28-.56-.56,0-.33-.28-.56-.61-.56-.78,0-.39,2.33.39,2.61.78.28,2.44-1.33,2.44-2.33,0-1.39-1.72-2.5-3.78-2.5-1.5,0-2.44.44-3.83,1.78-1,1-1.83,1.44-1.83,1.05ZM115.04,67.24c-.83.72-.89.67-.17-.22.72-.89,1.17-1.17,1.17-.72,0,.11-.44.56-1,.94ZM87.56,73.73c-2.33-3.11.39-6,5.72-6,2.39,0,6.11,1.17,6.11,1.89,0,.17-1.89.11-4.16-.06-3.28-.28-4.39-.11-5.55.61-1.72,1.11-1.78,2.78-.17,3.89,1.67,1.17,2.55,1.11,9.83-.5l6.16-1.39,4.05-4.22c6.27-6.61,7.11-8.44,4.77-10.49-1.05-1-1.22-1-2.61-.17-1.61,1-3.72,4.66-4.28,7.38-.22,1.28.06.94,1.33-1.39,1.44-2.72,4.5-6.38,4.5-5.39,0,.22-.83,1.55-1.89,3-3.17,4.5-3.44,5.66-.67,2.72,1.39-1.5,2.72-2.55,2.94-2.33.22.17-.89,1.67-2.39,3.28-1.55,1.55-3.44,3.83-4.28,4.94-1.17,1.55-2.05,2.16-3.61,2.39-1.11.17-3.94.67-6.22,1.11-4.94,1-5.16,1-4.72.28.17-.28,1.61-.67,3.17-.89,4.05-.56,2-1.22-2.5-.83-3.5.33-4.94-.06-2.78-.72,1.55-.44,10.22-.5,12.38-.06,1.78.33,1.67.22-1.28-1.5-4.39-2.61-8.94-7.22-10.77-10.83-1.83-3.89-2.11-8.88-.5-10.66,1.55-1.67,4.16-1.5,6.88.5,5.11,3.66,7.88,9.99,7.88,17.93,0,3.55.17,4.33.67,3.83.39-.39.78-2.44.83-4.61.22-4.66,1.61-7.83,4.22-9.38,2.33-1.44,2.94-1.39,4.55.28,1.89,1.83,1.89,5-.06,7.77-2.39,3.61-8.77,10.27-9.77,10.27-.5,0-3,.5-5.55,1.11-7.33,1.78-9.94,1.39-12.27-1.78ZM91.66,62.57c.72.89.67.94-.22.22-.5-.39-.94-.83-.94-.94,0-.44.44-.17,1.17.72ZM94.11,65.35c1,.89,1.22,1.33.67,1.11-.56-.22-1.33-.39-1.61-.39-.33,0-.44-.17-.28-.39.22-.17.11-.67-.22-1.11-1-1.17-.39-.83,1.44.78ZM87.44,76.06c.56,0,.83.33.72.89-.22,1.17-1.22,1.28-1.44.06-.11-.56.17-.94.72-.94ZM91.16,78.12c-.5-.17-.06-.28,1-.28s1.5.11.94.28c-.5.11-1.39.11-1.94,0ZM92.72,81c0,.67-.33,1.17-.89,1.17-.5,0-.78-.39-.67-.94.28-1.39,1.55-1.55,1.55-.22ZM94.77,78.12c-.33-.17-.06-.28.72-.28s1.05.11.67.28c-.33.11-1,.11-1.39,0ZM96.05,83.28c.78,0,1.17,1,.56,1.39-.72.44-1.78-.22-1.39-.89.22-.28.56-.5.83-.5ZM89.39,87.83c-7.27-4.66-13.33-13.83-16.21-24.65-1.5-5.55-1.72-17.77-.5-23.93.72-3.5,1.33-4.33,2.55-3.22.33.22,2.05,1.06,3.89,1.78,1.83.72,3.39,1.33,3.44,1.33.11.06-.33,1.06-.89,2.28-1.78,3.61-2.83,8.49-3.17,14.38-.39,6.55.5,11.33,3.22,16.82,2.22,4.55,8.16,10.88,12.6,13.55,1.89,1.11,3.28,2.11,3,2.28-.22.11-1.55.39-2.94.61-2.17.33-2.83.17-5-1.22ZM80.12,63.13c-.11-.5-.11-1.39,0-1.94.17-.5.28-.06.28,1s-.11,1.5-.28.94ZM79.73,95.83c-2.5-2.5-4.72-4.05-8.27-5.77-4.55-2.22-12.38-4.55-15.21-4.55-1.5,0-4.72-3.66-6.83-7.83-2.39-4.66-3.39-8.77-3.22-13.1.17-3.44.28-3.83,1.61-4.44,3.39-1.61,11.77-1.28,17.16.72,5.55,2.05,6.94,3.33,8.88,8.44,3.28,8.27,10.05,17.1,14.93,19.38,1.22.56,2.28,1.11,2.28,1.28s-1.33.72-2.94,1.22c-3.44,1.11-2.89,1.61-8.16-7.11-6.61-10.99-15.05-17.93-20.93-17.27-2.94.33-3.94,1.11-4.39,3.5-.56,2.89,1.89,7.27,6,10.99,3.55,3.22,8.72,6,17.66,9.49,2.89,1.11,5.44,2.22,5.66,2.39.17.22.06,1.67-.28,3.22l-.56,2.83-3.39-3.39ZM81.78,91.11c-.56-.33-3-1.39-5.44-2.33-7.27-2.83-11.99-5.55-15.55-9.11-5-4.94-6.39-8.61-4.16-10.83,3.89-3.89,13.71,2.55,20.93,13.55,2,3.11,4.16,6.33,4.72,7.16,1.22,1.78,1.06,2.39-.5,1.55ZM81.62,107.82c1.28,2.11,1.33,2.44.56,2.94-.33.17-.56-.06-.56-.56s-.39-1.61-.83-2.5c-1.17-2.22-.56-2.11.83.11ZM71.18,113.15c.22-2.22.61-3.16,1.78-4.16,3.78-3.22,9.55.67,5.94,3.94-1.83,1.67-4.61.11-3.78-2.11.44-1.11,2.61-1.17,2.61-.06,0,.5-.33.67-.83.5-.5-.22-.83,0-.83.56,0,1,1.94,1.22,2.5.28.22-.28.22-1.17.06-1.94-.28-1.05-.72-1.33-2.16-1.33-2.55,0-4.28,1.94-4.44,4.94-.06,1.22-.28,2.28-.56,2.28s-.39-1.28-.28-2.89ZM78.56,105.82c-1.06.44-1.67,0-1.11-.83.44-.78,1.22-.78,1.67-.06.17.33-.06.72-.56.89ZM71.62,98.55c0-.44.28-.33,1.44.61,1,.78,1,.83-.22.22-.67-.33-1.22-.72-1.22-.83ZM71.84,103.43c.17-.22.33.11.28.72,0,.61-.17.78-.33.33-.17-.39-.11-.89.06-1.05ZM75.51,101.88c0,.56-.39.83-1,.72-.5-.11-.89-.44-.83-.72.17-1,1.83-.94,1.83,0ZM59.41,92.22c-8.27-1.11-19.04,1.67-26.32,6.77-1.22.89-1.72,1-1.89.44-.11-.39-1.33-2.33-2.61-4.27-1.33-1.94-2.22-3.66-2.05-3.78,1.17-.61,9.83-3.22,13.16-3.94,4.94-1.05,15.99-1,21.04.11,7.72,1.61,15.05,5.44,19.38,10.1,2.44,2.61,2.61,2.94,2.61,5.89,0,1.67-.06,3.05-.17,3.05s-1-1.11-1.94-2.44c-4.05-5.61-13.38-10.83-21.21-11.94ZM35.81,116.32c0-1.39,1.55-1.72,2.5-.56.5.61.56,1.05.17,1.44-.94.94-2.66.33-2.66-.89ZM38.25,121.31c-.17.11-.56-.28-.94-.83-.39-.61-.56-1.11-.44-1.11.39,0,1.61,1.72,1.39,1.94ZM36.98,101.33c-.67-.67-.72-1.17-.33-2,.72-1.28,1.83-1.39,2.83-.17.5.61.56,1.11.17,1.78-.83,1.28-1.61,1.39-2.66.39ZM34.31,112.04c-.94-.11-1.28-.56-1.28-1.55s.33-1.44,1.28-1.55c.72-.11,1.39.17,1.55.67.56,1.44-.22,2.66-1.55,2.44ZM32.04,102.44c1.28-1,1.39-1,2.61-.11,1.22.89,1,3.05-.39,3.94-2.16,1.39-4.33-2.28-2.22-3.83ZM45.92,127.03c-.67-.11-1.22-.56-1.22-1,0-.89,1.44-1.39,2.11-.78.89.89.33,1.94-.89,1.78ZM48.36,129.75c.72.83.67.83-.5.22-.67-.33-1.22-.78-1.22-.89,0-.61,1-.22,1.72.67ZM41.14,113.1c-1.22-1.55-.44-1.06,1.67,1,1.06,1.11,3.44,2.61,5.22,3.33,1.83.78,2.94,1.39,2.5,1.39-2.05,0-7.44-3.27-9.38-5.72ZM51.19,128.92c.72-.11,1,.17,1,1s-.28,1.11-1,1c-.5-.11-.94-.56-.94-1s.44-.89.94-1ZM43.03,126.59c-.61-.44-1.44-1.17-1.83-1.55-.39-.33-.5-.67-.22-.67.22,0,1.05.67,1.83,1.5,1,1.11,1.06,1.28.22.72ZM40.2,122.59c-.5-.5-.72-1.17-.56-1.5.22-.33.89-.61,1.44-.61,1.5,0,1.94,1.06.89,2.11-.83.83-.94.83-1.78,0ZM57.41,104.93c.33.33-.67.06-2.16-.61-1.61-.72-4.55-1.44-6.94-1.61l-4.16-.39,3.61-.06c3.5-.06,8.27,1.28,9.66,2.66ZM57.02,96.5c-.67-.11-1.22-.56-1.22-1,0-.89,1.44-1.39,2.11-.78.89.89.33,1.94-.89,1.78ZM54.52,93.66c-.67.11-1.67.11-2.22,0-.5-.17.06-.28,1.28-.22,1.22,0,1.67.11.94.22ZM50.52,97.16c-1.39,0-1.94-.94-1.11-1.94.39-.44.89-.83,1.11-.83.72,0,1.78,1.61,1.39,2.22-.17.28-.83.56-1.39.56ZM46.3,94.83c-.78-.17-.67-.28.5-.56,1.06-.17,1.39-.11,1.06.22-.33.33-1,.44-1.55.33ZM42.75,97.16c0-.72.39-1.11,1.11-1.11,1.33,0,2.11,1.44,1.22,2.33-.89.89-2.33.11-2.33-1.22ZM59.18,106.66c-.78-.89-.83-1.06-.11-1.33.5-.22.89.11,1.11.89.39,1.61.17,1.72-1,.44ZM59.8,94.22c-.33-.17-.06-.28.72-.28s1.06.11.67.28c-.33.11-1,.11-1.39,0ZM64.68,95.5c.44.72-.17,1.67-1.11,1.67-.78,0-1.5-1.33-1-1.89.56-.5,1.72-.39,2.11.22ZM67.62,96c.61.39.56.56-.17.83q-1.22.44-1.22-.5c0-.94.33-1,1.39-.33ZM70.51,98.77c-.5.89-1.67.33-1.67-.83,0-.83,1.39-1.11,1.89-.33.11.22.06.78-.22,1.17ZM60.29,128.86c-3.55,2.17-7.55.83-7.55-2.55s4.89-7.5,8.88-7.5c.94,0,2.44-.39,3.33-.83,2.28-1.17,2.11-.56-.72,2.44-1.28,1.39-3,3.44-3.83,4.5-.83,1.06-1.5,1.67-1.55,1.33,0-.33.94-1.83,2.05-3.33l2.11-2.72-2.33,1.83c-1.28,1-2.94,2.55-3.72,3.5-.89,1-1.44,1.39-1.44.89,0-.94,2.05-3.22,5-5.55l1.94-1.55-2.89,1.39c-4.16,2.06-6.33,5.61-4.5,7.44,2.11,2.11,5.22-.44,11.44-9.33,1.67-2.44,1.72-2.66,1.89-9.49.17-6.27.06-7.16-.89-8.22-.61-.67-1.67-1.17-2.39-1.17-2.66,0-3,5.27-.67,9.44.61,1.11.94,1.39.78.72-.78-2.94-1.22-7.16-.83-8.22.28-.72.5.11.83,2.72.61,5.72,1.33,7,1.33,2.39.06-2.05.22-3.72.5-3.72s.44,10.27.17,13.05c-.06.28-.72.61-1.61.67-11.88.89-11.6.89-15.49-.28-6-1.83-10.27-6.27-9.38-9.77.39-1.55,3.72-3.11,6.61-3.11,5.22,0,11.83,3.5,16.49,8.77,3.33,3.72,3.78,2.55.56-1.33-3.61-4.33-4.33-9.83-1.61-12.05,2-1.61,4.61-.94,6.38,1.67.89,1.33,1.06,2.61,1.06,9.05l.06,7.5-2.39,3.05c-5.16,6.55-5.94,7.38-7.61,8.38ZM54.24,118.87c1.33-.06,2.39.06,2.39.17s-.67.61-1.44,1.17c-.83.5-1.28.67-1.11.33.22-.33-.17-.83-.89-1.11-1.11-.44-.94-.56,1.06-.56ZM53.58,131.36q1.22-.44,1.61.5c.33.89-.61,1.11-1.78.33-.61-.39-.56-.56.17-.83ZM58.13,131.92c.17.44.17.94,0,1.17-.44.44-2.05-.22-2.05-.89,0-.89,1.72-1.17,2.05-.28ZM64.4,132.36c0,.44-.22.94-.44,1.11-.72.44-1.94-.61-1.55-1.28.56-.89,2-.78,2,.17ZM69.12,131.58c.44.72-.22,1.78-.89,1.39-.28-.22-.5-.72-.5-1.17,0-.89.89-1.05,1.39-.22ZM71.4,132.64c-.11-.11.67-.61,1.67-1.11,1.06-.5,1.89-.72,1.89-.5,0,.5-3.28,1.94-3.55,1.61ZM68.4,139.08l-5.27.17c-15.55.61-31.31-9.38-40.97-25.87-2.44-4.22-2.55-4.55-1.22-4.55.55,0,2.66-.61,4.72-1.28l3.72-1.28.39,1.67c.61,2.89,3.94,9.72,6.61,13.38,4.66,6.55,10.88,10.83,18.6,12.88,4.11,1.05,13.21,1.17,15.77.22.89-.39,1.67-.55,1.78-.5.06.11-.83,1.28-2,2.67l-2.11,2.5ZM68.35,152.24l-1.55-.33c-3.94-.78-6.77-.89-9.05-.44-6.27,1.33-10.1,2.67-15.16,5.22l-5.44,2.83-3.16-.67c-5.22-1-11.66-4.5-15.27-8.33-1.83-1.89-3.16-3.83-3.16-4.5s1.28-2.55,3.11-4.44c3.44-3.61,8.77-6.72,13.88-8.05,1.78-.44,3.72-.78,4.39-.78.61.05,3.33,1.28,6.11,2.72,4.61,2.5,8.16,3.72,14.71,5.05,2.28.5,5.11.39,9.05-.39l1.55-.33-1.5,2.89c-.89,1.67-1.78,2.72-2.16,2.55-.39-.11-4.28-1.39-8.66-2.83-9.72-3.16-16.82-3.89-22.37-2.28-6.05,1.78-8.22,5.83-4.83,9.22,2.44,2.5,6.94,3.55,13.66,3.16,4.61-.22,6.94-.72,13.55-2.89,4.39-1.44,8.27-2.72,8.66-2.83.39-.17,1.28.89,2.16,2.55l1.5,2.89ZM46.64,151.07c-4.44.94-11.99.39-14.88-1.11-4.44-2.28-4.44-5.61,0-7.88,3.66-1.89,11.94-2.05,18.21-.33,6.83,1.89,13.32,3.94,13.32,4.28,0,.39-12.82,4.27-16.66,5.05ZM71.62,159.4c1.22,0,3.33,1.11,3.33,1.78,0,.28-.28.28-.72-.06-.39-.33-1.33-.89-2.11-1.17-.72-.28-.94-.56-.5-.56ZM67.73,160.23c0-.44.22-.94.5-1.17.67-.39,1.33.67.89,1.39-.5.83-1.39.67-1.39-.22ZM58.96,157.18c-9.99,1.5-16.99,5.66-22.65,13.55-2.61,3.72-5.94,10.49-6.55,13.38l-.39,1.67-3.72-1.28c-2.05-.67-4.16-1.28-4.72-1.28-1.33,0-1.22-.33,1.22-4.55,7.44-12.71,18.49-21.6,30.92-24.87,4.44-1.17,12.77-1.5,14.94-.61.61.28,1.94,1.55,3,2.89,1.44,1.78,1.67,2.28.83,1.94-2.55-1.06-8.94-1.44-12.88-.83ZM36.37,176.89c-.5-.17-.83-.78-.72-1.28.22-1.17,2.39-1.67,2.94-.72.56.94-1.11,2.44-2.22,2ZM36.98,190.77c1.05-1.11,1.55-1.11,2.5,0,.83,1,.11,2.61-1.33,2.89-1.39.28-2.22-1.83-1.17-2.89ZM37.31,172.17q-.89.72-.11-.33c.44-.61.89-1.22.94-1.33.11-.11.17,0,.17.33,0,.33-.44.94-1,1.33ZM35.87,182.44c-.17.5-.83.78-1.55.67-.94-.11-1.28-.55-1.28-1.55s.33-1.44,1.28-1.55c1.33-.22,2.11,1,1.55,2.44ZM34.42,189.88c-2.22,1.22-4.5-1.94-2.66-3.77.39-.39,1.05-.67,1.55-.67,2.22,0,3.05,3.39,1.11,4.44ZM50.52,173.22c.44,0-.67.61-2.44,1.39-1.83.72-4.28,2.28-5.55,3.44-1.22,1.17-1.89,1.61-1.44,1,1.39-1.89,2.94-3.05,5.83-4.44,1.5-.78,3.17-1.39,3.61-1.39ZM50.08,161.95c.33-.83,1.89-1.22,2.28-.56.17.28.11.83-.17,1.22-.55.94-2.39.33-2.11-.67ZM46.86,163.12c-.17-.22.28-.67,1-1q1.22-.67.33.33c-.56.55-1.11.83-1.33.67ZM47.08,165.84c-.22,1.22-2.39,1.39-2.39.17,0-.44.61-.89,1.28-1,1.05-.17,1.28,0,1.11.83ZM42.81,166.17c-.78.83-1.61,1.5-1.83,1.5-.28,0-.17-.33.22-.72.39-.33,1.22-1.05,1.83-1.5.83-.55.78-.39-.22.72ZM41.09,171.56c-1.39,0-1.94-.94-1.11-1.94.39-.44.89-.83,1.11-.83.72,0,1.78,1.61,1.39,2.22-.17.28-.83.55-1.39.55ZM54.13,171.56c-.5-.78-.17-.67,1.39.56l1.39,1.11-2.5-.05c-2.11,0-2.28-.11-1.22-.56.72-.28,1.11-.72.94-1.06ZM53.58,159.68c1.44-.56,1.94-.39,1.61.5-.39.94-.72,1-1.78.33-.61-.39-.56-.55.17-.83ZM58.3,159.57c0,.44-.22.94-.44,1.11-.72.44-1.94-.61-1.55-1.28.56-.89,2-.78,2,.17ZM64.24,159.12c.17.44.17.94,0,1.17-.44.44-2.05-.22-2.05-.89,0-.89,1.72-1.17,2.05-.28ZM70.23,187.94c-.89,6.33-7.99,7.83-8.94,1.94-.5-2.94.61-6.05,3.11-9.11,3.22-3.89,2.78-5.05-.56-1.33-4.66,5.27-11.27,8.77-16.49,8.77-2.89,0-6.22-1.55-6.61-3.11-.89-3.5,3.39-7.94,9.38-9.77,3.89-1.17,3.61-1.17,15.49-.28.89.05,1.55.33,1.61.67.28,2.78.11,13.05-.17,13.05s-.44-1.67-.5-3.77c0-4.55-.72-3.28-1.33,2.44-.33,2.61-.56,3.44-.83,2.72-.39-1.06.06-5.27.83-8.22.17-.67-.17-.39-.78.72-2.33,4.16-2,9.44.67,9.44.72,0,1.78-.5,2.39-1.17.94-1.06,1.06-1.94.89-8.22-.17-6.83-.22-7.05-1.89-9.5-6.22-8.88-9.33-11.44-11.44-9.33-1.83,1.83.33,5.38,4.5,7.44l2.89,1.39-1.94-1.55c-2.94-2.33-5-4.61-5-5.55,0-.5.56-.11,1.44.89.78.94,2.44,2.5,3.72,3.5l2.33,1.83-2.11-2.72c-1.11-1.5-2.05-3-2.05-3.33.06-.33.72.28,1.55,1.33.83,1.05,2.55,3.11,3.83,4.5,2.83,3,3,3.61.72,2.44-.89-.44-2.39-.83-3.33-.83-5.83,0-11.49-7.55-7.66-10.22,2.72-1.94,6.55-.61,9.77,3.33,6.66,8.22,6.39,7.66,6.61,13.77.11,3.11.06,6.61-.11,7.83ZM44.14,189.71l4.16-.39c2.33-.17,5.33-.89,6.83-1.55,1.44-.67,2.5-.94,2.33-.67-.72,1.17-6.55,2.78-9.88,2.67l-3.44-.06ZM47.97,197.6c.17.22-.33.33-1.06.17-.78-.11-1.39-.33-1.39-.44,0-.44,2.16-.22,2.44.28ZM50.52,194.88c1.5,0,1.94,1.06.89,2.11-.83.83-.94.83-1.78,0-.5-.5-.72-1.17-.56-1.5.22-.33.89-.61,1.44-.61ZM53.58,198.38c1.22,0,1.67.11.94.22-.67.11-1.67.11-2.22,0-.5-.17.06-.28,1.28-.22ZM57.07,195.54c1.06-.17,1.28,0,1.11.83-.22,1.22-2.39,1.39-2.39.17,0-.44.61-.89,1.28-1ZM45.3,193.99c.44,1.17-.17,2-1.5,2-.83,0-1.11-.33-.94-1.22.22-1.5,1.94-2.05,2.44-.78ZM58.96,186.61c-.5-.33-.44-.67.44-1.44,1.11-1,1.33-.72.67.94-.22.61-.67.78-1.11.5ZM60.52,197.76c.78,0,1.06.11.67.28-.33.11-1,.11-1.39,0-.33-.17-.06-.28.72-.28ZM64.74,195.49c.5.83-.61,1.83-1.67,1.44-.5-.22-.72-.72-.56-1.22.39-.94,1.67-1.11,2.22-.22ZM67.62,195.38c.61.39.56.56-.17.83q-1.22.44-1.22-.5c0-.94.33-1,1.39-.33ZM70.73,193.49c.17.5-.06,1-.56,1.22-1.05.39-1.55-.11-1.17-1.22.44-1.06,1.28-1.06,1.72,0ZM76.17,184.33c-2.78,0-4.66-2.05-5-5.44-.11-1.61,0-2.89.28-2.89s.5,1.06.56,2.28c.17,3,1.89,4.94,4.44,4.94,1.44,0,1.89-.28,2.16-1.33.17-.78.17-1.66-.06-1.94-.56-.94-2.5-.72-2.5.28,0,.55.33.78.83.55.5-.17.83,0,.83.5,0,1.11-2.16,1.05-2.61-.06-.83-2.22,1.94-3.77,3.78-2.11,2.22,2,.61,5.22-2.72,5.22ZM73.84,192.32c0,.17-.5.56-1.11.89-.61.33-1.11.44-1.11.33,0-.17.5-.55,1.11-.89.61-.33,1.11-.44,1.11-.33ZM73.68,190.16c.17-1,1.83-.94,1.83,0,0,.56-.39.83-1,.72-.5-.11-.89-.44-.83-.72ZM71.79,188.33c-.17-.39-.11-.89.06-1.05.17-.22.33.11.28.72,0,.61-.17.78-.33.33ZM79.12,186.49c.17.28.06.67-.28.89-.67.39-1.67-.11-1.67-.89,0-.67,1.5-.67,1.94,0ZM80.45,185.77c-.39.22-.39-.11.06-.94.39-.67.89-1.89,1.06-2.66.28-.89.56-1.17.83-.72.39.67-.94,3.66-1.94,4.33ZM82.73,188.6q0,3.16-3.5,6.55c-3.78,3.66-10.33,7.27-16.21,8.88-4.44,1.22-16.82,1.72-21.65.89-3.22-.55-13.6-3.55-14.82-4.27-.17-.11.72-1.83,2.05-3.77,1.28-1.94,2.5-3.89,2.61-4.27.17-.56.67-.44,1.89.44,7.27,5.11,18.04,7.88,26.32,6.77,7.83-1.11,17.16-6.33,21.21-11.94.94-1.33,1.83-2.44,1.94-2.44s.17,1.44.17,3.16ZM91.05,202.1c0,.17-1.06.72-2.28,1.28-4.89,2.28-11.66,11.1-14.93,19.38-2.05,5.33-3.44,6.55-9.99,8.83-4.44,1.5-13.16,1.78-15.82.5-1.55-.78-1.67-1.06-1.83-4.61-.17-4.33.83-8.44,3.22-13.1,2.11-4.16,5.33-7.83,6.83-7.83,2.83,0,10.66-2.33,15.21-4.55,3.55-1.72,5.77-3.27,8.27-5.77l3.39-3.39.56,2.83c.33,1.55.44,3,.28,3.22-.22.17-2.78,1.28-5.66,2.39-8.94,3.5-14.1,6.27-17.66,9.49-4.11,3.72-6.55,8.11-6,10.99.44,2.39,1.44,3.16,4.39,3.5,5.89.67,14.32-6.27,20.93-17.27,5.27-8.72,4.72-8.22,8.16-7.11,1.61.5,2.94,1.06,2.94,1.22ZM82.23,202.54c-.56.83-2.67,4-4.66,7.11-7.22,10.99-17.05,17.43-20.93,13.55-2.22-2.22-.83-5.88,4.16-10.83,3.55-3.55,8.99-6.66,16.38-9.44,2.28-.89,4.39-1.78,4.66-2.05.61-.5,1.44-.61,1.44-.17,0,.17-.44,1-1.05,1.83ZM94.39,205.87c-4.5,2.67-10.38,9-12.66,13.55-2.72,5.5-3.61,10.27-3.22,16.82.33,5.88,1.39,10.77,3.17,14.38.56,1.22,1.05,2.28,1.05,2.33,0,.06-.67.28-1.44.44-.78.22-2.72,1-4.27,1.72-1.55.78-3,1.39-3.22,1.39-.89,0-1.89-8-1.83-15.27,0-6.22.22-8.66,1.22-12.38,2.89-10.83,8.94-19.99,16.16-24.65,2.44-1.56,2.89-1.61,5.61-1.17,3,.5,2.94.78-.56,2.83ZM80.12,230.8c-.11-.5-.11-1.39,0-1.94.17-.5.28-.06.28,1s-.11,1.5-.28.94ZM87.94,214.14c.67.67.33,1.83-.5,1.83-.44,0-.83-.33-.83-.78,0-.94.78-1.55,1.33-1.06ZM93.11,214.14c-.5.11-1.39.11-1.94,0-.5-.17-.06-.28,1-.28s1.5.11.94.28ZM91.16,210.81c-.11-.56.17-.94.67-.94.56,0,.89.5.89,1.17,0,1.33-1.28,1.17-1.55-.22ZM96.16,214.14c-.33.11-1,.11-1.39,0-.33-.17-.06-.28.72-.28s1.05.11.67.28ZM95.22,207.59c.22-.28.56-.5.83-.5.78,0,1.17,1,.56,1.39-.72.44-1.78-.22-1.39-.89ZM115.15,227.91c1.94,2.78,1.94,5.94.06,7.77-1.61,1.67-2.22,1.72-4.55.28-2.61-1.55-4-4.72-4.22-9.38-.06-2.16-.44-4.22-.83-4.61-.5-.5-.67.28-.67,3.83,0,7.94-2.78,14.27-7.88,17.93-4.61,3.39-7.94,1.72-7.88-3.89.06-6.05,4.89-12.77,12.27-17.1,2.94-1.72,3.05-1.83,1.28-1.5-2.17.44-10.83.39-12.38-.06-2.16-.67-.72-1.06,2.78-.72,4.5.39,6.55-.28,2.5-.83-1.55-.22-3-.61-3.17-.89-.44-.72-.22-.72,4.72.28,2.28.44,5.11.94,6.22,1.11,1.55.22,2.44.83,3.61,2.39.83,1.11,2.72,3.39,4.28,4.94,1.5,1.61,2.61,3.11,2.39,3.28-.22.22-1.55-.83-2.94-2.33-2.78-2.94-2.5-1.78.67,2.72,1.05,1.44,1.89,2.78,1.89,3,0,1-3.05-2.66-4.5-5.38-1.28-2.33-1.55-2.66-1.33-1.39.56,2.72,2.66,6.39,4.28,7.38,1.39.83,1.55.83,2.61-.17.67-.55,1.17-1.5,1.17-2.11,0-1.33-1.72-4.16-3.44-5.72-.72-.61-2.44-2.39-3.83-4-2.55-2.83-2.61-2.83-8.83-4.28-7.33-1.61-8.22-1.66-9.88-.5-1.61,1.11-1.55,2.78.17,3.89,1.17.72,2.28.89,5.55.61,2.28-.17,4.16-.22,4.16-.05,0,.72-3.72,1.89-6.11,1.89-5.33,0-8.05-2.89-5.72-6,.61-.83,1.72-1.83,2.44-2.17,1.83-.94,5-.83,9.94.39,2.28.61,4.66,1.05,5.27,1.11,1.17,0,7.33,6.38,9.94,10.27ZM91,229.69c.72-.89,1.17-1.16,1.17-.72,0,.11-.44.56-1,.94-.83.72-.89.67-.17-.22ZM92.61,227.58c.33-.5.5-1.05.28-1.22-.17-.22-.06-.39.28-.39.28,0,1.05-.17,1.61-.39.56-.17.89-.22.72-.11-.17.11-1,.83-1.94,1.61-.89.78-1.33,1-.94.5ZM94.33,250.34c1.06.67.5,3.05-.72,3.27-1.06.22-2-.72-2-1.94,0-.94,1.83-1.83,2.72-1.33ZM97.66,245.73c-2.61,1.33-2.55.89.11-.78,1.33-.89,3.11-2.55,3.89-3.78.83-1.17,1.89-2.94,2.39-3.83.44-.94.83-1.44.89-1.22.06,1.94-4.72,8.22-7.27,9.61ZM100.66,249.12c.67.61.44,2.28-.33,2.55-1.28.5-2.22-.44-1.78-1.78.33-1.17,1.39-1.55,2.11-.78ZM103.32,250.4c.78,0,.61.39-.39.78-.44.17-.67.11-.5-.22.17-.33.56-.56.89-.56ZM106.82,246.46c.56.89-.28,2.33-1.28,2.17-.5-.11-.89-.67-.89-1.28,0-1.17,1.61-1.83,2.17-.89ZM105.77,234.69c-.72.67-.78.55-.44-1.05.44-2.33.5-2.44.89-.94.17.67,0,1.55-.44,2ZM111.6,245.62c0,.17-.83.83-1.83,1.5-1.28.94-1.55,1-1,.33.78-1,2.83-2.33,2.83-1.83ZM109.76,242.85c.17-.44.67-.78,1.06-.78,1.05,0,1.67,1.55.89,2.33-.83.83-2.39-.44-1.94-1.55ZM114.98,241.96c-.33.67-.89,1.33-1.22,1.55-.44.22-.44.06,0-.78.33-.67.89-1.33,1.22-1.55.44-.22.44-.05,0,.78ZM114.65,238.74c0-.44.44-.89.94-1,.72-.11,1,.17,1,1s-.28,1.11-1,1c-.5-.11-.94-.56-.94-1ZM118.81,235.8c0,.28-.28.83-.56,1.28-.44.72-.56.67-.56-.17,0-.61-.22-.83-.67-.61-.39.22-.44.17-.22-.22.44-.72,2-.89,2-.28ZM117.98,233.19c0-.44.44-.89,1-1,.78-.17,1,.06.83.83-.22,1.17-1.83,1.39-1.83.17ZM116.59,227.64c-.33-.61-.44-1.11-.33-1.11.17,0,.56.5.89,1.11.33.61.44,1.11.33,1.11-.17,0-.56-.5-.89-1.11ZM115.32,225.47c-.5-.39-.94-.83-.94-.94,0-.44.44-.17,1.17.72.72.89.67.94-.22.22ZM110.54,221.03c-.94-.89-1.72-1.94-1.72-2.33,0-.39.83.06,1.83,1.06,1.39,1.33,2.33,1.78,3.83,1.78,2.05,0,3.78-1.11,3.78-2.5,0-1-1.67-2.61-2.44-2.33-.78.28-1.17,2.61-.39,2.61.33,0,.61-.28.61-.56,0-.33.22-.56.56-.56.72,0,.72,1.5,0,1.94-.33.17-1.06.17-1.67,0-1.22-.39-1.5-2.44-.44-3.5,1-1,2.94-.83,3.94.33,3.61,4-3.89,7.83-7.88,4.05ZM120.7,226.36c.67.67.33,1.83-.5,1.83-.44,0-.83-.33-.83-.78,0-.94.78-1.55,1.33-1.05ZM120.48,229.86c.28-.44.55-.61.55-.28,0,.28-.28.94-.55,1.39-.28.44-.56.56-.56.28,0-.33.28-.94.56-1.39ZM119.92,222.42c0-.5.39-.89.89-.89s.78.28.67.67c-.33,1-1.55,1.17-1.55.22ZM121.92,220.25c-.17.17-.44-.44-.61-1.28-.17-.89-.56-2.06-.89-2.61-.33-.61-.33-.94.06-.94.55,0,1.89,4.39,1.44,4.83ZM101.32,261.34c-3.78,1.94-10.38,4.61-11.33,4.61-.22,0-.61-1.83-.78-4.05-.17-2.17-.39-4.39-.5-4.83-.11-.55.67-.89,3.16-1.22,7.05-.94,14.71-4.33,20.49-9.05,3.44-2.78,7.27-8.66,8.99-13.6.94-2.72,1.61-5.94,1.83-9.33l.33-5.16,1.78,1.83c1.72,1.78,1.83,2.16,1.83,5.66,0,12.55-11.16,27.76-25.82,35.15ZM112.93,256.23c-.22.44-.56.67-.83.5-.28-.17-.39-.55-.22-.83.56-.83,1.39-.56,1.06.33ZM143.13,259.17c.56,1.67-3.72,8.94-7.49,12.77-3.44,3.5-8.44,6.77-10.33,6.77-2.28,0-7.11-6.33-9.27-12.1-.67-1.67-1.39-5.05-1.72-7.5-.33-2.67-.33-4.66-.06-4.94.33-.33.61,1.44.78,4.39.39,6.05,2.22,10.94,5.88,15.49,3.22,3.94,4.5,4.27,8.5,2.05,5.39-2.89,10.83-9.49,12.71-15.43.39-1.22.83-1.89,1-1.5ZM143.85,263.39c1-.56.06,3.05-1.44,5.61-.72,1.22-2,2.89-2.89,3.72-1.5,1.44-14.27,10.33-15.49,10.83-.33.11-.83-.39-1.17-1.05-.33-.72-2.44-3.83-4.72-6.94-4.83-6.5-6.66-10.44-6.72-14.16,0-1.5.17-2.89.5-3.16.28-.33.5.83.56,3.16,0,2.89.33,4.33,1.44,6.5,1.55,3,9.77,14.43,10.33,14.43s10.55-6.77,13.38-9.05c2.78-2.28,5.61-6.38,5.61-8.22,0-.72.28-1.44.61-1.66ZM144.02,262.45c-.17-.17-.22-.61-.11-1,.22-.61.33-.61.67,0,.5.72,0,1.55-.56,1Z"/>
      <path class="cls-1" d="M150,237.86v3.01c-.22-.33-.47-.61-.54-1.13-.07-.67.14-1.27.54-1.88Z"/>
      <path class="cls-1" d="M122.7,4.16c0-.44.22-.83.56-.83.28,0,.56.39.56.83s-.28.83-.56.83c-.33,0-.56-.39-.56-.83Z"/>
      <path class="cls-1" d="M148.3,31.65c-.28,0-.78.72-1.17,1.67-.39.89-.94,1.67-1.22,1.67s-.39.22-.22.5c.17.28-.06.61-.5.83-1.06.39.56-2.94,3.78-7.72.25-.37.7-.9,1.04-1.35v1.9c-.48.61-.81,1.14-.93,1.51-.22.56-.56,1-.78,1Z"/>
      <path class="cls-1" d="M142.74,46.08c0-1.11,1.55-4.94,1.55-3.89.06.17-.33,1.39-.72,2.78-.61,1.78-.83,2.11-.83,1.11Z"/>
      <path class="cls-1" d="M74.23,19.65c-.67-.17-1.28-.39-1.28-.44-.11-.11-.67-4.77-.61-4.77.06.06.94.78,1.94,1.61,1.44,1.28,1.78,1.89,1.5,2.78-.28.94-.67,1.11-1.55.83Z"/>
      <path class="cls-1" d="M117.76,34.98c-.5,1.72-.56,1.5-.39-1.67.28-4.33,1.83-8.66,4.77-13.27,2.39-3.72,3.55-4.16,6.16-2.39,4.16,2.72,8.44,7.61,10.72,12.16,1.72,3.5,1.78,4,.33,2.66-.61-.56-1.11-1.22-1.11-1.55,0-1.11-5.66-8.11-8.16-10.05-3.83-3-5.33-2.66-7.77,1.61-1.61,2.94-2.33,4.83-4.55,12.49Z"/>
      <path class="cls-1" d="M128.75,25.21c-.67.56-3.28.83-3.28.33,0-.28.78-.56,1.78-.56.94,0,1.61.11,1.5.22Z"/>
      <path class="cls-1" d="M149.63,215.64l.37.31v-3.61c-1.49,2.15-4.54,5.17-4.54,4.31,0-.39.39-.83.83-1,.56-.22.72-.78.44-1.78-.28-1.22-.17-1.33.89-1.05,1.44.39,2.72-1.44,1.78-2.61-.44-.56-.44-.89.17-1.39.16-.14.28-.12.43-.18v-5.55c-.3,2.25-.84,4.48-1.82,6.28-1.55,3-5.94,6.44-9.66,7.55-2.94.94-3.22.89-4.77-.44-.72-.61-1.61-1.33-1.89-1.5-.72-.44-2.33-2.83-4.05-5.89-1.89-3.28-1.83-8.61.11-12.88,1.44-3.11,1.94-5.11.89-3.55-.5.72-.67.72-1.33-.17-.72-.94-.83-.89-1.89.56-1.39,2-2.89,6.38-3.28,9.72-.28,2.5-.39,2.61-3.11,3.72-1.55.67-3.78,1.33-4.89,1.5-2.5.39-2.78-.06-3.83-5.94l-.61-3.44,1.83-1.44c3.05-2.39,6.5-6.33,7.22-8.27.78-2,.89-2.05,2.39-.89,1.89,1.5,6,3.22,7.94,3.28,2.5.11,2.66.5,1.06,2.61-1.55,2.06-3.17,6.94-3.17,9.55,0,4.22,5.94,12.55,8.94,12.55,4.72,0,11.05-4.83,12.44-9.61,1-3.28,1.05-6.5.22-9.44-.33-1.22-.5-2.22-.39-2.28.23-.18.93-.02,1.65.24v-1.69c-2.42-.52-5.17-1.25-6.65-1.77-2.11-.78-4.22-1.17-6.22-1.05-4.11.17-10.22-.89-12.71-2.17-2.33-1.17-4.94-4.11-8.27-9.44-1.28-2-2.55-3.83-2.83-4.05-3.22-2.78-8.55-8.38-9.83-10.33-1.55-2.33-1.61-2.72-1.5-8.11.06-3.11.33-6.66.72-7.94.44-1.72.44-2.94,0-4.61-.33-1.22-.67-4.77-.72-7.88-.06-7.11.28-7.88,7.16-14.71,2.89-2.83,5.22-5.33,5.22-5.44,0-.78,5.72-8.49,7.61-10.33,2.61-2.5,4.94-3.16,12.38-3.55,3.72-.22,6.94-.72,8.88-1.44,1.51-.56,4.4-1.26,6.76-1.73v-1.51c-.72.26-1.42.42-1.65.24-.11-.06.06-1.06.39-2.28.83-2.94.78-6.16-.22-9.44-1.39-4.77-7.72-9.6-12.44-9.6-3,0-8.94,8.33-8.94,12.55,0,2.55,1.61,7.49,3.11,9.49.72.94,1.33,1.89,1.33,2.05s-.83.33-1.83.33c-1.89,0-5.61,1.55-8.33,3.44-.89.61-1.61,1.06-1.72.94-.06-.11-.44-1-.83-1.89-.72-1.83-4.27-5.83-7.16-8.11l-1.83-1.44.61-3.44c1.05-6,1.33-6.38,4-5.94,1.22.22,3.44.89,4.89,1.5,2.5,1.06,2.66,1.28,2.94,3.72.39,3.33,1.89,7.72,3.28,9.72,1.06,1.44,1.17,1.5,1.89.56.67-.89.83-.89,1.33-.17,1.06,1.55.56-.44-.89-3.55-1.94-4.28-2-9.61-.11-12.88,1.72-3.05,3.33-5.44,4.05-5.89.28-.17,1.17-.89,1.89-1.5,1.5-1.28,2.22-1.33,5.05-.39,3.5,1.11,7.88,4.61,9.38,7.49.97,1.81,1.52,4.03,1.82,6.29v-5.58c-.16-.06-.31-.06-.48-.2-.56-.44-.56-.78-.11-1.33.94-1.17-.33-3-1.78-2.61-1.06.28-1.17.17-.89-.94.22-.89.06-1.55-.61-2-.5-.39-.78-.83-.61-1,.34-.39,2.99,2.27,4.48,4.28v-3.78c-.11.07-.4.28-.43.28-.17,0-1.61-1-3.22-2.17-1.61-1.17-4.89-3.16-7.33-4.39l-4.39-2.22-3.5,3.39c-1.89,1.89-4.5,5-5.77,6.94-1.72,2.61-2.5,3.39-3.16,3.11-5.55-2.33-12.77-3.55-13.77-2.39-.89,1.11-3.5,9.72-3.5,11.6,0,1.55-.06,1.61-3.78,1.94-2.05.17-6,.83-8.83,1.44l-5.11,1.11-.39,2c-.22,1.06-.22,5.16-.11,9.11.17,5.16.11,7.16-.39,7.16-.94,0-9.83,4.39-10.99,5.39-.5.5-.94,1.44-.94,2.05,0,1.5,3.55,9.55,4.77,10.94.94,1,.78,1.22-2.89,5.11-2.11,2.17-4.83,5.33-6,6.94l-2.11,2.89,2.78,3.78c1.55,2.05,4.16,5.05,5.83,6.66l3,2.94-2.39,4.77c-2.83,5.61-3.44,8.11-2.39,9.44.83.94,10.22,5.72,11.33,5.72.5,0,.56,1.94.39,7.16-.11,3.94-.11,8.05.11,9.11l.39,2,5.11,1.11c2.83.61,6.77,1.28,8.83,1.44,3.72.33,3.78.39,3.78,1.94,0,1.89,2.61,10.49,3.5,11.6,1,1.17,8.22-.05,13.77-2.39.67-.28,1.39.39,2.78,2.55,1,1.61,3.55,4.72,5.66,6.94l3.83,4,4.83-2.44c2.61-1.33,6-3.39,7.55-4.61l2.78-2.11ZM126.59,79.34c0,.28-.28.72-.56.89-.33.17-.56.11-.56-.22,0-.28.22-.72.56-.89.28-.17.56-.11.56.22ZM143.74,73.79c.89.67,1.22,1.33,1,2-.5,1.22-1.78.78-1.78-.61,0-.56-.39-1.33-.83-1.72-1.33-1.11.17-.78,1.61.33ZM138.41,72.51c.39-1,1.83-1.17,2.39-.28.17.33,0,.94-.39,1.39-1,.94-2.44.11-2-1.11ZM133.36,71.23c-.22-1.67,1.61-2.61,3-1.55.83.61.94.94.44,1.78-.89,1.44-3.22,1.33-3.44-.22ZM130.47,73.56c.89-1.05,1.61-1.05,2,0,.39,1-.17,1.94-1.17,1.94-1.17,0-1.55-1.06-.83-1.94ZM129.36,75.51c0,.28-.28.56-.61.56-.28,0-.39-.28-.22-.56.17-.33.44-.56.61-.56.11,0,.22.22.22.56ZM127.2,77.4c.83-1,1.55-1,2,.11.5,1.28-.72,2.22-1.78,1.33-.67-.56-.72-.89-.22-1.44ZM126.03,97.44c0-.44.39-.83.83-.83s.83.39.83.83-.39.83-.83.83-.83-.39-.83-.83ZM124.37,94.33c0-.67,1.5-.67,1.94,0,.17.28.06.67-.28.89-.67.39-1.67-.11-1.67-.89ZM123.81,90.72c0-.89,1.44-1.06,2-.17.17.33.11.83-.22,1.17-.72.72-1.78.11-1.78-1ZM124.64,81.56c.44-.67,1.78-.67,2.22.06.44.72-.17,1.67-1.06,1.67-1.11,0-1.44,2.05-.56,2.83.61.5.67.83.17,1.39-.44.56-.83.61-1.33.22-.67-.56-.28-4.77.56-6.16ZM132.19,98.33c-4.77-6.72-4.44-13.44,1-18.88,1.28-1.28,2.61-2.28,2.94-2.22,2.33.17,7,2.66,8.88,4.77,2.5,2.72,3.39,8.88,2.11,13.6-.5,1.83-.89,2.16-2.94,2.72-1.28.33-2.78,1-3.28,1.44-.5.44-1.22.67-1.61.39-.39-.22-1.89-.33-3.33-.28-2.33.11-2.72-.06-3.78-1.55ZM132.19,193.71c1.05-1.44,1.44-1.67,3.78-1.55,1.39.06,2.94-.06,3.39-.22,1.11-.44,3.5.55,3.05,1.28-.22.33-.17.5.11.44.22-.06,1.22.06,2.22.22,1.33.33,1.89.83,2.39,2.33.78,2.5.83,7.94,0,10.05-1.44,3.83-5.66,7.38-9.83,8.27-1.55.39-2,.17-4.05-1.89-5.5-5.5-5.83-12.21-1.05-18.93ZM98.55,197.43c0-1.44,1.39-1.83,1.78-.44.33,1.44,2.72,1.5,3.11.06.33-1.22,1.39-1.39,1.83-.28.39,1.06,2.28.44,2.61-.83.33-1.17,1.22-1.39,1.83-.39.94,1.5-4.22,3.39-8.55,3.11-2.17-.17-2.61-.33-2.61-1.22ZM93.39,196.38c.11-.61.44-1.22.78-1.33.83-.28,2.05,1.28,1.61,2.05-.17.33.17.56.89.56.67,0,1.11.17.94.33-.17.17-1.22.11-2.39-.11-1.61-.28-1.94-.55-1.83-1.5ZM88.39,194.93c.17-1.44,1.94-2.28,2.83-1.39.67.67.44,2.28-.39,2.94-1.22,1-2.66.11-2.44-1.55ZM87.94,188.38c-.06-1.61.17-4.28.44-6,.44-2.44.78-3.05,1.61-3.05.67,0,1.06.39,1.06,1.11s-.39,1.11-1.11,1.11c-1.33,0-1.55,2.11-.28,2.55,1.11.44,1.06,1.83-.17,2.33-1.22.5-1.22,1.94.06,2.44,1.33.56,1,2.39-.44,2.39-.94,0-1.11-.39-1.17-2.89ZM90.72,178.05c-.39.56-.83.83-1.06.61-.22-.22.17-1.17.83-2.05,1.22-1.72,1.72-2.05,2.39-1.33.72.67.39,1.83-.5,1.83-.5,0-1.28.44-1.67.94ZM81.23,160.51c1.11.11,2.61.56,2.61.78,0,.11-1,2.06-2.22,4.28-1.22,2.22-2.22,4.5-2.22,5.05,0,.72,1.11,1.5,3.61,2.66,1.94.89,4.11,1.61,4.72,1.61,1.28,0,1.44,1,.33,2.5-.72,1-.83,1-4.16-.28-1.89-.67-4.44-2-5.61-2.83-2.89-2.11-2.89-3.5.06-9.33,1.22-2.44,2.55-4.44,2.89-4.44ZM76.79,153.57c.22-.5.78-.89,1.28-.89.67,0,.83.39.67,1.39-.17.89.06,1.66.72,2.28.61.56,1.05.67,1.05.33,0-.39.5-.67,1.17-.67.78,0,1.05.28.94.94-.28,1.44,1.83,2.44,2.72,1.33.5-.67.78-.72,1.28-.22.89.83.22,1.83-1.17,1.83-2.78,0-9.27-4.72-8.66-6.33ZM73.4,150.07c.11-.56.61-1.06,1.17-1.17,1.11-.22,1.89,1.39,1.05,2.22-.83.83-2.44.06-2.22-1.05ZM72.84,144.41c1.33.72,1.28,2.55-.06,3.22-.78.44-1.28.33-2.05-.56-.94-1.05-.94-1.11.11-2.16.78-.78,1.28-.89,2-.5ZM75.62,142.8c-.83.83-2.44.06-2.22-1.06.11-.55.61-1.05,1.17-1.16,1.11-.22,1.89,1.39,1.05,2.22ZM76.56,143.52c3.55-7.11,11.33-10.77,18.77-8.83,1.72.44,3.39.72,3.72.56.39-.17.33-.28-.11-.28-.33-.06-.67-.44-.67-.89,0-1,.67-1.05,1.55-.17.56.56,1,3.78.5,3.78-.06,0-1.11-.5-2.28-1.06-2.83-1.5-7.33-2-10.38-1.17-4.94,1.33-10.49,6.94-10.49,10.66,0,3.5,5.83,9.16,10.77,10.49,2.78.72,7,.22,9.99-1.22,1.22-.55,2.28-1.05,2.39-1.05s.17.72.17,1.55c0,1.5-.83,2.89-1.78,2.89-.72,0-.5-1.55.22-1.83,1.55-.61-.67-.39-3.66.39-7.38,1.94-15.21-1.78-18.71-8.83l-1.28-2.5,1.28-2.5ZM89.94,158.79c.61,0,1.11.39,1.11.83s-.5.83-1.11.83-1.11-.39-1.11-.83.5-.83,1.11-.83ZM94.55,159.12c.5.56-.11,1.33-1.05,1.33-.44,0-.78-.39-.78-.83,0-.83,1.17-1.17,1.83-.5ZM96.55,157.68c.78,0,1.28,1,.89,1.67-.56.94-1.39.61-1.39-.56,0-.61.22-1.11.5-1.11ZM97.83,153.79c-3.28,1.5-7.5,1.94-10.44,1.16-2.78-.72-6.55-3.94-8.05-6.77q-1.06-2.16,0-4.27c1.28-2.5,4.5-5.5,7.05-6.55,2.55-1.06,6.61-.94,10.1.28,3.72,1.28,3.94,1.5,4.11,4.33.11,1.22.33,2.17.56,2,.28-.11.44,0,.44.33,0,.28.17.89.33,1.33.17.44-.06,1.17-.44,1.55-.72.78-.78.94-.94,3.83-.06,1.39-.44,1.78-2.72,2.78ZM96.05,133.25c0-.61.22-1.11.5-1.11.78,0,1.28,1,.89,1.67-.56.94-1.39.61-1.39-.56ZM93.5,133.25c-.44,0-.78-.39-.78-.83,0-.83,1.17-1.17,1.83-.5.5.56-.11,1.33-1.05,1.33ZM89.94,133.25c-.61,0-1.11-.39-1.11-.83s.5-.83,1.11-.83,1.11.39,1.11.83-.5.83-1.11.83ZM81.5,133.69c1.44-.78,3.61-1.55,4.83-1.72,1.22-.17,1.78-.17,1.28-.06-.5.17-.83.61-.67,1.06.44,1.05-.94,1.72-1.67.78-.83-1.11-2.94-.06-2.66,1.28.11.72-.17,1-.94,1-.67,0-1.17-.28-1.17-.67,0-.33-.44-.22-1.05.33-.67.61-.89,1.39-.72,2.28.17,1,0,1.39-.67,1.39-1.5,0-1.67-1.61-.39-3,.67-.72,2.39-1.94,3.83-2.66ZM88.28,114.93c.67,1.28.33,2.22-.89,2.22-.44,0-2.44.72-4.39,1.61-2.5,1.16-3.61,1.94-3.61,2.66,0,.56,1,2.83,2.22,5,2.05,3.83,2.11,4.05,1.11,4.61-.56.28-1.28.55-1.61.55-.83,0-4.55-7.83-4.83-10.33-.28-2.05-.17-2.22,2.11-3.66,1.33-.78,3.72-2,5.33-2.61,3.61-1.44,3.83-1.44,4.55-.06ZM88.39,109.49c-.28-1.72-.44-3.33-.28-3.61.44-.72,1.83-.39,2.22.5.22.56,0,1.11-.56,1.44-1.33.72-1.22,2.67.17,2.67.72,0,1.11.39,1.11,1.11,0,.72-.39,1.11-1.06,1.11-.83,0-1.17-.61-1.61-3.22ZM89.89,113.26c.39,0,.78.39.94.83.22.44.83.83,1.44.83.72,0,1,.33.89.94-.28,1.55-1.5,1.17-2.72-.83-.67-1-.89-1.78-.56-1.78ZM89,100.6c1-.22,1.83,1.11,1.22,2.11-.17.28-.72.56-1.11.56-.5,0-.67.33-.5.83.22.44.06.83-.28.83s-.5-.89-.44-2.05c.06-1.5.39-2.16,1.11-2.28ZM89.94,98.55c-1.06,0-1.44-.33-1.55-1.33-.11-.72.11-1.55.56-1.78,1-.67,1.33-.61,2.11.33,1.05,1.28.44,2.78-1.11,2.78ZM96.77,94.22c-.72.11-1.11.56-.94.94.33.89-1.17,2.22-2,1.72-1.22-.78-.56-2.33,1.17-2.72.94-.17,2.05-.28,2.39-.28.33.06.06.22-.61.33ZM106.93,93.89c2.16.61,3.39,2,2.55,2.83-.67.67-1.78.11-1.78-.94,0-1.17-1.72-1.5-2.5-.5-.72,1.05-1.94.61-1.94-.67s-2.61-.94-2.94.39c-.39,1.44-1.78,1.11-1.78-.39,0-.89.44-1.06,3.33-1.17,1.83-.06,4.11.17,5.05.44ZM109.38,90.67c0,1.72-.28,1.94-2,1.61-1.39-.28-1.44-.39-1.06-3.05.17-1.55.83-4.22,1.44-5.89,1.39-4.05,1.83-4.39,5.27-3.89,6,.78,9.72,2.55,9.27,4.39-.39,1.39-.56,1.39-4.5.06-1.72-.56-3.94-1.22-4.89-1.39l-1.72-.39-.94,3.61c-.5,2-.89,4.22-.89,4.94ZM112.65,99.16c-.67.39-1.72-.83-1.28-1.55.17-.22.67-.44,1.11-.44.94,0,1.05,1.44.17,2ZM115.21,101.6c-.44,0-.83-.33-.83-.78,0-.94.78-1.55,1.33-1.06.67.67.33,1.83-.5,1.83ZM117.59,102.93c-.17,1.06-1.28,1.22-1.28.22,0-.33.33-.72.72-.89.5-.17.72.11.56.67ZM104.6,119.65c-8.05-2.39-11.72-8.05-10.55-16.1.33-2.22.61-2.61,2.39-3.33,5.72-2.39,11.49-1.22,15.43,3.16,3.66,4.05,4,5.66,2.11,9.83-.83,1.89-1.78,3.39-2.11,3.39-.28,0-1.5.89-2.72,1.89-2.11,1.89-2.17,1.89-4.55,1.17ZM105.27,123.03c-.83.72-1.89,1.33-2.33,1.33-1.11,0-.94-1.67.17-1.67.56-.05-.39-.72-2.11-1.61-4.66-2.39-8.83-7-8.83-9.77,0-.72-.22-1.44-.44-1.61-.67-.39-.28-8.11.5-9.55.33-.67,1.78-1.67,3.22-2.22,3.44-1.33,9.66-1.44,12.38-.22,3,1.33,6.33,4.16,8.11,6.83,1.33,2,1.5,2.11,1.67,1.05.22-1.33,1-1.61,1.39-.56.28.78-1.28,3.78-1.89,3.78-.22,0-.67-.83-1.05-1.89-.89-2.78-4.11-6.16-7.33-7.77-5.16-2.61-13.6-1.5-15.49,2-.94,1.72-.94,7.94,0,10.66,1.44,4.22,6.61,8.38,11.72,9.49l1.89.39-1.55,1.33ZM95.77,118.2c.44.83-.17,1.72-1.17,1.72-.5,0-.78-.39-.67-.94.22-1.11,1.33-1.55,1.83-.78ZM98.83,121.31c0,.56-.39.83-1,.72-.5-.11-.89-.44-.83-.72.17-1,1.83-.94,1.83,0ZM99.6,122.2c.22-.33.61-.61.89-.61.78,0,1.28,1.17.78,1.67-.67.67-2.11-.28-1.67-1.05ZM100.99,129.97c-.56,2.11-.89,2.66-1.55,2.39-3.05-1.28-6.33-1.89-9.99-1.89h-4.27s-1.72-2.94-1.72-2.94c-2.94-4.77-3.17-5.77-1.55-6.83.72-.44,2.55-1.33,4.11-1.94,3.55-1.33,4.11-1.33,5.33.05,1.72,1.89,7.72,5.44,9.83,5.83,2.28.44,2.55.89,1.33,1.89-.44.39-1.11,1.94-1.5,3.44ZM101.16,167.39c-2.17.39-6.39,2.83-9.44,5.5l-1.83,1.61-2.89-.89c-1.61-.5-3.72-1.44-4.66-2.06-1.67-1-1.78-1.22-1.22-2.61.28-.89,1.33-2.89,2.33-4.5l1.72-2.89h4.27c2.28,0,5.33-.33,6.66-.78,1.33-.39,2.83-.94,3.33-1.11.67-.28,1,.28,1.55,2.39.39,1.5,1.06,3.05,1.5,3.44,1.22,1,.94,1.44-1.33,1.89ZM95.83,172.73c.44.78-.61,1.83-1.39,1.39-.33-.22-.61-.78-.61-1.22,0-.89,1.44-1.05,2-.17ZM98.83,170.73c0,.55-.39.83-1,.72-.5-.11-.89-.44-.83-.72.17-1,1.83-.94,1.83,0ZM101.38,168.84c.44.78-.61,1.83-1.39,1.39-.33-.22-.61-.61-.61-.89,0-.72,1.61-1.11,2-.5ZM115.93,181.83l-1.33,2.55c-3.05,6.05-6.66,8.49-12.44,8.44-2-.06-4.55-.44-5.66-.94-1.83-.78-2.11-1.16-2.44-3.39-.89-6.05,1.22-11.33,5.61-13.94,1.39-.78,3.61-1.78,4.94-2.16,2.33-.72,2.5-.67,4.27.78,1.06.89,2.44,1.83,3.11,2.22.72.33,1.28,1.11,1.28,1.61s.61,1.83,1.33,2.89l1.33,1.94ZM116.48,188.1c.5-.5.72-.39,1,.33.44,1.22-.17,1.83-1,1-.5-.5-.5-.83,0-1.33ZM114.48,191.38c-.11-.56.17-.94.72-.94s.83.33.72.89c-.22,1.17-1.22,1.28-1.44.06ZM111.37,193.49c.44-1.06,1.28-1.06,1.72,0,.39,1.11-.11,1.61-1.17,1.22-.5-.22-.72-.72-.56-1.22ZM108.15,194.21c-4.77,2.11-14.32.67-15.94-2.33-.78-1.44-1.17-9.16-.5-9.55.22-.17.44-.89.44-1.61,0-2.78,4.16-7.38,8.83-9.77,1.72-.89,2.66-1.55,2.11-1.61-.5,0-.94-.39-.94-.83,0-1.22,1.39-1,3.11.5l1.55,1.33-1.89.39c-4.83,1.05-9.72,4.77-11.33,8.66-1.28,3.05-1.61,7.11-.78,9.94.61,2.11,1.11,2.66,3.22,3.72,7.27,3.55,16.88-.28,19.99-8.05.39-.94.83-1.78,1.05-1.78.61,0,2.17,3,1.89,3.72-.44,1.17-1.28.83-1.33-.55q0-1.22-.94.17c-1.72,2.66-6.11,6.55-8.55,7.66ZM121.37,210.15c-2,1.28-7.38,2.55-9.88,2.39q-2.39-.17-3.61-3.61c-.67-1.94-1.39-4.72-1.61-6.16-.33-2.55-.28-2.78.94-3.05.72-.22,1.5-.39,1.67-.39s.5,1.33.67,2.89c.17,1.61.67,3.94,1.06,5.16.67,2,.94,2.22,2.39,2.05,1.5-.17,5.72-1.5,8.11-2.55,1.5-.67,1.78,2.33.28,3.27ZM125.53,211.81c.39-.39,1.05.28,1.05,1.06,0,.33-.28.28-.67-.11-.33-.33-.5-.78-.39-.94ZM126.31,197.1c.17.33-.06.72-.56.89-1.06.44-1.67,0-1.11-.83.44-.78,1.22-.78,1.67-.06ZM125.75,200.37c.44.83-.17,1.72-1.17,1.72-.5,0-.78-.39-.67-.94.22-1.11,1.33-1.56,1.83-.78ZM126.03,194.6c0-.44.39-.83.83-.83s.83.39.83.83-.39.83-.83.83-.83-.39-.83-.83ZM126.25,210.81c-1.22.44-1.83-.33-2.39-3.33-.33-1.89-.28-2.78.22-3.16.5-.39.89-.33,1.33.22.5.55.44.89-.17,1.39-1,.83-.5,2.66.83,3,1.28.33,1.39,1.39.17,1.89ZM128.86,215.03c-.83.83-2-.33-1.55-1.5.22-.5.61-.89.94-.89.89,0,1.33,1.67.61,2.39ZM129.36,216.59c0,.28-.28.39-.56.22-.33-.17-.56-.44-.56-.61,0-.11.22-.22.56-.22.28,0,.56.28.56.61ZM132.53,217.42c.17.44.06,1.11-.33,1.5-.78.78-2.61-.83-2.05-1.78.56-.89,2-.72,2.39.28ZM136.08,222.58c-1.33.72-3.05-.44-2.72-1.94.22-1.22,2.11-1.66,3.11-.67.94.94.83,2-.39,2.61ZM140.58,219.97c-.78.78-2.33.17-2.33-.89s1.5-1.5,2.28-.55c.5.61.5,1,.06,1.44ZM144.74,216.25c.22.67-.11,1.33-1,2-1.44,1.11-2.94,1.44-1.61.33.44-.39.83-1.17.83-1.72,0-1.39,1.28-1.83,1.78-.61Z"/>
      <path class="cls-1" d="M118.26,87.61c-.89,0-1.67-.22-1.67-.5,0-.33-.67-.5-1.5-.39-1.17.11-1.61.56-1.83,1.83-.22.94-.67,2.22-1,2.78q-.61,1.11-.67,0c0-1.78,1-4.89,1.78-5.39.94-.56,2-.5,4.16.28,2.44.94,2.67,1.33.72,1.39Z"/>
      <path class="cls-1" d="M122.7,100.21c0-1.5.5-1.72,1.44-.61.5.56.39.83-.39,1.33-.94.61-1.06.5-1.06-.72Z"/>
      <path class="cls-1" d="M120.09,101.6c-.06-.61-.06-1.11,0-1.11s.56.28,1.17.61c.83.5.89.72.28,1.11-1.17.72-1.39.61-1.44-.61Z"/>
      <path class="cls-1" d="M139.19,79.39c.39,0,.83.28,1,.61.22.28,1,.78,1.78,1.11.72.28,1.17.72,1,1.06-.17.28-.06.56.28.56.56,0,2.78,3.16,2.78,4,0,1.11-1.17.22-2-1.5-.5-1.05-1.17-1.94-1.44-1.94-.33,0-.39-.39-.22-.89.28-.67.06-.78-.83-.5-.78.28-1.06.17-.83-.17.17-.33-.22-1-.89-1.44-.67-.5-.94-.89-.61-.89Z"/>
      <path class="cls-1" d="M134.36,79.95c.61-.33,1.11-.44,1.11-.33,0,.17-.5.56-1.11.89-.61.33-1.11.44-1.11.33,0-.17.5-.56,1.11-.89Z"/>
      <path class="cls-1" d="M132.47,82.28c.44-.39.78-.44.78-.17,0,.56-1.05,1.39-1.39,1.11-.06-.11.17-.56.61-.94Z"/>
      <path class="cls-1" d="M131.58,84.95c-.33,0-.56-.28-.56-.56,0-.33.22-.56.56-.56.28,0,.56.22.56.56,0,.28-.28.56-.56.56Z"/>
      <path class="cls-1" d="M138.8,85.78c-.33-.17-.56-.56-.56-.89,0-.28.22-.5.56-.5.28,0,.56.39.56.89,0,.44-.28.67-.56.5Z"/>
      <path class="cls-1" d="M136.58,85.67c0,.72-.17.94-.44.61-.22-.33-.78-.72-1.22-.89-.56-.17-.44-.33.44-.56,1-.28,1.22-.11,1.22.83Z"/>
      <path class="cls-1" d="M130.2,88.17c.39-2.78,1.61-3.83,1.33-1.17-.11.89-.39,1.89-.67,2.22-.33.44-.22,1.39.33,2.5.44,1,.94,2.55,1.11,3.5.22,1.11-.11.67-1.06-1.33-1.17-2.5-1.33-3.55-1.05-5.72Z"/>
      <path class="cls-1" d="M141.02,86.61c0,.28-.28.56-.61.56-.28,0-.39-.28-.22-.56.17-.33.44-.56.61-.56.11,0,.22.22.22.56Z"/>
      <path class="cls-1" d="M146.57,90.22c0,1.55-.22,2.44-.56,2.22-.33-.17-.56-1.17-.56-2.22s.22-2.05.56-2.22c.33-.22.56.67.56,2.22Z"/>
      <path class="cls-1" d="M138.47,92.05c.67-.94.78-.94,1.11-.17.17.5.33,2.33.28,4.05v3.16s-1.11-3-1.11-3c-.89-2.5-.94-3.11-.28-4.05Z"/>
      <path class="cls-1" d="M142.35,91.78c.17-.22.33.11.28.72,0,.61-.17.78-.33.33-.17-.39-.11-.89.06-1.06Z"/>
      <path class="cls-1" d="M142.3,95.05c.17.5-.06,1.33-.44,1.94-.61.78-.78.83-.78.17,0-.44.22-1.33.44-1.89.33-.94.44-.94.78-.22Z"/>
      <path class="cls-1" d="M137.14,97.44c-.44-.5-.44-.83-.11-.83s.78.28.94.61c.61.94-.06,1.17-.83.22Z"/>
      <path class="cls-1" d="M135.19,188.77c-9.61-.61-10.6-.94-13.99-5.11-1.5-1.94-3.5-4.77-4.33-6.27-.89-1.55-3.61-4.66-6.11-7-2.44-2.33-5.22-5.27-6.05-6.55-1.61-2.28-1.61-2.39-1.28-8.27.17-3.28.61-6.77.89-7.77.33-1.17.33-2.39,0-3.61-.28-.94-.72-4.44-.89-7.66-.39-7.22-.17-7.77,7-14.49,2.72-2.55,5.44-5.61,6.05-6.88.61-1.22,2.55-4.05,4.33-6.22,3.72-4.72,4.55-5.05,13.27-5.5,4.72-.22,7.22-.67,10.99-1.94,1.46-.49,3.23-.94,4.92-1.3v1.28c-.28.07-.54.11-.82.19-2.5.61-5,1.39-5.66,1.78-.61.33-4.11.78-7.83,1-9.27.56-10.6,1-13.27,4.39-1.22,1.5-3.16,4.28-4.27,6.16-1.11,1.83-4.16,5.33-6.77,7.77-6.77,6.38-7.22,7.22-6.83,13.32.22,2.66.61,6.05.94,7.44.39,1.67.39,3.33,0,5-.33,1.39-.72,4.77-.94,7.44-.39,6.11.06,6.94,6.83,13.32,2.61,2.44,5.66,5.94,6.77,7.77,1.11,1.89,3.05,4.66,4.27,6.16,2.66,3.39,4,3.83,13.27,4.39,3.72.22,7.22.67,7.83,1,.88.49,3.74,1.3,6.48,1.96v1.28c-1.44-.33-2.9-.74-4.04-1.13-3.11-1.17-5.72-1.61-10.77-1.94Z"/>
      <path class="cls-1" d="M141.91,106.6c-2.11,0-5.27,5.72-5.72,10.22-.11,1.61.11,4.16.61,5.88.44,1.67.72,3.11.61,3.22-.11.11-1.11-1.66-2.22-3.94-2.55-5.22-3.17-9.94-1.55-11.99,1.17-1.44,3.16-1.33,2.61.17-.17.44-.67.67-1.05.56-1.11-.44-1.5.67-.5,1.5.67.56,1,.56,1.61-.11,1.39-1.44,1.28-3.55-.33-4.39-.89-.5-1.33-.44-2.11.22-.89.83-1.17.83-2.61.06-.89-.44-2.39-.83-3.28-.83-1.44-.06-1.55-.11-.61-.61.56-.33,1.94-.44,3.11-.28,1.22.17,2.28.11,2.5-.22.17-.28,2.05-.56,4.11-.56,2.33,0,5-.44,7.05-1.11,1.39-.49,3.73-1.16,5.87-1.72v2.83c-.18.04-.23.23-.65,0-2.67-1.44-4.55,2.05-2.22,4.16,1.06.94,1.22,1,2.05.11.78-.78.83-1.06.22-1.61-.61-.56-.78-.56-1-.06-.39,1.11-1.28.83-1.28-.33,0-1.78.94-1.83,2.78-.22.04.03.06.09.09.13v7.98c-.8-2.08-2.08-3.99-4.04-5.88-1.78-1.72-3.61-3.17-4.05-3.17Z"/>
      <path class="cls-1" d="M113.82,127.75c0-2.05.94-2.72,2.11-1.5.83.83.83.89-.06.89-.5,0-.94.39-.94.83,0,1.11,2,1.05,2.44-.06.44-1.11-1.06-3.55-2.11-3.55-1.67,0-2.55.72-2.55,2,0,1-.28,1.33-1.28,1.33-.67,0-2.05.5-3.05,1.11-1,.61-1.94,1.11-2.17,1.11-.17,0,2.28-2.61,5.44-5.83,6.33-6.33,7.38-7.5,7.61-8.61.11-.39.89-1.39,1.78-2.22.94-.89,1.67-1.89,1.67-2.33,0-.39.61-1.5,1.39-2.39l1.39-1.67-.83,2.05c-.44,1.17-.83,2.78-.83,3.61,0,1.11-.39,1.72-1.22,2.11-2.55,1.11-1.61,4.16,1.22,4.16,1.78,0,2.55-1.28,1.33-2.22-.72-.67-1-.39-.83.72.06.28-.33.39-.89.28-.56-.11-1-.55-1-1,0-1.11,2.72-1.39,4.77-.5,2,.78,6.44,5.61,8.22,8.88l1.33,2.44-2.72-2.61c-1.5-1.39-3.78-3.11-5.05-3.77-2.83-1.44-8.11-2-10.38-1.17-1.5.61-1.55.78-1.28,3.27.67,4.89,1.5,6.83,4.44,9.77,1.61,1.61,3.5,3.33,4.27,3.83,1.33.89,1.28.89-.89.17-6.16-2.11-11.33-6.22-11.33-9.16Z"/>
      <path class="cls-1" d="M126.03,111.99c0,.94-.28,1.94-.61,2.16-.94.56-.28-4.72.67-5.55.44-.39,1.28-.61,1.89-.5,2.05.39,4.16,1.39,4.16,1.94,0,.33-.44.39-1,.17-4.5-1.83-5.11-1.67-5.11,1.78Z"/>
      <path class="cls-1" d="M132.14,117.48c-.28-.83-.56-2.5-.56-3.72,0-2-.22-2.33-1.83-3-2.44-1.06-2.44-1.11-2.83,1.22-.28,1.67-.11,2.22.61,2.66.5.28,1.89,1.39,3.05,2.44,2.11,1.89,2.17,1.89,1.55.39ZM129.92,113.26c0,.72-.28,1-.83.78-.44-.22-.83-.67-.83-1.11s.39-.78.83-.78.83.5.83,1.11Z"/>
      <path class="cls-1" d="M150,168.23v-16.43c-.16-.11-.31-.23-.59-.23-.89,0-.94.33-.72,2.66.33,3.61-1,6.77-2.83,6.77-2.33,0-2.72-3.16-.89-7.16,1.5-3.39.33-4.11-1.83-1.11-2,2.78-5,4.33-6.27,3.28-.44-.39-.83-1.06-.83-1.5,0-1.33,3.61-4.61,5.55-4.94,1.17-.28,1.67-.67,1.55-1.28-.11-.56-.67-.83-1.28-.72-4.83.78-7.33.72-8.22-.17-.5-.5-.94-1.11-.94-1.39s.44-.89.94-1.39c.89-.89,3.39-.94,8.22-.17.61.11,1.17-.17,1.28-.72.11-.61-.39-1-1.55-1.28-1.94-.33-5.55-3.61-5.55-4.94,0-.44.39-1.11.83-1.5,1.28-1.05,4.27.5,6.27,3.28,2.17,3,3.33,2.28,1.83-1.11-1.17-2.5-1.44-4.72-.83-6.27.17-.5.94-.89,1.72-.89,1.83,0,3.16,3.16,2.83,6.77-.22,2.33-.17,2.66.72,2.66.28,0,.43-.12.59-.23v-16.7c-.53-6.5-2.03-9.59-5.92-12-2.17-1.39-2.22-1.33-3.78.72-3.28,4.39-3.33,9.33-.17,17.82l1.89,5.11-1.72-2.22c-3.05-3.89-8.05-8.44-10.55-9.66-2.33-1.11-6.55-1.55-8.38-.83-1.22.5-1.17,4.33.17,7.16,1.67,3.66,4.94,6.55,11.27,10.1,2.55,1.39,3.05,1.83,1.83,1.61-5.22-1-11.49-1.55-13.71-1.22-2.78.39-6.55,2.66-7.99,4.66-.78,1.11-.78,1.33,0,2.44,1.44,2,5.22,4.27,7.99,4.66,2.22.33,8.5-.22,13.71-1.22,1.22-.22.72.22-1.83,1.61-6.33,3.55-9.6,6.44-11.27,10.11-1.33,2.83-1.39,6.66-.17,7.16,1.83.72,6.05.28,8.38-.83,2.5-1.22,7.49-5.77,10.55-9.66l1.72-2.22-1.89,5.05c-3.16,8.61-3.11,13.99.28,17.99,1.44,1.78,1.55,1.78,3.11.94,4.16-2.15,5.91-5.69,6.48-12.6ZM144.35,129.58c0-.44.5-.78,1.11-.78s1.11.22,1.11.5c0,.28-.5.61-1.11.78-.72.17-1.11,0-1.11-.5ZM143.24,123.09c0-1.33.28-2.05.72-2.05.39,0,.94.94,1.28,2.05.5,2,.5,2.11-.72,2.11-1.11,0-1.28-.28-1.28-2.11ZM142.41,130.64c-.22-.72-.61-1.17-.83-1-.28.17-.33-.28-.17-.94.17-.89.11-1.05-.22-.55-.39.5-.72-.17-1.17-2.22-1.44-6.72-1.39-7.88.11-10.88.78-1.55,1.67-2.94,1.89-3.11.28-.17,1.55.56,2.78,1.67,1.67,1.39,2.55,2.72,3.11,4.72,1.39,4.55,1.67,8.88.78,11.05l-.83,1.94-.67-3.33c-1.28-6.33-1.89-7.77-3.28-7.83-1.83-.11-2.05.89-1.22,5.55.72,4.16.5,7.44-.28,4.94ZM134.53,131.86c-4.39-3.61-5.39-4-6.66-2.78-.94.94-.78,1.17,3.05,4.77,2.22,2.05,4,3.83,4,4s-.61.22-1.33.17c-.72,0-1.22-.28-1-.56.17-.28-.11-.39-.61-.17-.5.17-1.06.06-1.28-.28-.28-.39-.11-.44.33-.17s.61.22.33-.17c-.22-.33-.72-.5-1.11-.33-.44.17-2.22-1.11-4.11-2.78-3.28-3.05-4.55-5.66-4.55-9.16,0-1,.33-1.17,2.33-1.11,1.33,0,3.17.28,4.05.56,2.11.61,9.66,6.72,8.66,7.05-.5.17-.33.61.56,1.55,2.33,2.44.56,2.05-2.66-.61ZM132.53,132.03c-.5.11-.94.44-.94.83s-.72-.11-1.67-1c-.89-.83-1.5-1.78-1.33-2.05.44-.67.83-.56,3,.83,1.44.89,1.67,1.28.94,1.39ZM135.91,135.42c-.72,1.22-1.67,1-1.17-.22.17-.44.61-.83,1.05-.83.67,0,.67.22.11,1.06ZM132.69,148.8c-.44.28-1.44.56-2.22.61-1.28,0-1.28.06-.28.5.83.39.44.5-1.67.61-8.05.39-10.33-.11-13.88-3.11l-1.67-1.39,1.67-1.39c.89-.78,2.33-1.78,3.11-2.22,1.55-.83,6.44-1.28,10.77-.94,2.11.17,2.5.33,1.67.67-1,.44-1,.5.28.5.78.06,1.78.33,2.22.61.61.39-.11.56-2.5.61-1.83,0-4.44.22-5.83.39-2.16.33-2.44.56-2.44,1.78s.28,1.44,2.44,1.78c1.39.17,4,.39,5.83.39,2.39.06,3.11.22,2.5.61ZM131.42,147.13c-.39,0-.72-.5-.72-1.11s.33-1.11.72-1.11.72.5.72,1.11-.33,1.11-.72,1.11ZM125.59,147.13c-.83,0-1.89-.28-2.33-.55-.72-.5-.72-.61,0-1.11.44-.28,1.5-.55,2.33-.55,1.17,0,1.55.28,1.55,1.11,0,.83-.39,1.11-1.55,1.11ZM135.8,157.68c-.44,0-.89-.39-1.05-.83-.5-1.22.44-1.44,1.17-.22.56.83.56,1.06-.11,1.06ZM137.19,159.57c-.89.94-1.06,1.39-.56,1.55,1.05.33-6.61,6.5-8.94,7.11-1.05.28-2.89.56-4.05.56-2.33,0-2.5-.5-1.44-4.77.5-1.89,1.39-3.16,3.94-5.55,1.89-1.67,3.66-2.94,4.11-2.78.39.17.89,0,1.11-.33.28-.39.11-.44-.33-.17-.44.28-.61.22-.33-.17.22-.33.78-.44,1.28-.28.5.22.78.11.61-.17-.22-.28.28-.56,1-.56.72-.06,1.33,0,1.33.17,0,.17-1.78,1.94-4,4-3.83,3.61-4,3.83-3.05,4.77,1.28,1.22,2.28.83,6.66-2.78,3.22-2.66,5-3.05,2.66-.61ZM131.42,161.51c-1.33.83-2.33,1.11-2.67.78-.33-.33.11-1.11,1.17-2.11.89-.89,1.67-1.33,1.67-1,0,.39.44.72.94.83.78.11.44.5-1.11,1.5ZM144.52,166.84c1.22,0,1.22.11.72,2.05-.33,1.16-.89,2.11-1.28,2.11-.44,0-.72-.72-.72-2.11,0-1.78.17-2.05,1.28-2.05ZM145.46,163.23c-.61,0-1.11-.39-1.11-.83s.06-.78.11-.78c.11.06.61.17,1.11.33,1.33.33,1.28,1.28-.11,1.28ZM147.91,173.72c-.56,2-1.44,3.33-3.11,4.72-1.22,1.11-2.5,1.83-2.78,1.67-.22-.17-1.11-1.55-1.89-3.11-1.5-3-1.55-4.16-.11-10.88.44-2.06.78-2.72,1.17-2.22.33.5.39.33.22-.55-.17-.67-.06-1.11.22-.89.28.17.5-.11.5-.56s.28-1,.67-1.22c.44-.28.5.5.17,3.16-.22,1.94-.44,4.55-.5,5.77-.06,2,.06,2.22,1.33,2.22,1.55,0,2.05-1.28,3.39-7.77l.67-3.33.83,1.94c.89,2.17.61,6.5-.78,11.05Z"/>
      <path class="cls-1" d="M145.69,117.32c.5,1.22.83,2.44.72,2.78-.33,1-2.17-2.89-1.89-3.94.17-.67.5-.28,1.17,1.17Z"/>
      <path class="cls-1" d="M140.86,120.48c-.39-1.61.33-5,.89-4.11.17.33.17,1.72-.06,3.05-.39,2.16-.5,2.28-.83,1.05Z"/>
      <path class="cls-1" d="M128.75,126.09c1,.61,1.72,1.22,1.61,1.39-.39.33-4.16-1.28-4.61-2-.56-.94,1-.61,3,.61Z"/>
      <path class="cls-1" d="M124.7,129.64c-1.11-1.44-1.28-1.94-.67-1.94.44,0,1,.33,1.22.67.22.39.78,1.28,1.22,1.94,1.28,2-.17,1.44-1.78-.67Z"/>
      <path class="cls-1" d="M148.74,141.58c.67,0,1.17.22,1.17.56,0,.28-.33.55-.78.55s-1-.28-1.17-.55c-.17-.33.17-.56.78-.56Z"/>
      <path class="cls-1" d="M145.46,142.8c0-.28.39-.72.89-.89.56-.22.78-.06.67.33-.28.83-1.55,1.28-1.55.56Z"/>
      <path class="cls-1" d="M150,147v-2.08c-.06-.1-.02-.2-.09-.29-.39-.44-1.11-.83-1.67-.83-2.22,0-2.89,2.89-1,4.11,1.12.7,2.22.07,2.76-.91ZM148.85,146.74c-.78.78-2.05-.28-1.5-1.22.22-.33.61-.61.89-.61.83,0,1.28,1.17.61,1.83Z"/>
      <path class="cls-1" d="M144.8,143.91c.39-.11.56.11.33.67-.17.5-.61.89-.89.89-.72,0-.28-1.28.56-1.55Z"/>
      <path class="cls-1" d="M144.24,146.58c.28,0,.72.39.89.89.22.56.06.78-.33.67-.83-.28-1.28-1.55-.56-1.55Z"/>
      <path class="cls-1" d="M145.46,149.29c0-.61.78-.67,1.28-.11.67.67.39,1.22-.44.94-.44-.22-.83-.56-.83-.83Z"/>
      <path class="cls-1" d="M147.96,149.91c.17-.33.72-.55,1.17-.55s.78.22.78.55c0,.28-.5.56-1.17.56-.61,0-.94-.28-.78-.56Z"/>
      <path class="cls-1" d="M117.7,144.47c0-.61,1.89-1.22,3.89-1.22,1.06.06,1.17.17.56.5-1.39.83-4.44,1.28-4.44.72Z"/>
      <path class="cls-1" d="M117.7,147.69c0-.67.78-.61,3.33.11,1.06.33,1.61.72,1.22.83-1.05.39-4.55-.33-4.55-.94Z"/>
      <path class="cls-1" d="M124.03,164.23c-.72.17-.56-.28.61-1.78,1.89-2.5,3-2.61,1.44-.22-.61,1-1.55,1.94-2.05,2Z"/>
      <path class="cls-1" d="M126.14,167.12c-1.22,0-.17-1.06,1.94-1.94,2.16-.94,2.39-.94,2.39-.56,0,.44-3.55,2.5-4.33,2.5Z"/>
      <path class="cls-1" d="M140.97,171.45c.39-1,.5-.83.78,1.28.17,1.33.11,2.66-.11,2.89-.67.67-1.22-2.72-.67-4.16Z"/>
      <path class="cls-1" d="M145.19,173.28c.89-1.78,1.39-2.17,1.39-1.17,0,.33-.39,1.5-.94,2.66-.61,1.44-.94,1.78-1.11,1.11-.11-.5.17-1.67.67-2.61Z"/>
      <path class="cls-1" d="M109.93,136.58c-.61,0-2.78-4-2.78-5.16,0-.44.83-1.22,1.89-1.72,2.11-1,3.89-1.17,3.39-.33-.17.28-.78.55-1.33.55-.61,0-1.55.44-2.22.94l-1.22,1,1.44,2.05c1.5,2.28,1.67,2.67.83,2.67Z"/>
      <path class="cls-1" d="M110.1,133.58c.78,1.5,1,1.55,4.66,1.61h3.83s-2.11-1.55-2.11-1.55c-1.22-.83-2.33-1.94-2.5-2.39-.22-.67-.78-.78-2.05-.56-2.39.5-2.78,1.11-1.83,2.89ZM111.6,132.97c0-.83,1.17-1.17,1.83-.44.72.67.39,1.28-.72,1.28-.61,0-1.11-.39-1.11-.83Z"/>
      <path class="cls-1" d="M110.82,154.74c-1.78-1.17-1.94-3.16-.28-3.16.89,0,1.06.22.78,1.17-.33.89-.17,1.11.61.94,1.33-.22,1.55-1.28.5-2.33-2.16-2.11-5.5-.11-4.16,2.5.5.89.44,1.33-.22,2.11-.5.55-1.22,1.94-1.67,3.16l-.83,2.16v-2.28c-.06-1.22.11-2.44.33-2.66,1.06-1.06,1-18.54-.06-20.99-.22-.5-.33-1.72-.22-2.78l.17-1.83.44,1.78c.28,1,.94,2.39,1.55,3.16.89,1.11,1,1.67.5,2.55-1.33,2.55,2.05,4.55,4.16,2.44,1.06-1.05.83-2.11-.5-2.33-.78-.17-.94.06-.61.94.28.94.11,1.17-.78,1.17-1.67,0-1.5-2,.28-3.16,1.94-1.28,7.22-1.17,11.88.17l3.61,1.05-4.72.28c-2.94.22-5.55.72-6.88,1.39-2.5,1.22-6.44,4.77-6.44,5.83s3.94,4.61,6.44,5.83c1.33.67,3.94,1.17,6.88,1.39l4.72.28-3.61,1.06c-4.66,1.33-9.94,1.44-11.88.17Z"/>
      <path class="cls-1" d="M127.2,175.95c-2.05.89-4.77.61-4.77-.5,0-.44.44-.89,1.05-1,.61-.11.89,0,.67.33-.56.94.61,1.28,1.33.39.89-1.11.22-1.94-1.61-1.94-2.89,0-3.83,3.05-1.28,4.16.83.39,1.22,1,1.22,2.11,0,.83.39,2.44.83,3.61l.83,2.06-1.39-1.67c-.78-.94-1.39-2-1.39-2.39,0-.44-.72-1.44-1.67-2.33-.89-.83-1.66-1.83-1.78-2.22-.22-1.11-1.28-2.28-7.61-8.61-3.16-3.22-5.61-5.83-5.44-5.83.22,0,1.17.5,2.17,1.11,1,.61,2.39,1.11,3.05,1.11,1,0,1.28.33,1.28,1.33,0,1.28.89,2,2.55,2,1.05,0,2.55-2.44,2.11-3.55-.44-1.11-2.44-1.17-2.44-.06,0,.44.44.83.94.83.89,0,.89.05.06.89-1.17,1.22-2.11.56-2.11-1.5,0-2.94,5.16-7.05,11.33-9.16,2.17-.72,2.22-.72.89.17-.78.5-2.66,2.22-4.27,3.83-2.94,2.94-3.78,4.89-4.44,9.77-.28,2.5-.22,2.66,1.28,3.27,2.28.83,7.55.28,10.38-1.17,1.28-.67,3.55-2.39,5.05-3.77l2.72-2.61-1.33,2.44c-1.78,3.27-6.22,8.11-8.22,8.88Z"/>
      <path class="cls-1" d="M109.04,162.34c-2.17-1.06-2.28-1.67-.78-4.66.94-1.89,2.22-2.94,2.22-1.89,0,.17-.61,1.22-1.39,2.33l-1.44,2.05,1.22.94c.67.56,1.61,1,2.22,1,.56,0,1.17.22,1.33.55.5.83-1.28.67-3.39-.33Z"/>
      <path class="cls-1" d="M111.71,161.29c1.28.33,1.83.17,2.22-.5.28-.56,1.44-1.61,2.61-2.44l2.05-1.5h-3.83c-3.61.06-3.89.11-4.66,1.55-.94,1.89-.67,2.39,1.61,2.89ZM111.6,159.12c0-.55.5-.89,1.17-.89,1.33,0,1.17,1.28-.22,1.55-.56.11-.94-.17-.94-.67Z"/>
      <path class="cls-1" d="M143.97,187.6c-1.89-.61-4.61-1.05-6.88-1.05-2.05,0-3.94-.28-4.11-.56-.22-.33-1.28-.39-2.5-.22-1.17.17-2.55.06-3.11-.28-.94-.5-.83-.56.61-.61.89,0,2.39-.39,3.28-.83,1.44-.78,1.72-.78,2.61.06.78.67,1.22.72,2.11.22,1.61-.83,1.72-2.94.33-4.38-.61-.67-.94-.67-1.61-.11-1,.83-.61,1.94.5,1.5.39-.11.89.11,1.05.55.56,1.5-1.44,1.61-2.61.17-1.44-1.78-1.06-6.5.89-10.72,1.55-3.39,3.61-6.61,2.94-4.5-1,2.89-1.55,6.77-1.22,8.94.56,4.33,3.72,9.66,5.66,9.66.44,0,2.28-1.44,4.05-3.22,1.95-1.86,3.23-3.76,4.04-5.84v7.98s-.06.1-.09.13c-1.83,1.61-2.78,1.55-2.78-.22,0-1.17.89-1.44,1.28-.39.22.56.39.56,1,0,.61-.55.56-.83-.22-1.61-.83-.89-1-.83-2.05.11-2.33,2.11-.44,5.61,2.22,4.16.42-.23.47-.04.65,0v2.72c-.51-.12-1.03-.23-1.37-.27-.83-.17-2.94-.78-4.66-1.39Z"/>
      <path class="cls-1" d="M131.58,178.28c0-1.22.28-2.89.61-3.78l.56-1.55-1.83,1.72c-1,1-2.39,2.05-3.11,2.39-1.11.56-1.22.94-.89,2.72.22,1.11.44,2.11.5,2.22.11.11,1.05-.22,2.16-.67,1.83-.78,2-1.05,2-3.05ZM129.92,178.78c0,.61-.39,1.11-.83,1.11s-.83-.33-.83-.78.39-.89.83-1.11c.56-.22.83.06.83.78Z"/>
      <path class="cls-1" d="M125.42,182.27c-.61-1.67-.44-4.94.17-4.28.28.22.44,1.17.44,2.11,0,3.33.61,3.55,5.11,1.72.56-.22,1-.17,1,.11,0,.78-2.55,1.83-4.5,1.83-1.28,0-1.78-.33-2.22-1.5Z"/>
      <path class="cls-1" d="M109.99,104.6c-1.22-1.78-3.78-3-6.33-3-.5,0-.94-.28-.94-.55,0-.72,2.05-.67,3.89.06,2.16.89,4.61,3,5.72,4.94q1.06,1.72,0,1.06c-.61-.33-1.67-1.5-2.33-2.5Z"/>
      <path class="cls-1" d="M98.27,101.66c0,.33-.28.39-.61.17-.83-.5.5-1.33,2-1.22q.94.06-.17.28c-.67.11-1.22.5-1.22.78Z"/>
      <path class="cls-1" d="M102.94,102.71c.17,0,.44.22.61.56.17.28.06.56-.22.56-.33,0-.61-.28-.61-.56,0-.33.11-.56.22-.56Z"/>
      <path class="cls-1" d="M95.05,105.82c-.11-.56,0-1.22.33-1.55s.39,0,.22,1.06c-.28,1.17-.39,1.28-.56.5Z"/>
      <path class="cls-1" d="M101.55,104.93c.33,0,.72.22.89.56.17.33-.06.39-.5.22-1-.39-1.17-.78-.39-.78Z"/>
      <path class="cls-1" d="M99.72,106.71c.06-.11.22.06.39.28.17.28-.22.83-.89,1.28q-1.17.67-.39-.33c.44-.56.83-1.11.89-1.22Z"/>
      <path class="cls-1" d="M102.71,116.87c1.11,1.33-.22.94-2.55-.78-2.44-1.72-3.61-3.28-4.55-6.11-.5-1.44-.5-2.05-.06-2.5.5-.44.56-.33.33.33-.22.56-.11,1,.22,1s.5.33.39.67c-.17.39.06,1.06.5,1.44.39.39.72,1.22.72,1.83,0,.72.22,1,.67.72.33-.22.44-.17.28.17-.44.67.94,2,1.44,1.44.22-.17.39-.06.39.28s.33.67.78.67c.39,0,1.05.39,1.44.83Z"/>
      <path class="cls-1" d="M110.99,110.1c.44-1.5.44-1.44.67.78.17,1.33.11,2.39-.11,2.39-.72,0-1-1.55-.56-3.16Z"/>
      <path class="cls-1" d="M109.71,112.76c1.17,1.17,2,2.28,1.83,2.39-.39.39-5.33-2.83-5.66-3.66-.61-1.61,1.78-.83,3.83,1.28Z"/>
      <path class="cls-1" d="M109.38,115.48c.67.44.5.55-.72.55-.89,0-1.44-.22-1.22-.55.44-.67.89-.67,1.94,0Z"/>
      <path class="cls-1" d="M85.95,121.04c-.5,0-1.11.22-1.28.55-.44.67-1.39.72-1.39.06,0-.44,4.22-2.28,5.27-2.28.28,0,0,.39-.61.83-.56.44-1.5.83-2,.83Z"/>
      <path class="cls-1" d="M84.5,124.7c1.5,3,1.17,4.16-.39,1.39-.78-1.28-1.39-2.61-1.39-2.89,0-1.11.89-.39,1.78,1.5Z"/>
      <path class="cls-1" d="M98.44,130.36c-.39-.33-.72-.83-.72-1.17s.17-.39.39-.22c.17.22.67.11,1.11-.28.61-.5.61-.78-.17-1.61-.89-1-.89-1.06.5-1.06h1.44s-.89,2.5-.89,2.5c-.72,1.89-1.11,2.33-1.67,1.83Z"/>
      <path class="cls-1" d="M93.39,139.08c-.83-.17-2.05-.5-2.78-.67-.72-.17-1.22-.06-1.22.39,0,.33-.22.5-.44.33-.28-.17-1.28.22-2.28.83-1,.61-2,1-2.16.83-.17-.17-.61.11-1.05.67-.67.89-.72.89-.39-.06.72-2.11,7.11-4.11,10.6-3.33.72.11,1.28.5,1.28.83,0,.33-.61.44-1.55.17Z"/>
      <path class="cls-1" d="M95.5,139.36c0-.33.39-.56.83-.56s.83.11.83.22c0,.11-.39.33-.83.55-.44.17-.83.06-.83-.22Z"/>
      <path class="cls-1" d="M97.72,143.8c0-.33.22-.56.5-.56.33,0,.72.22.89.56.17.28-.06.55-.5.55-.5,0-.89-.28-.89-.55Z"/>
      <path class="cls-1" d="M86.95,144.41c.61,0,.78.17.33.33-.39.17-.89.11-1.05-.06-.22-.17.11-.33.72-.28Z"/>
      <path class="cls-1" d="M98.94,146.58c-.5,0-1.83.17-2.89.28-2.33.39-4.11-.5-2.78-1.39.83-.55,1.55-.55,4.83-.17,1.89.22,2.55,1.28.83,1.28Z"/>
      <path class="cls-1" d="M87.28,147.52c-.39.17-.89.11-1.05-.06-.22-.17.11-.33.72-.28.61,0,.78.17.33.33Z"/>
      <path class="cls-1" d="M99.1,148.24c-.17.28-.56.56-.89.56-.28,0-.5-.28-.5-.56,0-.33.39-.55.89-.55.44,0,.67.22.5.55Z"/>
      <path class="cls-1" d="M83.61,150.74c.22.44.56.67.83.5.28-.17.5,0,.5.39,0,.39.17.55.33.33.22-.17,1.05,0,1.94.5.89.44,1.61.61,1.61.39,0-.28.22-.11.5.28.33.56,1,.61,2.89.17,2.39-.55,3.28-.44,2.5.33-.89.94-6.72.39-8.99-.83-1.94-1-3.66-2.89-2.66-2.89.11,0,.39.39.56.83Z"/>
      <path class="cls-1" d="M96.61,152.68c.72.44.67.56-.17.56-.5,0-.94-.28-.94-.56,0-.67.06-.67,1.11,0Z"/>
      <path class="cls-1" d="M99.05,164.95c.78-.83.78-1.11.17-1.61-.44-.39-.94-.5-1.11-.28-.22.17-.39.11-.39-.22,0-.33.33-.83.72-1.17.56-.5.94-.06,1.67,1.83l.89,2.5h-1.44c-1.39,0-1.39-.06-.5-1.06Z"/>
      <path class="cls-1" d="M83.84,168.56c0,.44-.28.78-.56.78-.89,0-.67-.78.83-3.39,1.22-2.22,1.39-2.33,1.39-1,0,.83-.39,1.78-.83,2.17s-.83,1.05-.83,1.44Z"/>
      <path class="cls-1" d="M84.95,170.39c.44.28,1.5.78,2.33,1.22.89.39,1.44.78,1.33.94-.39.39-5.33-1.67-5.33-2.16,0-.61.56-.61,1.67,0Z"/>
      <path class="cls-1" d="M98.66,178.33c.17.33.11.44-.17.28-.33-.17-.89.78-1.28,2.16-.39,1.33-.94,2.44-1.22,2.44s-.33.44-.11.94c.22.72.17.83-.28.44-1-.89.39-4.5,2.61-7,1.72-1.83,6.16-4.44,6.16-3.55,0,.17-1.39,1.05-3.05,2-1.72,1-2.89,1.94-2.66,2.28Z"/>
      <path class="cls-1" d="M107.54,176.61c-.44-.44-.17-.61,1-.61,1.44.06,1.55.11.67.61-.78.44-1.22.44-1.67,0Z"/>
      <path class="cls-1" d="M106.43,181.39c-.83,0-.83-.17-.28-1.06.83-1.22,5.44-4.05,5.44-3.39,0,.89-4.16,4.5-5.16,4.44Z"/>
      <path class="cls-1" d="M110.99,181.94c-.44-1.61-.17-3.17.56-3.17.22,0,.28,1.06.11,2.33-.22,2.28-.22,2.33-.67.83Z"/>
      <path class="cls-1" d="M100.1,185.05c-.28.17-.78-.17-1.17-.78-.78-1.22-.72-1.28.61-.28.56.44.78.89.56,1.06Z"/>
      <path class="cls-1" d="M102.71,190.99c0-.33.44-.56.94-.56,2.61,0,5.11-1.22,6.33-3.05.72-1.06,1.67-1.94,2.05-1.94.44,0,.17.72-.72,1.89-2.11,2.78-8.61,5.55-8.61,3.66Z"/>
      <path class="cls-1" d="M95.61,186.72c.17,1.05.11,1.39-.22,1.05-.33-.33-.44-1-.33-1.55.17-.78.28-.67.56.5Z"/>
      <path class="cls-1" d="M102.32,186.61c-.39.39-.83.56-1,.39-.17-.17.11-.5.67-.67.78-.33.83-.28.33.28Z"/>
      <path class="cls-1" d="M100.05,191.38c-.33.11-1,.11-1.39,0-.33-.17-.06-.28.72-.28s1.05.11.67.28Z"/>
      <path class="cls-1" d="M120.37,190.05c.28-.39.72-.5,1.17-.22.61.39.5.61-.44,1.11-1.17.67-1.5.33-.72-.89Z"/>
      <path class="cls-1" d="M122.81,191.82c-.11-1.61-.11-1.55,1.06-.67.78.55.78.78.17,1.39-1,.89-1.05.89-1.22-.72Z"/>
      <path class="cls-1" d="M112.15,203.71c-.83-3-.5-4.61.44-2.5.39.89.56,1.72.44,1.89-.17.11-.06.72.28,1.28.56,1.05,3.28,1.5,3.28.55,0-.28.78-.5,1.67-.5,2.05.06,1.61.61-1.22,1.55-2.94.89-4.22.33-4.89-2.28Z"/>
      <path class="cls-1" d="M139.86,192.93v3.16c.06,1.72-.11,3.55-.28,4.05-.33.78-.44.78-1.11-.17-.67-.94-.61-1.55.28-4.05l1.11-3Z"/>
      <path class="cls-1" d="M138.25,194.21c0,.67-1.05,1.44-1.44,1.05-.11-.11.11-.55.61-.94.5-.44.83-.44.83-.11Z"/>
      <path class="cls-1" d="M141.36,196.27c-.5-1.83-.06-2.44.67-1,.33.61.39,1.39.17,1.78-.33.5-.56.28-.83-.78Z"/>
      <path class="cls-1" d="M132.31,196.82c-.17.89-.67,2.44-1.11,3.44-.5,1-.61,2.11-.39,2.5.28.39.5,1,.56,1.33.06.33.28,1.44.5,2.39.22,1.17.17,1.72-.28,1.72-.39,0-.56-.39-.33-.83.17-.44.06-.83-.17-.83-.28,0-.67-1.22-.89-2.67-.28-2.16-.11-3.22,1.05-5.72.94-2,1.28-2.44,1.06-1.33Z"/>
      <path class="cls-1" d="M142.3,199.99c-.17-.39-.11-.89.06-1.05.17-.22.33.11.28.72,0,.61-.17.78-.33.33Z"/>
      <path class="cls-1" d="M145.46,201.82c0-1.06.22-2.05.56-2.22.33-.22.56.67.56,2.22s-.22,2.44-.56,2.22c-.33-.17-.56-1.17-.56-2.22Z"/>
      <path class="cls-1" d="M140.69,210.31c-.22-.39.11-.44.94-.17.72.22,1.17.22.94,0-.22-.22.17-1.22.83-2.16.67-.94,1.22-1.94,1.22-2.22,0-.28.33-.61.67-.78.39-.11.72,0,.72.28,0,.83-2.22,4.05-2.78,4.05-.33,0-.44.28-.28.55.17.33-.28.78-1,1.05-.78.33-1.55.83-1.78,1.11-.17.33-.61.61-1,.61-.33,0-.06-.39.61-.89.67-.44,1.06-1.11.89-1.44Z"/>
      <path class="cls-1" d="M139.91,205.09c0-.11.22-.22.56-.22.28,0,.56.28.56.61,0,.28-.28.39-.56.22-.33-.17-.56-.44-.56-.61Z"/>
      <path class="cls-1" d="M136.14,205.76c.28-.33.44-.11.44.61,0,.94-.22,1.11-1.22.83-.89-.22-1-.39-.44-.56.44-.17,1-.55,1.22-.89Z"/>
      <path class="cls-1" d="M139.36,206.81c0,.44-.22.83-.56.83-.28,0-.39-.39-.22-.83.22-.44.44-.83.56-.83s.22.39.22.83Z"/>
      <path class="cls-1" d="M132.25,209.53c-.39-.44-.44-.78-.17-.78s.72.28.89.61c.61.89.06,1.06-.72.17Z"/>
      <path class="cls-1" d="M130.08,271.16c2.5-1.94,8.16-8.94,8.16-10.05,0-.33.5-1,1.11-1.55,1.44-1.33,1.39-.83-.33,2.66-2.78,5.38-9.22,12.21-12.38,12.99-1.89.44-2.66-.22-5.16-4.27-2.66-4.44-4.44-10.16-4.22-13.38l.22-2.44.44,2.22c.78,4,2.55,8.83,4.44,12.21,2.39,4.27,3.89,4.61,7.72,1.61Z"/>
      <path class="cls-1" d="M125.48,266.5c0-.61.28-.61,2.22,0,1.33.44,1.28.44-.44.5-.94.05-1.78-.22-1.78-.5Z"/>
      <path class="cls-1" d="M80.06,33.26c-4-1.94-4.44-2.94-3.44-7.16q.72-3.05,4.61-1.83c2,.61,2.83,1.17,3.22,2.28.61,1.55.22,7.27-.5,8-.28.28-2-.33-3.89-1.28Z"/>
      <path class="cls-1" d="M108.65,38.03c-2.33-1.72-8.88-4.72-10.33-4.72-.61,0-1.28-.28-1.44-.56-.17-.33-.61-.56-.89-.56-.33,0-.39.33-.17.67.28.5.11.5-.5-.06-.5-.39-.94-.56-.94-.28s-.22.17-.5-.28c-.28-.39-.78-.56-1.17-.33-.89.56.11,1.55,1.78,1.78,1.5.22,4.89,1.94,4.89,2.44,0,.22-1.44.06-3.22-.39-1.72-.44-3.89-.89-4.77-1.06-1.28-.28-1.5-.56-1.22-1.55.17-.67.33-2.16.33-3.33,0-2.44.28-2.44,4.44-.72,7.05,2.94,14.32,7.55,17.77,11.27l1.94,2.05-2.11-1.5c-1.11-.83-2.89-2.11-3.89-2.89Z"/>
      <path class="cls-1" d="M131.53,57.13c-1.17-1.83-4.05-9.99-4.83-13.82-.83-4-.83-4.33.22-6.39,1.17-2.39,1.72-2.72,3.17-1.89.5.28,1.5,1.61,2.16,2.89,1.06,2,1.22,3.5,1.44,10.77.22,7.66.17,8.49-.72,8.83-.56.22-1.17.06-1.44-.39Z"/>
      <path class="cls-1" d="M77.56,48.3c.44,0,3.16-8.38,2.83-8.55-.11-.06-1.28-.61-2.66-1.28-1.39-.67-2.66-1.22-2.89-1.22-1.83-.17-2.22,19.27-.5,24.65.39,1.17.44,0,.28-4.16-.17-3.39-.06-7,.33-8.61.33-1.55.61-3.22.61-3.83,0-.56.39-1.39.83-1.83.89-.89.94-.67.83,2.72-.06,1.17.11,2.11.33,2.11ZM78.39,42.03c-.22.39-.72.44-1.11.22-.56-.33-.56-.56.11-1.11.89-.72,1.61-.11,1,.89Z"/>
      <path class="cls-1" d="M103.21,66.35c.72.39-.5-6.88-1.55-9.38-1.22-2.78-4.16-6.33-5.83-7-1.55-.67-1.89-.67-3.11,0-1.78.94-1.94,4-.39,7.33,1.61,3.66,3.83,6.22,7.38,8.72l2.72,1.89-3.66-3.83c-3.89-4.05-4.94-5.61-4.89-7.27,0-.67.11-.78.33-.22.22.5.39.56.67.11.28-.39,1.11.33,2.22,1.89,1,1.39,1.89,2.5,2,2.5.33,0-.56-2.28-1.61-4.33-.61-1.22-.61-1.61-.06-2.16,1.39-1.28,3,1.44,4.44,7.49.5,2.22,1.11,4.11,1.33,4.28ZM96.55,54.47c-.33.72-1,1.05-1.78.94-.94-.11-1.22-.56-1.22-1.78,0-1.94.72-2.28,2.39-1.11,1,.67,1.11,1.06.61,1.94Z"/>
      <path class="cls-1" d="M99.16,58.13c-1.44-3.39-1.5-3.89-.22-1.94,1,1.61,2.28,6,1.89,6.44-.17.17-.33-.06-.33-.5s-.61-2.22-1.33-4Z"/>
      <path class="cls-1" d="M95.05,57.74c.11,0,1,1,1.94,2.22,2.05,2.44,2.44,3.5.67,1.89-1-.89-3.05-4.11-2.61-4.11Z"/>
      <path class="cls-1" d="M37.2,53.3c0-.33.22-.56.56-.56.28,0,.56.22.56.56,0,.28-.28.56-.56.56-.33,0-.56-.28-.56-.56Z"/>
      <path class="cls-1" d="M48.86,63.52c-.89,2.39,1.33,10.77,4.22,15.71,2,3.44,1.61,4.16-.56,1.11-2.83-4-4.83-9.44-5.22-14.21-.22-3.55-.17-4.22.72-4.83,1.33-1,9.99-.94,13.88,0,3.05.78,9.44,3.94,6.83,3.39-.83-.17-2.22-.56-3.05-.94-1.78-.72-1.83-.72-6.72-1.5-6.44-1.06-9.33-.67-10.1,1.28Z"/>
      <path class="cls-1" d="M53.3,69.07c0-.33.39-1.06.89-1.67q.78-1,.17.33c-.78,1.72-1.06,2-1.06,1.33Z"/>
      <path class="cls-1" d="M61.41,73.56c.44-1.17,3.39-1,5.77.28,2.22,1.17,8.72,7.83,11.55,11.77,1.72,2.44,1.72,2.61.67,2.94-1.5.5-8.66-3.33-13.33-7.16-3.61-2.89-5.39-5.89-4.66-7.83Z"/>
      <path class="cls-1" d="M38.59,91.22c-1.28.72-1.5.78-3.11.89-.61,0-1,.28-.83.56.17.22-.33.72-1.17,1.11-1.11.5-1.28.83-.83,1.28.5.5.83.39,1.44-.44.44-.56,1-.89,1.17-.67.22.22.89.17,1.5-.17.56-.28,1.28-.39,1.61-.17.33.17-1,1.28-2.94,2.39l-3.5,2-1.83-2.72c-1-1.5-1.61-2.89-1.39-3.11.61-.61,7.11-2.55,10.72-3.33,4-.83,15.49-1.39,14.55-.67-.39.28-2.28.56-4.16.61-3.55.11-9.27,1.33-11.22,2.44Z"/>
      <path class="cls-1" d="M7.11,95.5l-1.83-1.61,2.61-.06c2.17,0,2.66.22,2.94,1.17.28.78.11,1.39-.33,1.67-1.17.72-1.44.61-3.39-1.17Z"/>
      <path class="cls-1" d="M27.82,102.16l-1.55.67c-.83.33-3.05.67-4.89.67l-3.33.06-1.5-2.78c-.78-1.5-1.33-2.94-1.22-3.16.39-.61,5.16-2.67,6.22-2.67.44,0,1.61.83,2.55,1.89.94,1,2.17,2.61,2.72,3.61l1,1.72Z"/>
      <path class="cls-1" d="M60.8,111.87c-1.55-1.39-4.28-3.28-6.11-4.22-5.5-2.67-10.83-2-10.83,1.44,0,3.66,5.5,6.5,13.32,6.77,3.78.17,5.05.05,4.44-.33-.44-.33-2.33-.61-4.22-.61-3.33,0-6.5-.72-7.88-1.83-1.22-.94-.28-1.06,1.5-.17.89.5,2.61.83,3.78.83l2.11-.06-2.55-.44c-2.5-.44-5.27-1.55-4.83-1.94.11-.17,1.55.11,3.22.56,1.67.44,3.11.67,3.28.56.11-.17-1.06-.83-2.55-1.5-1.94-.89-2.83-1.61-2.78-2.28.11-1.78,3.16-.83,7.33,2.33,4.33,3.33,5.94,3.83,2.78.89ZM47.75,111.21c-.94-.28-2.11-2.17-1.55-2.67.44-.44,3.22-.72,3.44-.33.83,1.28-.5,3.39-1.89,3Z"/>
      <path class="cls-1" d="M53.3,109.82c-1.05-.56-1.5-1-1.05-1s2,.72,3.44,1.67c1.44.89,2.61,1.78,2.61,2,0,.17-.67-.11-1.55-.67-.83-.56-2.39-1.44-3.44-2Z"/>
      <path class="cls-1" d="M34.87,126.92c5.77,4.77,6,4.72,1.05-.33-3.5-3.61-6.83-8.05-7.16-9.49-.11-.39-.5-1.11-.89-1.5-.89-1-.83-1.5.17-2.33.67-.56.83-.56.83.06.06.94,2.16,3.55,2.55,3.11.17-.17-.17-1.22-.78-2.44-.61-1.17-1.39-3.05-1.72-4.16l-.67-2.05-1.89.83c-1.05.44-2.55.78-3.33.78s-1.39.17-1.39.39c0,.28.89,1.94,2,3.72,2.61,4.39,7.94,10.77,11.22,13.44ZM26.76,112.6c-.5-.5-1.33-1-1.78-1.22-.44-.17-.28-.22.39-.11,1.33.22,1.78-.5.55-.94-.33-.17-.44-.28-.11-.28,1.33,0,1.94.61,1.94,1.94s-.06,1.39-1,.61Z"/>
      <path class="cls-1" d="M48.3,133.25c.5.33.56.56.17.56-.33,0-.83-.28-1-.56-.44-.67-.22-.67.83,0Z"/>
      <path class="cls-1" d="M16.66,145.91c0-1.44,6.5-7,10.6-8.94,3.83-1.89,8.27-3.16,8.27-2.39,0,.44-3.83,2-5.05,2-.61,0-1.05.17-1.05.39,0,.28-1.33,1.17-3,2-2.83,1.5-8.11,6.05-8.11,7.05s5.27,5.55,8.11,7.05c1.67.83,3,1.72,3,1.94,0,.28.44.44,1.05.44,1.44,0,5.5,1.78,4.66,2.05-1.22.44-6.44-1.39-10.05-3.55-3.55-2.11-8.44-6.77-8.44-8.05Z"/>
      <path class="cls-1" d="M25.93,144.19c.28-.17.44.67.44,1.83s-.17,2-.44,1.83c-.22-.11-.39-.94-.39-1.83s.17-1.72.39-1.83Z"/>
      <path class="cls-1" d="M37.14,148.07c-1.05-.67-1.89-1.61-1.89-2.05s.83-1.39,1.89-2.05c1.61-1.05,2.55-1.28,6.39-1.22,2.5,0,6.72.5,9.44,1.06,7.94,1.66,7.88,2.78-.28,4.44-7.38,1.56-13.1,1.5-15.55-.17Z"/>
      <path class="cls-1" d="M3.33,146.02c0-.33.39-.56.83-.56s.83.22.83.56c0,.28-.39.56-.83.56s-.83-.28-.83-.56Z"/>
      <path class="cls-1" d="M47.47,158.79c.33-.56,1.39-.78,1.39-.33,0,.11-.39.39-.89.55-.44.17-.67.11-.5-.22Z"/>
      <path class="cls-1" d="M35.92,165.51c1.94-1.94,3.5-3.61,3.5-3.78,0-1-7.27,5.61-10.49,9.55-3.11,3.72-7.27,10.05-7.27,10.94,0,.28.61.44,1.39.44s2.28.33,3.33.78l1.89.83.67-2.05c.33-1.11,1.11-3,1.72-4.16.61-1.22.94-2.28.78-2.44-.39-.44-2.5,2.16-2.55,3.11,0,.61-.17.61-.83.05-1-.83-1.05-1.33-.17-2.33.39-.39.78-1.11.89-1.5.33-1.5,3.72-5.94,7.16-9.44ZM26.76,179.44c.94-.78,1-.72,1,.55s-1.44,2.55-2.11,1.83c-.17-.17,0-.28.33-.28.39,0,.67-.22.67-.5s-.56-.39-1.28-.28c-.67.11-.83.06-.39-.11.44-.22,1.28-.72,1.78-1.22Z"/>
      <path class="cls-1" d="M60.8,180.16c3.16-2.94,1.55-2.44-2.78.89-4.16,3.16-7.22,4.11-7.33,2.28-.06-.61.83-1.33,2.78-2.22,1.5-.67,2.67-1.33,2.55-1.5-.17-.11-1.61.11-3.28.55-1.66.44-3.11.72-3.22.56-.44-.39,2.33-1.5,4.83-1.94l2.55-.44-2.11-.05c-1.17,0-2.89.33-3.78.83-1.78.89-2.72.78-1.5-.17,1.39-1.11,4.55-1.83,7.88-1.83,1.89,0,3.78-.28,4.22-.61.61-.39-.67-.5-4.44-.33-7.77.28-13.32,3.11-13.32,6.66,0,5.33,9.99,3.78,16.93-2.66ZM48.69,184c-.5-.05-1.33-.11-1.78-.17-1.11-.06-1.05-1.39.06-2.5,1.05-1.05,1.61-1.11,2.28-.22.89,1.17.56,2.94-.56,2.89Z"/>
      <path class="cls-1" d="M53.3,182.22c1.06-.56,2.61-1.44,3.44-2,.89-.56,1.55-.83,1.55-.67,0,.56-5.11,3.66-6.05,3.66-.44,0,0-.44,1.05-1Z"/>
      <path class="cls-1" d="M39.42,203.21c-3.61-.78-10.1-2.72-10.72-3.33-.22-.22.39-1.61,1.39-3.11l1.83-2.72,3.5,2c1.94,1.11,3.28,2.22,2.94,2.39-.33.22-1.05.11-1.61-.17-.61-.33-1.28-.39-1.5-.17-.17.22-.72-.11-1.17-.72-.78-1.06-.83-1.06-2,.17-.72.67-.94,1.22-.56,1.22.33,0,.67-.28.67-.55,0-.61,2.22.33,2.78,1.17.17.28.83.56,1.39.67.61.11,1.61.44,2.22.78,2,1.11,7.66,2.33,11.22,2.44,1.89.06,3.78.33,4.16.61.94.72-10.55.17-14.55-.67Z"/>
      <path class="cls-1" d="M25.54,188.99c2.22.89,2.22,1.28-.06,4.61-2.33,3.39-3.72,3.94-6.72,2.67-3.83-1.67-3.94-1.83-2.22-5,1.5-2.72,1.55-2.78,4.27-2.89,1.5-.06,3.66.22,4.72.61Z"/>
      <path class="cls-1" d="M48.03,230.74c-.89-.61-.94-1.28-.72-4.83.39-4.77,2.39-10.22,5.22-14.21,1.06-1.44,1.89-2.33,1.89-1.94,0,.44-.61,1.78-1.33,3.05-2.89,4.94-5.11,13.32-4.22,15.71.89,2.28,4.55,2.39,14.55.55.39-.06,1.67-.55,2.89-1.05,2.44-1.11,2.55-1.11,2.55-.5,0,.67-4.83,2.78-7.77,3.44-3.78.83-11.83.72-13.05-.22Z"/>
      <path class="cls-1" d="M53.3,223.08c0-.83.39-.44,1.06,1.05.56,1.44.56,1.5-.22.5-.44-.61-.83-1.28-.83-1.55Z"/>
      <path class="cls-1" d="M7.88,198.21l-2.61-.06,1.83-1.61c1.94-1.78,2.22-1.89,3.39-1.17.44.28.61.89.33,1.67-.28.94-.78,1.17-2.94,1.17Z"/>
      <path class="cls-1" d="M67.07,218.25c-7.11,3.61-7.88-2.05-1-7.61,3.33-2.72,11.49-7.5,12.55-7.38.28,0,.83.17,1.22.33,1.55.61-8.94,12.71-12.77,14.66Z"/>
      <path class="cls-1" d="M80.39,252.29c.33-.17-2.39-8.55-2.83-8.55-.22,0-.39.94-.33,2.05.11,3.44.06,3.66-.83,2.78-.44-.44-.83-1.28-.83-1.83,0-.61-.28-2.44-.67-4.11-.39-1.89-.5-5.11-.28-8.5.17-2.94.22-5.38.11-5.38s-.5,1.67-.83,3.66c-1.11,6.16-.67,20.93.67,22.21.17.22,3.44-1.11,5.83-2.33ZM77.62,249.73c.33-.33.61-.22.83.33.39,1-.5,1.72-1,.83-.22-.33-.17-.83.17-1.17Z"/>
      <path class="cls-1" d="M103.16,229.08c.61-4.72-.06-4.22-1.28.89-1.44,6.05-3.05,8.77-4.44,7.5-.56-.56-.56-.94.06-2.16,1.05-2.06,1.94-4.33,1.61-4.33-.11,0-1,1.11-2,2.5-1.11,1.55-1.94,2.28-2.22,1.89-.28-.44-.44-.39-.67.11-.22.56-.33.44-.33-.22-.06-1.66,1-3.22,4.89-7.27l3.66-3.83-2.72,1.89c-3.55,2.5-5.77,5.05-7.38,8.72-3.22,6.88,1.28,10.49,6.22,5,2.55-2.78,4-6.11,4.61-10.66ZM95.77,239.63c-1.72,1.11-2.66.5-2.39-1.5.22-1.78,2.33-2.11,3.16-.55.56.94.39,1.28-.78,2.05Z"/>
      <path class="cls-1" d="M97.66,237.35l.61-1.33c.39-.72,1.17-2.61,1.72-4.16.61-1.55.94-2.22.78-1.44-.17.78-.44,2-.61,2.78-.17.78-.83,2.05-1.39,2.78l-1.11,1.39Z"/>
      <path class="cls-1" d="M95.66,232.91c.89-1.72,3.17-4.16,3.17-3.27-.06.28-.94,1.5-2.05,2.72-1.78,2-1.89,2.05-1.11.55Z"/>
      <path class="cls-1" d="M90.5,262.28c0-1.22-.17-2.72-.33-3.39-.28-1-.06-1.28,1.22-1.55.89-.17,3.05-.61,4.77-1.06,1.78-.44,3.22-.61,3.22-.39,0,.5-3.39,2.22-4.89,2.44-1.67.22-2.66,1.22-1.78,1.78.39.22.89.06,1.17-.33.28-.44.5-.56.5-.28s.44.11.94-.28c.61-.55.78-.55.5-.11-.5.83-.11.89,1.22.22.5-.28,2.33-.94,4-1.44,2.78-.89,7.38-3.61,11.94-7q1.55-1.17-.28.83c-3.83,4.11-15.44,10.99-20.71,12.27-1.44.39-1.5.33-1.5-1.72Z"/>
      <path class="cls-1" d="M143.19,245.51c0,.5.22,1.39.39,1.94.28.78.22.83-.28.39-.39-.39-.61-1.22-.44-1.94.11-.72.28-.89.33-.39Z"/>
      <path class="cls-1" d="M144.46,255.45c.11,0,.5.17.89.33.33.11.56.5.33.78-.17.28-.06.5.22.5s.83.72,1.22,1.67c.39.89.89,1.67,1.17,1.67.22,0,.56.44.78.94.11.39.45.92.93,1.54v1.86c-1.8-2.4-3.37-4.81-4.48-7.01-.67-1.28-1.11-2.33-1.06-2.28Z"/>
      <path class="cls-1" d="M132.25,254.12c-.67,1.28-1.78,2.66-2.44,3-1,.55-1.33.44-2.22-.56-.5-.72-1.11-2.05-1.33-3.11-.39-2.28,1.28-9.16,3.66-14.93,1.72-4.11,3-5.22,3.72-3.39.17.5.17,4.44.06,8.77-.22,6.72-.44,8.22-1.44,10.22Z"/>
      <path class="cls-1" d="M37.2,238.74c0-.33.22-.56.56-.56.28,0,.56.22.56.56,0,.28-.28.55-.56.55-.33,0-.56-.28-.56-.55Z"/>
      <path class="cls-1" d="M84.06,257.56c.67,1.05.94,6.55.39,7.94-.44,1.11-1.22,1.67-3.55,2.33-1.67.5-3.17.89-3.33.89-.56,0-1.61-5.61-1.28-6.83.39-1.72,7.11-5.44,7.77-4.33Z"/>
      <path class="cls-1" d="M74.18,276.05l-1.89,1.5.28-2.33c.39-2.72.17-2.39,1.61-2.83.83-.28,1.33-.11,1.55.56.5,1.39.44,1.5-1.55,3.11Z"/>
      <path class="cls-1" d="M123.81,287.87c0,.44-.28.83-.56.83-.33,0-.56-.39-.56-.83s.22-.83.56-.83c.28,0,.56.39.56.83Z"/>
    </g>
  </g>
</svg>