<?xml version="1.0" encoding="UTF-8"?>
<svg id="Layer_2" data-name="Layer 2" xmlns="http://www.w3.org/2000/svg" viewBox="0 0 150 292.04">
  <defs>
    <style>
      .cls-1 {
        fill: #ffbf8f;
      }
    </style>
  </defs>
  <g id="Layer_1-2" data-name="Layer 1">
    <g>
      <path class="cls-1" d="M0,51.17v3.01c.39-.61.61-1.21.54-1.88-.06-.52-.32-.8-.54-1.13Z"/>
      <path class="cls-1" d="M5.09,266.11c0,3.55,4.5,8.16,14.05,14.49l6.55,4.27-1.05,1.89-1.11,1.83,1.78,1.72c1,.94,1.94,1.72,2.11,1.72s.89-1,1.5-2.28l1.22-2.28-1.44-1.11c-.78-.61-1.39-1.39-1.39-1.72,0-.39,2.16-3.55,4.72-7.05,2.61-3.5,5.39-7.66,6.16-9.27,1.5-3.05,2-7.61,1.11-10.11-.44-1.28-.28-1.22,2.22.61,6.44,4.72,17.05,8.94,29.81,11.77,1.61.39,1.72,1,.61,3.83-.22.61.72,1.66,3.11,3.39,1.89,1.39,3.66,2.39,3.94,2.22.56-.33.56-5.39,0-7.38-.28-1-.94-1.55-2.28-1.89-1.06-.28-2-.55-2.11-.67-.06-.06.61-2.72,1.5-5.88,2.72-9.44,3.61-15.1,3.61-22.88v-7.05l1.11,1.05c4.22,3.78,8.66,4.11,26.26,1.94l2.39-.28.33,2.22.39,2.28h2.72c2.33,0,2.72-.17,2.44-1-.11-.5-.39-1.72-.61-2.66-.28-1.44-.56-1.67-2.28-1.72-1.05-.05-2.05-.17-2.16-.28-.17-.11-.5-4.11-.83-8.83-.28-4.72-.83-9.55-1.17-10.77-.83-3.05-3-6.61-4.72-7.94l-1.5-1.05,5.22-.67c6.38-.83,14.55-3.5,23.04-7.55l6.38-3,.83,1.89c.78,1.94.83,1.94,4.33,1.94,3.83,0,5.33-.33,5.33-1.22,0-.67-3.83-4.77-5.11-5.5-.67-.33-1.61-.28-2.94.28l-1.94.83-1.78-4c-4.72-10.72-9.27-18.04-14.71-23.65-1.61-1.67-2.94-3.05-2.94-3.05,0-.06,1.33-.06,2.94-.11,4.39-.06,7.11-1.78,14.82-9.44,3.83-3.78,7.22-6.88,7.49-6.88s1.06.5,1.72,1.17l1.22,1.17,2-1.55c1.11-.89,2-1.72,2-1.89s-.89-1-2-1.89l-2-1.55-1.22,1.16c-.67.67-1.44,1.17-1.72,1.17s-3.66-3.11-7.49-6.88c-7.72-7.66-10.44-9.38-14.82-9.44-1.61-.06-2.94-.06-2.94-.11,0,0,1.33-1.39,2.94-3.05,5.44-5.61,9.99-12.94,14.71-23.65l1.78-4,1.94.83c1.33.56,2.28.61,2.94.28,1.28-.72,5.11-4.83,5.11-5.5,0-.89-1.5-1.22-5.33-1.22-3.5,0-3.55,0-4.33,1.94l-.83,1.89-6.38-3c-8.49-4.05-16.66-6.72-23.04-7.55l-5.22-.67,1.5-1.05c1.72-1.33,3.89-4.89,4.72-7.94.33-1.22.89-6.05,1.17-10.77.33-4.72.67-8.72.83-8.83.11-.11,1.11-.22,2.16-.28,1.72-.06,2-.28,2.28-1.72.22-.94.5-2.16.61-2.72.28-.78-.11-.94-2.44-.94h-2.72l-.39,2.28-.33,2.22-2.39-.28c-17.6-2.16-22.04-1.83-26.26,1.94l-1.11,1.05v-7.05c0-7.77-.89-13.44-3.61-22.87-.89-3.16-1.55-5.83-1.5-5.89.11-.11,1.05-.39,2.11-.67,1.33-.33,2-.89,2.28-1.89.56-2,.56-7.05,0-7.38-.28-.17-2.05.83-3.94,2.22-2.39,1.72-3.33,2.78-3.11,3.39,1.11,2.83,1,3.44-.61,3.83-12.77,2.83-23.37,7.05-29.81,11.77-2.5,1.83-2.67,1.89-2.22.61.89-2.5.39-7.05-1.11-10.1-.78-1.61-3.55-5.77-6.16-9.27-2.55-3.5-4.72-6.66-4.72-7.05,0-.33.61-1.11,1.39-1.72l1.44-1.11-1.22-2.28c-.61-1.28-1.33-2.28-1.5-2.28s-1.11.78-2.11,1.72l-1.78,1.72,1.11,1.83,1.05,1.89-6.55,4.27c-9.55,6.33-14.05,10.94-14.05,14.49-.06,2.44-.94,2.39-2.61-.22-.5-.75-1.4-1.84-2.48-3.06v2.55c3.99,5.17,7.1,10.8,9.09,17,1.05,3.5,1.28,5.33,1.28,11.66,0,9.44-.78,11.99-4.44,14.1-1.33.78-2.55,1.44-2.67,1.44-.17,0,.39-1.55,1.22-3.5,1.33-3.17,1.44-4.05,1.44-11.22-.06-7.16-.17-8.11-1.55-11.6-1.02-2.59-2.59-5.1-4.37-7.52v2.18c.13.23.25.42.37.68l.89,1.83-1.11-1.39c-.08-.09-.08-.14-.15-.23v1.98c.41.06.83.29,1.04.8.17.44.06,1.11-.28,1.44-.22.22-.49.28-.76.25v5.96c1.03.67,1.76,1.7,1.76,3.4,0,1.6-.53,2.9-1.76,4.17v1.89c2.42-2.2,2.98-2.44,1.15-.45-.33.35-.74.72-1.15,1.06v11.01c.14-.2.23-.37.43-.58.72-.78,1.33-1.72,1.33-2,0-.33.17-.44.33-.22.22.17-.22,1.22-.89,2.33-.44.69-.86,1.14-1.2,1.41v1.64c.23-.02.45-.03.65-.27,1.11-1.39,12.88-6.94,14.66-6.94,1.11,0,2.28.56,3.5,1.78,1,.94,2,1.55,2.22,1.33.39-.39-.78-1.61-3.33-3.39-.94-.67-.72-1.28,3.44-9.22,5.22-10.05,6.33-13.6,6.39-19.65,0-8.77-4.72-12.38-9.61-7.33-4.27,4.33-5.5,14.16-3.44,27.54.67,4.05,1,7.61.83,7.88-.17.28-.78.5-1.39.5s-1.89.39-2.83.89c-1.61.83-1.72.83-1.28-.11,1.55-3.55,2.55-9.05,2.22-12.16-.17-1.83-.44-4.5-.56-5.94-.17-1.39-1-4.94-1.94-7.88l-1.72-5.27,1.11-3.11c1.5-4.22,5.61-9.83,9.11-12.38,6.16-4.55,6.94-4.61,9.83-.94,3.83,4.77,6.16,11.22,6.27,17.1l.11,4-3.44,4.44c-5.83,7.66-8.88,15.1-9.11,22.15-.11,3.78-.11,3.83,2.39,6.66,1.33,1.55,2.94,3.55,3.5,4.39.67,1.06,1.28,1.44,1.89,1.17,1-.39,8.16-2.11,10.99-2.61,2.11-.39,2.94.5,4.11,4.5l.67,2.39,1.22-1.5c1.05-1.28,1.33-1.39,2.44-.83,1.28.72,1.39,2.28.17,2.72-.44.11-.67-.11-.56-.5.06-.44,0-.83-.28-.94-1-.33-1.5,0-1.5,1,0,1.33,2.44,2.11,3.61,1.11,1.05-.89,1.05-2.39,0-4.44-.78-1.5-1.72-2.05-4.33-2.44-1.67-.22-1.72-.89-.06-.89,4.66,0,8.05,5.5,5.22,8.33-1.5,1.5-3.61,1.39-4.77-.17l-.89-1.22.33,1.39c.22.78.5,2.16.72,3.11.28,1.61.5,1.78,3,2.11,4.94.67,13.49,3.11,14.55,4.11,1.33,1.33,2.22,7.33,1.94,13.49-.17,4.5-.06,4.94.94,5.16,2.22.61,10.88,5.44,11.22,6.27.28.78-.17,2.39-1.78,6.44-.39.94-.33,1,.78.33,1.39-.89,3-.17,3.28,1.44.28,1.39-.83,2.33-1.67,1.5-.5-.5-.5-.67,0-.67.39,0,.67-.39.67-.83,0-1.17-2-1.06-2.5.11-.22.67.06,1.33.83,1.94,1.61,1.33,1.94,1.28,3.28-.44,1.61-2,1.44-4.22-.33-6.38-.83-1-1.17-1.67-.72-1.5,1.28.39,3.33,3.78,3.33,5.44,0,1.78-1.78,4.22-3.39,4.72-1.67.56-3.83-1.11-3.89-2.94,0-1.33-.17-1.17-1.39,1.28l-1.44,2.78,2.33,2.5c3.61,3.89,7.77,10.44,7.77,12.21s-4.16,8.33-7.77,12.21l-2.33,2.5,1.44,2.78c1.22,2.44,1.39,2.61,1.39,1.28.06-1.83,2.22-3.5,3.89-2.94,1.61.5,3.39,2.94,3.39,4.72,0,1.66-2.05,5.05-3.33,5.44-.44.17-.11-.5.72-1.5,1.78-2.16,1.94-4.38.33-6.38-1.33-1.72-1.67-1.78-3.28-.44-.78.61-1.06,1.28-.83,1.94.5,1.17,2.5,1.28,2.5.11,0-.44-.28-.83-.67-.83-.5,0-.5-.17,0-.67.83-.83,1.94.11,1.67,1.5-.28,1.61-1.89,2.33-3.28,1.44-1.11-.67-1.17-.61-.78.33,1.61,4.05,2.05,5.66,1.78,6.44-.33.83-8.99,5.66-11.22,6.27-1,.22-1.11.67-.94,5.16.28,6.16-.61,12.16-1.94,13.49-1.05,1-9.6,3.44-14.55,4.11-2.5.33-2.72.5-3,2.11-.22.94-.5,2.33-.72,3.11l-.33,1.39.89-1.28c1.17-1.5,3.28-1.61,4.77-.11,2.83,2.83-.56,8.33-5.22,8.33-1.67,0-1.61-.67.06-.89,2.61-.39,3.55-.94,4.33-2.44,1.05-2.05,1.05-3.55,0-4.44-1.17-1-3.61-.22-3.61,1.11,0,1,.5,1.33,1.5.94.28-.06.33-.44.28-.89-.11-.39.11-.61.56-.5,1.22.44,1.11,2-.17,2.72-1.11.56-1.39.44-2.44-.83l-1.22-1.5-.67,2.39c-1.17,4-2,4.88-4.11,4.5-2.83-.5-9.99-2.22-10.99-2.61-.61-.28-1.22.11-1.89,1.17-.56.83-2.16,2.83-3.5,4.39-2.5,2.83-2.5,2.89-2.39,6.66.22,7.05,3.28,14.49,9.11,22.15l3.44,4.44-.11,4c-.11,5.88-2.44,12.33-6.27,17.1-2.28,2.89-3.61,3.22-6.39,1.5-5.94-3.66-10.49-9.05-12.55-14.82l-1.11-3.11,1.72-5.28c.94-2.94,1.78-6.5,1.94-7.88.11-1.44.39-4.11.56-5.94.33-3.11-.67-8.61-2.22-12.16-.44-.94-.33-.94,1.28-.11.94.5,2.22.89,2.83.89s1.22.22,1.39.5c.17.28-.17,3.83-.83,7.88-2.05,13.38-.83,23.21,3.44,27.54,4.89,5.05,9.61,1.44,9.61-7.33-.06-6.05-1.17-9.61-6.39-19.65-4.16-7.94-4.39-8.55-3.44-9.22,2.55-1.78,3.72-3,3.33-3.39-.22-.22-1.22.39-2.22,1.33-1.22,1.22-2.39,1.78-3.5,1.78-1.78,0-13.55-5.55-14.66-6.94-.2-.24-.42-.25-.65-.27v1.34c.24.23.57.71,1.15,1.65.67,1,1.17,2.05,1.17,2.33s-.56-.33-1.17-1.33c-.41-.58-.8-1.03-1.15-1.36v11c.42.37.85.78,1.2,1.19l1.39,1.55-1.94-1.66c-.28-.24-.42-.36-.65-.56v1.92s.03.02.04.03c2.55,2.55,2.19,6.26-.04,7.66v5.97c.12-.01.19-.19.32-.14.33.11.67.61.78,1.11.14.75-.47,1.26-1.09,1.33v1.89c.39-.62.79-1.17.98-1.17.17,0-.17.78-.61,1.72-.13.24-.25.38-.37.58v2.1c1.79-2.41,3.34-4.9,4.37-7.5,1.39-3.5,1.5-4.44,1.55-11.6,0-7.16-.11-8.05-1.44-11.27-.83-1.89-1.39-3.44-1.22-3.44.11,0,1.33.67,2.67,1.44,3.66,2.11,4.44,4.66,4.44,14.1,0,6.33-.22,8.16-1.28,11.66-1.93,6.14-5.05,11.94-9.09,17.13v2.42c1.08-1.22,1.99-2.31,2.48-3.06,1.67-2.61,2.55-2.67,2.61-.22ZM112.13,237.18c1.17.11,1.55.5,1.67,1.67.17,1.33,0,1.55-1.17,1.55-1.33,0-2.05-.89-2.05-2.55,0-.61.44-.78,1.55-.67ZM140.95,193.77c.11,0,1.17.89,2.39,2,1.22,1.11,2.22,2.22,2.22,2.5s-1.44.5-3.22.5c-2.94,0-3.33-.11-3.89-1.39-.39-.78-.67-1.55-.67-1.67,0-.22,2.72-1.83,3.16-1.94ZM144.67,145.19c1.33-1,1.44-1,2.78,0q1.11.83,0,1.67c-1.33,1-1.44,1-2.78,0q-1.06-.83,0-1.67ZM138.45,94.66c.56-1.28.94-1.39,3.89-1.39,1.78,0,3.22.22,3.22.5s-1,1.39-2.22,2.5c-2.17,1.94-2.28,2-3.89,1.17-1.89-1-1.89-.89-1-2.78ZM112.63,51.63c1.17,0,1.33.22,1.17,1.5-.11,1.22-.5,1.61-1.67,1.72-1.11.11-1.55-.06-1.55-.67,0-1.67.72-2.55,2.05-2.55ZM3.98,54.97c-1.06,0-1.5-1.05-.78-1.83.56-.5,1.89.22,1.89,1.05,0,.44-.5.78-1.11.78ZM4.37,49.8c.11.39.17,1.17.06,1.67-.17.83-.33.83-.94-.33-.44-.78-.5-1.17-.11-.94.33.22.61.06.67-.33,0-.56.11-.56.33-.06ZM2.87,43.31c.28.44.56,1.22.56,1.67,0,.72-.06.72-.56,0-.28-.44-.56-1.22-.56-1.67,0-.72.06-.72.56,0ZM1.76,47.75c0-.83.28-1.11,1-1,.5.11.94.56.94,1s-.44.89-.94,1c-.72.11-1-.17-1-1ZM2.43,65.63c-.33.33-.83.5-1,.28-.22-.17-.22-.78,0-1.28.28-.72.5-.83,1-.33.5.5.5.83,0,1.33ZM2.65,59.24c.56-.5,1.33.11,1.33,1.05,0,.44-.39.78-.83.78-.83,0-1.17-1.17-.5-1.83ZM14.7,46.86c-.22-5.33-.11-7.33.67-9.99,1.72-6.05,4.33-9.27,7.22-8.94.56.06,1.67.94,2.33,2,1.06,1.55,1.28,2.61,1.28,6.44,0,2.5-.39,5.89-.83,7.55-.83,2.94-8.05,18.21-8.61,18.27-.61,0-1.78-8.77-2.05-15.32ZM52.01,86.56c-.89.78-3.5,1.22-3.89.67-.17-.28.5-.67,1.5-.78,1-.11,2.05-.28,2.39-.28.33-.06.33.06,0,.39ZM51.56,205.76c-.56-.17-1.67-.33-2.39-.33-.78,0-1.22-.22-1.05-.55.39-.61,3.05-.17,3.89.72.39.39.22.44-.44.17ZM20.75,237.52c4.5,9.16,5.44,12.27,5.44,18.1,0,4.66-1.11,7.72-3.05,8.44-1.55.61-4.16-1-5.55-3.33-2.5-4.33-3.22-8.22-2.89-15.55.28-6.55,1.44-15.32,2.05-15.32.17.06,1.94,3.44,4,7.66ZM1.32,226.75c-.17-.56.06-.83.56-.67.39.17.72.55.72.89,0,1-1.11.83-1.28-.22ZM3.15,248.18c-.22.67-.5,1.05-.67.94-.17-.17-.11-.83.11-1.5.22-.67.5-1.05.67-.94.17.17.11.83-.11,1.5ZM2.76,245.29c-.72.11-1-.17-1-1s.28-1.11,1-1c.5.11.94.56.94,1s-.44.89-.94,1ZM4.15,242.18c-.11-.33-.5-.5-.83-.33-.33.22-.28-.11.06-.83.89-1.55,1.17-1.44,1.11.33,0,.89-.17,1.22-.33.83ZM5.09,237.85c0,.83-1.33,1.55-1.89,1.05-.72-.78-.28-1.83.78-1.83.61,0,1.11.33,1.11.78ZM3.87,231.91c-.22,1.22-1.22,1.11-1.44-.06-.11-.55.17-.89.72-.89s.83.39.72.94ZM28.41,287.87c0,.33-.33,1.06-.72,1.61-.67.89-.78.89-1.72-.17-.78-.83-.83-1.28-.33-2.22.5-1,.72-1.05,1.67-.44.61.33,1.11.94,1.11,1.22ZM61.83,266.33c-.56-.67.06-8.77.78-9.94.83-1.33,1.17.11,1.11,5.11-.06,5.5-.5,6.55-1.89,4.83ZM61.5,250.01c.56-.39,1.17-.72,1.33-.72s.78.33,1.33.72c2.11,1.5-.11,5.27-2.28,3.94-1.39-.89-1.61-3.05-.39-3.94ZM60.45,232.91c-1.17-2.39-.72-2.61.44-.22.5.94.83,1.83.72,1.94-.17.11-.67-.67-1.17-1.72ZM62.28,236.24c.28.61.5,2.11.5,3.27.06,3.05-.28,2.33-.67-1.33-.17-1.89-.11-2.61.17-1.94ZM66.5,240.63c-.67-1.78,1.17-2.61,2.44-1.05.33.44.5,1.05.28,1.39-.56.89-2.33.67-2.72-.33ZM67.55,246.51c0,1-.33,1.44-1.28,1.55-.72.11-1.39-.17-1.55-.67-.56-1.44.22-2.67,1.55-2.44.94.11,1.28.55,1.28,1.55ZM67.16,234.41c-.83-.83-.06-2.44,1.05-2.22.56.11,1.06.61,1.17,1.17.22,1.11-1.39,1.89-2.22,1.06ZM68.38,224.3c-.28-.44-.56-1.11-.56-1.39,0-.33.28-.17.56.28.28.44.56,1.05.56,1.39,0,.28-.28.17-.56-.28ZM68.38,227.08c0,.72-.39,1.11-1.11,1.11s-1.11-.39-1.11-1.11.39-1.11,1.11-1.11,1.11.39,1.11,1.11ZM65.11,221.58c-.83-.56-.44-2.28.5-2.28.33,0,.72.39.94.89.44,1.11-.44,2-1.44,1.39ZM65.5,218.36c-.44-.39-1-.56-1.17-.33-.22.17-.39-.22-.39-.89,0-1.39.83-1.11,1.78.67.56,1.06.5,1.11-.22.56ZM75.77,271.55c.89.28,1.72.56,1.83.67.11.11.33,1.61.56,3.44l.39,3.28-1.89-1.33c-3.66-2.5-3.78-2.66-3.16-4.66.56-1.78.72-1.83,2.28-1.39ZM74.1,266.5c-.67,2.55-1.11,3.28-1.78,3.11-.5-.17-2.28-.67-4-1.17-2.39-.67-3.22-1.17-3.5-2.11-.5-1.94-.39-7.38.22-8.94l.5-1.44,2.94,1.17c1.61.61,3.78,1.78,4.77,2.5,2.05,1.61,2.11,2.28.83,6.88ZM75.94,259.61c-.28.67-.56.61-1.83-.56-.83-.78-2.89-1.94-4.61-2.61-1.67-.67-3.17-1.33-3.28-1.39-.44-.33.67-1.39,1.28-1.16.33.17,2.33,1,4.44,1.83,3.83,1.61,4.61,2.33,4,3.89ZM78.38,229.24c0-.33.72-.05,1.55.56.89.61,2.89,1.61,4.5,2.28,1.61.61,4.22,1.33,5.77,1.61,2.05.33,2.39.5,1.17.56-3.33.11-12.99-3.61-12.99-5ZM102.2,208.7c.67.39,1.94,1.83,2.83,3.22.89,1.39,1.89,3.83,2.17,5.39.56,2.72,1.83,18.15,1.55,18.43-.06.05-3.94.55-8.66,1.05-9.27,1.05-12.94.83-16.1-.83-2.16-1.17-5.05-3.61-5.05-4.22,0-.22.67.22,1.55,1.05,2.78,2.66,6,3.72,11.49,3.66,2.78,0,7.49-.33,10.55-.67l5.55-.67-.17-1.94c-1.28-16.88-1.72-18.99-4.94-22.71-1.55-1.83-1.78-2.28-.78-1.78ZM98.64,209.42c-1.11-1.28-1.78-2.33-1.44-2.33s1.39,1.05,2.33,2.33c4.83,6.55,7.55,17.21,5.77,22.49-.44,1.33-3.66,2.39-7.88,2.66-4.44.28-3.22-.22,2.78-1.05,3.83-.56,4.83-1.78,4.83-5.88,0-6.66-2.44-13.55-6.38-18.21ZM99.75,207.65c-.17-.33-.06-.56.22-.56.33,0,.61.22.61.56,0,.28-.11.56-.22.56-.17,0-.44-.28-.61-.56ZM125.79,199.54c-1.05.33-1.61-.22-3.78-3.44-2.44-3.66-3.16-5.66-2.05-5.66.28,0,1.17,1.11,1.94,2.44.78,1.33,2.33,3.22,3.44,4.16q2.17,1.94.44,2.5ZM134.57,191.71l1.55,3.22-3.72,1.67c-2,.89-4.11,1.5-4.66,1.33-1.33-.44-4.11-3.66-5.5-6.39l-1.11-2.11,2.39-.89c3.78-1.33,3.89-1.33,6.33-1.39,1.28-.06,2.5.22,2.78.61.22.39,1.11,2.17,1.94,3.94ZM131.01,184.44c1.28,1.28.61,1.83-2.28,1.89-1.61.06-3.89.5-5.11,1-2.17.94-3.78.5-2.39-.61.56-.5,7.33-2.67,8.83-2.89.17-.06.55.22.94.61ZM125.74,131.08c1.28.67,5.39,4.27,9.11,8.05l6.83,6.88-6.83,6.88c-3.72,3.77-7.83,7.38-9.11,8.05-2.66,1.33-7.05,2.11-7.55,1.33-.17-.28.67-.56,1.89-.56,4.05-.17,6.94-2.05,13.99-9.05l6.72-6.66-6.72-6.66c-7.05-7-9.94-8.88-13.99-9.05-1.22,0-2.05-.28-1.89-.56.5-.78,4.89,0,7.55,1.33ZM117.96,131.92c4.33,1.11,8.22,3.11,12.21,6.22,2.72,2.16,6.5,6.72,6.5,7.88,0,.22-.72,1.5-1.67,2.89-1.89,2.83-6.77,6.83-10.88,8.94-3.61,1.83-9.66,3.39-10.33,2.72-.33-.33.5-.61,2.17-.78,3.83-.44,8.55-2.39,12.33-5.16,3.5-2.55,7.27-7.05,7.27-8.61s-3.78-6.05-7.27-8.61c-3.77-2.77-8.5-4.72-12.27-5.16-1.44-.11-2.5-.44-2.33-.72.39-.67.33-.67,4.28.39ZM117.24,162.12c0,.28-.22.55-.5.55-.33,0-.72-.28-.89-.55-.17-.33.06-.56.5-.56.5,0,.89.22.89.56ZM115.86,129.92c.17-.33.56-.55.89-.55.28,0,.5.22.5.55,0,.28-.39.56-.89.56-.44,0-.67-.28-.5-.56ZM130.96,107.65c-.55.44-1.83.28-4.88-.56-2.28-.67-4.44-1.44-4.78-1.72-.94-.78-.28-1.72.89-1.22.5.22,2.17.72,3.66,1.17,1.55.44,3.44.67,4.33.56,1.61-.22,2.05.72.78,1.78ZM132.46,95.44l3.66,1.67-1.55,3.22c-2.39,5-2.11,4.77-5.61,4.44-1.72-.17-4.16-.72-5.5-1.22l-2.33-.94,1.5-2.78c1.44-2.61,4.61-6,5.66-6,.28,0,2.16.72,4.16,1.61ZM125.79,92.5c.61.22,1.28.44,1.39.56.11.06-.72.94-1.83,1.94-1.11.94-2.66,2.83-3.44,4.16-.78,1.33-1.67,2.44-1.94,2.44-1.11,0-.39-2,2.05-5.66,2.17-3.22,2.72-3.78,3.78-3.44ZM83.65,56.24c3.66-2,6.27-2.17,17.04-.94,4.39.5,8,.94,8.05,1,.28.28-1,15.71-1.55,18.43-.61,3.28-3.17,7.61-5,8.61-1,.5-.78.06.78-1.78,3.22-3.72,3.66-5.83,4.94-22.71l.17-1.94-5.55-.67c-3.05-.33-7.77-.67-10.55-.67-5.5-.06-8.72,1-11.49,3.66-.89.83-1.55,1.28-1.55,1.05,0-.56,2.83-3,4.72-4.05ZM97.2,84.95c-.33,0,.33-1.06,1.44-2.39,3.94-4.61,6.38-11.49,6.38-18.16,0-4.11-1-5.33-4.83-5.89-6-.83-7.22-1.33-2.78-1.05,2.39.17,5.05.67,6,1.11.89.5,1.78,1.17,1.89,1.55,1.22,3.61.06,11.44-2.39,16.66-1.89,3.94-4.83,8.16-5.72,8.16ZM100.59,84.39c0,.28-.28.56-.61.56-.28,0-.39-.28-.22-.56.17-.33.44-.56.61-.56.11,0,.22.22.22.56ZM91.15,57.85c1.61,0,1.44.11-.94.5-3.39.56-8.05,2.33-10.27,3.89-.83.61-1.55.89-1.55.56,0-1.39,9.33-5,12.77-4.94ZM76.05,33.59c-.17,1.06-8.5,4.94-9.38,4.39-1-.61-.44-1.11,2.72-2.28,1.72-.72,3.78-1.89,4.55-2.61,1.44-1.39,2.44-1.11,2.11.5ZM65.61,72.73c-.94,0-1.33-1.72-.5-2.28,1-.61,1.89.28,1.44,1.39-.22.5-.61.89-.94.89ZM65.61,74.34c-.83,1.67-1.67,1.94-1.67.61,0-.67.22-1.06.5-.83.28.17.67.06.89-.28.61-1,.89-.56.28.5ZM66.16,64.96c0-.72.39-1.11,1.11-1.11s1.11.39,1.11,1.11-.39,1.11-1.11,1.11-1.11-.39-1.11-1.11ZM68.16,68.01c.22-.5.5-.78.61-.61.17.11,0,.72-.33,1.28-.67,1.11-.78.78-.28-.67ZM67.16,59.52c-.83-.83-.06-2.44,1.05-2.22.56.11,1.06.61,1.17,1.17.22,1.11-1.39,1.89-2.22,1.05ZM68.27,52.97c-1.22.72-2.28-.17-1.78-1.55.44-1.11,2.72-1,2.72.17,0,.44-.44,1.05-.94,1.39ZM66.28,47.08c-1.33.22-2.11-1-1.55-2.44.17-.5.83-.78,1.55-.67.94.11,1.28.56,1.28,1.55s-.33,1.44-1.28,1.55ZM75.49,15.27c1.44-1,2.66-1.78,2.83-1.67.11.11,0,1.61-.22,3.33-.17,1.67-.39,3.05-.44,3.05s-.89.22-1.83.5c-1.67.44-1.78.39-2.33-1.44-.56-1.83-.5-1.94,2-3.77ZM65.11,24.71c.33-.28,6.72-2.33,7.77-2.44.17-.06.72,1.44,1.22,3.28.56,1.83.94,3.83.94,4.39,0,1.39-2.78,3.55-6.55,5l-2.94,1.17-.56-1.55c-.61-1.5-.5-9.22.11-9.83ZM61.83,25.71c1.39-1.72,1.83-.67,1.89,4.83.06,5-.28,6.44-1.11,5.11-.72-1.17-1.33-9.27-.78-9.94ZM62.83,37.75c.5,0,1.17.28,1.55.67,1.89,1.89-.33,5-2.66,3.78-1.94-1.06-1.11-4.44,1.11-4.44ZM62.67,52.19c.11,1.11-.06,2.61-.39,3.33l-.61,1.39.33-1.39c.11-.78.33-2.28.39-3.33l.06-1.94.22,1.94ZM61.61,57.41c.11.11-.22,1-.72,1.94-1.17,2.39-1.61,2.16-.44-.22.5-1.06,1-1.83,1.17-1.72ZM25.63,4.94c-.5-.94-.44-1.39.33-2.22.94-1.06,1.05-1.06,1.72-.17.39.56.72,1.28.72,1.61,0,.28-.5.89-1.11,1.22-.94.61-1.17.56-1.67-.44ZM5.65,30.81c-.28-.17-.56-.56-.56-.89,0-.28.28-.5.56-.5.33,0,.56.39.56.89,0,.44-.22.67-.56.5ZM6.15,28.65c-1,.56-.06-3.05,1.44-5.61.72-1.22,2-2.89,2.89-3.72,1.61-1.5,15.16-10.94,15.77-10.99.17,0,.56.56.89,1.22.33.72,2.44,3.83,4.72,6.94,2.28,3.05,4.72,6.94,5.44,8.55,1.28,3.05,1.72,7.88.78,8.77-.28.33-.5-.83-.56-3.16,0-2.89-.33-4.33-1.44-6.5-1.55-3-9.77-14.43-10.33-14.43s-10.55,6.77-13.38,9.05c-2.78,2.28-5.61,6.38-5.61,8.22,0,.72-.28,1.44-.61,1.67ZM38.13,36.14c-.56.83-1.39.56-1.06-.33.22-.44.56-.67.83-.5.28.17.39.56.22.83ZM29.08,17.99c-3.22-3.94-4.5-4.27-8.5-2.05-5.39,2.89-10.83,9.49-12.71,15.43-.39,1.22-.83,1.89-1,1.5-.11-.39.67-2.55,1.72-4.77,2.33-4.89,8.05-11.05,12.33-13.27,3.44-1.78,4.16-1.83,6.11-.28,2.05,1.61,5.5,7.05,6.94,10.88,1.39,3.61,2.5,11.71,1.78,12.44-.33.33-.61-1.44-.78-4.39-.39-6.05-2.22-10.94-5.88-15.49ZM26.86,68.18l-.28,5.16-1.83-1.78c-1.78-1.72-1.89-2.05-1.89-5.66,0-12.6,11.16-27.82,25.82-35.2,4.05-2.05,10.1-4.55,11.16-4.61.39,0,.72,1.61.94,4,.17,2.22.39,4.44.5,4.89.11.56-.67.89-3.16,1.22-1.83.22-5.22,1.05-7.55,1.83-14.21,4.77-22.93,15.82-23.71,30.15ZM58.17,39.53c.39,1.33-1.05,2.78-2.33,2.28-.78-.28-1.05-2.44-.39-3.11.78-.83,2.33-.33,2.72.83ZM43.35,45.69c-.78-.78.06-2.5,1.11-2.28.5.11.94.61,1.05,1.17.22,1.11-1.39,1.89-2.16,1.11ZM44.57,58.85c-.33,1.78-.44,1.83-.72.61-.22-.72-.06-1.61.28-2,.89-.94.94-.89.44,1.39ZM54.12,45.53c.33,0-.5.72-1.89,1.55-2.33,1.5-4.33,3.94-6.27,7.61-.44.89-.83,1.39-.89,1.11-.06-2.33,6.94-10.27,9.05-10.27ZM46.57,41.64c-.39,0-.33-.22.17-.56,1.06-.67,1.28-.67.83,0-.17.28-.67.56-1,.56ZM49.67,40.36c.94-.33,2.05.17,2.05.94,0,1.22-1,2.16-1.89,1.83-1.05-.39-1.17-2.39-.17-2.78ZM39.29,46.14c-.72.33-.56,0,.5-.83,1.89-1.61,2.39-1.83,1.39-.56-.44.44-1.28,1.11-1.89,1.39ZM39.24,49.97c-1,0-1.55-.94-1.17-1.94.33-1,1-1.05,1.83-.22.78.78.33,2.16-.67,2.16ZM34.96,50.86c-.39.28-.44.11-.17-.39,1.17-2.05,2.44-3.05,1.39-1.11-.28.61-.83,1.28-1.22,1.5ZM35.35,53.3c0,.44-.44.89-.94,1-.72.11-1-.17-1-1s.28-1.11,1-1c.5.11.94.56.94,1ZM31.96,56.63c-.89,0-.94-.11-.39-1.5.39-.94.44-.94.61,0,.11.5.44.78.78.61.39-.22.44-.11.22.22-.22.39-.78.67-1.22.67ZM33.41,64.4c.33.61.44,1.11.33,1.11-.17,0-.56-.5-.89-1.11-.33-.61-.44-1.11-.33-1.11.17,0,.56.5.89,1.11ZM32.02,58.91c0,.39-.44.83-.94.94-1,.17-1.39-1-.61-1.78.56-.56,1.55-.06,1.55.83ZM29.58,62.02c-.67,1.11-.78.78-.28-.67.22-.5.5-.78.61-.61.17.11,0,.72-.33,1.28ZM29.46,76.62c-.22,0-.72-.94-1-2.11-1.11-3.83-.61-4,.67-.22.44,1.28.61,2.33.33,2.33ZM29.24,70.51c-.89,0-1.11-.67-.44-1.28.61-.67,1.28-.44,1.28.44,0,.44-.39.83-.83.83ZM29.08,64.74c-.11-.56.17-.89.72-.89s.83.39.72.94c-.22,1.22-1.22,1.11-1.44-.06ZM39.35,72.29c-1.39-1.33-2.33-1.78-3.83-1.78-2.05,0-3.78,1.11-3.78,2.5,0,1,1.67,2.61,2.44,2.33.78-.28,1.17-2.61.39-2.61-.33,0-.61.22-.61.56,0,.28-.22.56-.56.56-.72,0-.72-1.5,0-1.94,1.06-.67,2.78.33,2.78,1.61,0,2.44-2.61,3.39-4.55,1.61-2.44-2.16.06-5.72,4-5.72,1.55,0,2.55.44,3.83,1.61.94.89,1.72,1.94,1.72,2.33s-.83-.06-1.83-1.05ZM33.96,66.29c0-.44.44-.17,1.17.72.72.89.67.94-.17.22-.56-.39-1-.83-1-.94ZM50.17,75.51c-2.55-.61-5.05-1.11-5.55-1.11-1,0-7.38-6.66-9.77-10.27-1.94-2.78-1.94-5.94-.06-7.77,1.61-1.67,2.22-1.72,4.55-.28,2.61,1.55,4,4.72,4.22,9.38.06,2.16.44,4.22.83,4.61.5.5.67-.28.67-3.83,0-7.94,2.78-14.27,7.88-17.93,2.72-2,5.33-2.16,6.88-.5,1.61,1.78,1.33,6.77-.5,10.66-1.83,3.61-6.39,8.22-10.77,10.83-2.94,1.72-3.05,1.83-1.28,1.5,2.17-.44,10.83-.39,12.38.06,2.16.67.72,1.05-2.78.72-4.5-.39-6.55.28-2.5.83,1.55.22,3,.61,3.17.89.44.72.22.72-4.72-.28-2.28-.44-5.11-.94-6.22-1.11-1.55-.22-2.44-.83-3.61-2.39-.83-1.11-2.72-3.39-4.28-4.94-1.5-1.61-2.61-3.11-2.39-3.28.22-.22,1.55.83,2.94,2.33,2.78,2.94,2.5,1.78-.67-2.72-1.05-1.44-1.89-2.78-1.89-3,0-1,3.05,2.66,4.5,5.39,1.28,2.33,1.55,2.66,1.33,1.39-.56-2.72-2.66-6.39-4.28-7.38-1.39-.83-1.55-.83-2.61.17-2.33,2.05-1.5,3.89,4.77,10.49l4.05,4.22,6.16,1.39c7.27,1.61,8.16,1.67,9.83.5,1.61-1.11,1.55-2.78-.17-3.89-1.17-.72-2.28-.89-5.55-.61-2.28.17-4.16.22-4.16.06,0-.72,3.72-1.89,6.11-1.89,5.33,0,8.05,2.89,5.72,6-2.33,3.16-4.94,3.55-12.27,1.78ZM59.5,61.85c0,.11-.44.56-.94.94-.89.72-.94.67-.22-.22.72-.89,1.17-1.17,1.17-.72ZM57.34,64.57c-.33.44-.44.94-.22,1.11.17.22.06.39-.28.39-.28,0-1.05.17-1.61.39-.56.22-.33-.22.67-1.11,1.83-1.61,2.44-1.94,1.44-.78ZM63.28,77.01c-.22,1.22-1.22,1.11-1.44-.06-.11-.56.17-.89.72-.89s.83.39.72.94ZM56.89,78.12c-.56-.17-.11-.28.94-.28s1.5.11,1,.28c-.56.11-1.44.11-1.94,0ZM58.84,81.23c.11.56-.17.94-.67.94-.56,0-.89-.5-.89-1.17,0-1.33,1.28-1.17,1.55.22ZM53.84,78.12c-.39-.17-.11-.28.67-.28s1.06.11.72.28c-.39.11-1.06.11-1.39,0ZM54.78,83.78c.39.67-.67,1.33-1.39.89-.61-.39-.22-1.39.56-1.39.28,0,.61.22.83.5ZM55.61,89.06c-1.39-.22-2.72-.5-2.94-.61-.28-.17,1.11-1.17,3-2.28,4.44-2.66,10.38-8.99,12.6-13.55,2.72-5.5,3.61-10.27,3.22-16.82-.33-5.89-1.39-10.77-3.17-14.38-.56-1.22-1-2.22-.89-2.28.06,0,1.61-.61,3.44-1.33,1.83-.72,3.55-1.55,3.89-1.78,1.22-1.11,1.83-.28,2.55,3.22,1.22,6.16,1,18.38-.5,23.93-2.89,10.83-8.94,19.99-16.21,24.65-2.16,1.39-2.83,1.55-5,1.22ZM69.61,62.18c0-1.05.11-1.5.28-1,.11.56.11,1.44,0,1.94-.17.56-.28.11-.28-.94ZM66.89,99.22l-.56-2.83c-.33-1.55-.44-3-.28-3.22.22-.17,2.78-1.28,5.66-2.39,8.94-3.5,14.1-6.27,17.66-9.49,4.11-3.72,6.55-8.11,6-10.99-.44-2.39-1.44-3.17-4.39-3.5-5.89-.67-14.32,6.27-20.93,17.27-5.27,8.72-4.72,8.22-8.16,7.11-1.61-.5-2.94-1.06-2.94-1.22s1.06-.72,2.28-1.28c4.89-2.28,11.66-11.1,14.93-19.38,1.94-5.11,3.33-6.38,8.88-8.44,5.39-2,13.77-2.33,17.16-.72,1.33.61,1.44,1,1.61,4.44.17,4.33-.83,8.44-3.22,13.1-2.11,4.16-5.33,7.83-6.83,7.83-2.83,0-10.66,2.33-15.21,4.55-3.55,1.72-5.77,3.28-8.27,5.77l-3.39,3.39ZM67.72,89.55c.56-.83,2.72-4.05,4.72-7.16,7.22-10.99,17.05-17.43,20.93-13.55,2.22,2.22.83,5.89-4.16,10.83-3.55,3.55-8.27,6.27-15.55,9.11-2.44.94-4.89,2-5.44,2.33-1.55.83-1.72.22-.5-1.55ZM69.22,107.71c-.44.89-.83,2-.83,2.5s-.22.72-.56.56c-.78-.5-.72-.83.56-2.94,1.39-2.22,2-2.33.83-.11ZM78.54,116.04c-.28,0-.5-1.05-.56-2.28-.17-3-1.89-4.94-4.44-4.94-1.44,0-1.89.28-2.16,1.33-.17.78-.17,1.67.06,1.94.56.94,2.5.72,2.5-.28,0-.56-.33-.78-.83-.56-.5.17-.83,0-.83-.5,0-1.11,2.16-1.06,2.61.06.83,2.22-1.94,3.78-3.78,2.11-3.61-3.28,2.17-7.16,5.94-3.94,1.17,1,1.55,1.94,1.78,4.16.11,1.61,0,2.89-.28,2.89ZM70.88,104.93c.44-.72,1.22-.72,1.67.06.56.83-.06,1.28-1.11.83-.5-.17-.72-.56-.56-.89ZM77.16,99.38c-1.22.61-1.22.56-.22-.22,1.17-.94,1.44-1.06,1.44-.61,0,.11-.56.5-1.22.83ZM78.21,104.49c-.17.44-.33.28-.33-.33-.06-.61.11-.94.28-.72.17.17.22.67.06,1.05ZM76.32,101.88c.06.28-.33.61-.83.72-.61.11-1-.17-1-.72,0-.94,1.67-1,1.83,0ZM69.38,104.16c-.94,1.33-1.83,2.44-1.94,2.44s-.17-1.39-.17-3.05c0-2.94.17-3.28,2.61-5.89,4.33-4.66,11.66-8.49,19.38-10.1,5.05-1.11,16.1-1.17,21.04-.11,3.33.72,11.99,3.33,13.16,3.94.17.11-.72,1.83-2.05,3.78-1.28,1.94-2.5,3.89-2.61,4.27-.17.56-.67.44-1.89-.44-7.27-5.11-18.04-7.88-26.32-6.77-7.83,1.11-17.16,6.33-21.21,11.94ZM111.52,117.2c-.39-.39-.33-.83.17-1.44.94-1.17,2.5-.83,2.5.56,0,1.22-1.72,1.83-2.66.89ZM113.13,119.37c.11,0-.06.5-.44,1.11-.39.56-.78.94-.94.83-.22-.22,1-1.94,1.39-1.94ZM110.36,100.94c-.39-.67-.33-1.17.17-1.78,1-1.22,2.11-1.11,2.83.17.39.83.33,1.33-.33,2-1.05,1-1.83.89-2.66-.39ZM114.13,109.6c.17-.5.83-.78,1.55-.67.94.11,1.28.56,1.28,1.55s-.33,1.44-1.28,1.55c-1.33.22-2.11-1-1.55-2.44ZM115.74,106.27c-1.39-.89-1.61-3.05-.39-3.94,1.22-.89,1.33-.89,2.61.11,2.11,1.55-.06,5.22-2.22,3.83ZM103.2,125.25c.67-.61,2.11-.11,2.11.78,0,.44-.56.89-1.22,1-1.22.17-1.78-.89-.89-1.78ZM103.36,129.09c0,.11-.56.55-1.22.89-1.17.61-1.22.61-.5-.22.72-.89,1.72-1.28,1.72-.67ZM99.48,118.81c-.44,0,.67-.61,2.5-1.39,1.78-.72,4.16-2.22,5.22-3.33,2.11-2.05,2.89-2.55,1.67-1-1.94,2.44-7.33,5.72-9.38,5.72ZM99.75,129.92c0,.44-.44.89-.94,1-.72.11-1-.17-1-1s.28-1.11,1-1c.5.11.94.55.94,1ZM107.19,125.87c.78-.83,1.61-1.5,1.83-1.5.28,0,.17.33-.22.67-.39.39-1.22,1.11-1.83,1.55-.83.55-.78.39.22-.72ZM108.03,122.59c-1.05-1.05-.61-2.11.89-2.11.56,0,1.22.28,1.44.61.17.33-.06,1-.56,1.5-.83.83-.94.83-1.78,0ZM102.25,102.27l3.61.06-4.16.39c-2.39.17-5.33.89-6.94,1.61-1.5.67-2.5.94-2.16.61,1.39-1.39,6.16-2.72,9.66-2.66ZM92.09,94.72c.67-.61,2.11-.11,2.11.78,0,.44-.56.89-1.22,1-1.22.17-1.78-.89-.89-1.78ZM96.42,93.44c1.22-.06,1.78.06,1.28.22-.56.11-1.55.11-2.22,0-.72-.11-.28-.22.94-.22ZM98.09,96.61c-.39-.61.67-2.22,1.39-2.22.22,0,.72.39,1.11.83.83,1,.28,1.94-1.11,1.94-.56,0-1.22-.28-1.39-.56ZM102.14,94.5c-.33-.33,0-.39,1.06-.22,1.17.28,1.28.39.5.56-.56.11-1.22,0-1.55-.33ZM104.92,98.38c-.89-.89-.11-2.33,1.22-2.33.72,0,1.11.39,1.11,1.11,0,1.33-1.44,2.11-2.33,1.22ZM89.82,106.21c.22-.78.61-1.11,1.11-.89.72.28.67.44-.11,1.33-1.17,1.28-1.39,1.17-1-.44ZM88.82,94.22c-.39-.17-.11-.28.67-.28s1.05.11.72.28c-.39.11-1.05.11-1.39,0ZM87.43,95.27c.5.56-.22,1.89-1,1.89-.94,0-1.55-.94-1.11-1.67.39-.61,1.55-.72,2.11-.22ZM83.76,96.33q0,.94-1.22.5c-.72-.28-.78-.44-.17-.83,1.05-.67,1.39-.61,1.39.33ZM79.27,97.61c.5-.78,1.89-.5,1.89.33,0,1.17-1.17,1.72-1.67.83-.28-.39-.33-.94-.22-1.17ZM82.1,120.48l-2.39-3.05.06-7.5c0-6.44.17-7.72,1.06-9.05,1.78-2.61,4.39-3.28,6.38-1.67,2.72,2.22,2,7.72-1.61,12.05-3.22,3.89-2.78,5.05.56,1.33,4.66-5.27,11.27-8.77,16.49-8.77,2.89,0,6.22,1.55,6.61,3.11.89,3.5-3.39,7.94-9.38,9.77-3.89,1.17-3.61,1.17-15.49.28-.89-.06-1.55-.39-1.61-.67-.28-2.78-.11-13.05.17-13.05s.44,1.67.5,3.72c0,4.61.72,3.33,1.33-2.39.33-2.61.56-3.44.83-2.72.39,1.05-.06,5.27-.83,8.22-.17.67.17.39.78-.72,2.33-4.16,2-9.44-.67-9.44-.72,0-1.78.5-2.39,1.17-.94,1.05-1.06,1.94-.89,8.22.17,6.83.22,7.05,1.89,9.49,6.22,8.88,9.33,11.44,11.44,9.33,1.83-1.83-.33-5.38-4.5-7.44l-2.89-1.39,1.94,1.55c2.94,2.33,5,4.61,5,5.55,0,.5-.56.11-1.44-.89-.78-.94-2.44-2.5-3.72-3.5l-2.33-1.83,2.11,2.72c1.11,1.5,2.05,3,2.05,3.33-.06.33-.72-.28-1.55-1.33-.83-1.05-2.55-3.11-3.83-4.5-2.83-3-3-3.61-.72-2.44.89.44,2.39.83,3.33.83,4,0,8.88,4.11,8.88,7.5s-4,4.72-7.55,2.55c-1.67-1-2.44-1.83-7.61-8.38ZM96.81,119.43c-.72.28-1.11.78-.89,1.11.17.33-.28.17-1.11-.33-.78-.56-1.44-1.06-1.44-1.17s1.05-.22,2.39-.17c2,0,2.17.11,1.06.56ZM96.59,132.2c-1.17.78-2.11.56-1.78-.33q.39-.94,1.61-.5c.72.28.78.44.17.83ZM93.92,132.2c0,.67-1.61,1.33-2.05.89-.17-.22-.17-.72,0-1.17.33-.89,2.05-.61,2.05.28ZM87.6,132.2c.39.67-.83,1.72-1.55,1.28-.22-.17-.44-.67-.44-1.11,0-.94,1.44-1.05,2-.17ZM82.27,131.81c0,.44-.22.94-.5,1.17-.67.39-1.33-.67-.89-1.39.5-.83,1.39-.67,1.39.22ZM75.05,131.03c0-.22.83,0,1.89.5,1,.5,1.78,1,1.67,1.11-.28.33-3.55-1.11-3.55-1.61ZM79.49,136.58c-1.17-1.39-2.05-2.55-2-2.67.11-.05.89.11,1.78.5,2.55.94,11.66.83,15.77-.22,7.72-2.05,13.94-6.33,18.6-12.88,2.66-3.66,6-10.49,6.61-13.38l.39-1.67,3.72,1.28c2.05.67,4.16,1.28,4.72,1.28,1.33,0,1.22.33-1.22,4.55-9.66,16.49-25.43,26.48-40.97,25.87l-5.27-.17-2.11-2.5ZM83.15,149.35c.89-1.67,1.78-2.72,2.16-2.55.39.11,4.28,1.39,8.66,2.83,6.61,2.17,8.94,2.66,13.55,2.89,6.72.39,11.22-.67,13.66-3.16,3.39-3.39,1.22-7.44-4.83-9.22-5.55-1.61-12.66-.89-22.37,2.28-4.39,1.44-8.27,2.72-8.66,2.83-.39.17-1.28-.89-2.16-2.55l-1.5-2.89,1.55.33c3.94.78,6.77.89,9.05.39,6.55-1.33,10.1-2.55,14.71-5.05,2.78-1.44,5.5-2.66,6.11-2.72.67,0,2.61.33,4.39.78,5.11,1.33,10.44,4.44,13.88,8.05,1.83,1.89,3.11,3.78,3.11,4.44s-1.33,2.61-3.16,4.5c-3.61,3.83-10.05,7.33-15.27,8.33l-3.16.67-5.44-2.83c-5.05-2.55-8.88-3.89-15.16-5.22-2.28-.44-5.11-.33-9.05.44l-1.55.33,1.5-2.89ZM86.71,146.02c0-.33,6.5-2.39,13.32-4.28,6.27-1.72,14.55-1.55,18.21.33,4.44,2.28,4.44,5.61,0,7.88-2.89,1.5-10.44,2.05-14.88,1.11-3.83-.78-16.66-4.66-16.66-5.05ZM77.88,159.96c-.78.28-1.72.83-2.11,1.17-.44.33-.72.33-.72.06,0-.67,2.11-1.78,3.33-1.78.44,0,.22.28-.5.56ZM80.88,160.46c-.44-.72.22-1.78.89-1.39.28.22.5.72.5,1.17,0,.89-.89,1.05-1.39.22ZM78.16,158.01c-.83.33-.61-.17.83-1.94,1.06-1.33,2.39-2.61,3-2.89,2.17-.89,10.49-.56,14.94.61,12.44,3.27,23.49,12.16,30.92,24.87,2.44,4.22,2.55,4.55,1.22,4.55-.55,0-2.66.61-4.72,1.28l-3.72,1.28-.39-1.67c-.61-2.89-3.94-9.66-6.55-13.38-5.66-7.88-12.66-12.05-22.65-13.55-3.94-.61-10.33-.22-12.88.83ZM111.41,174.89c.56-.94,2.72-.44,2.94.72.11.5-.22,1.11-.72,1.28-1.11.44-2.78-1.05-2.22-2ZM111.86,193.66c-1.44-.28-2.17-1.89-1.33-2.89.94-1.11,1.44-1.11,2.5,0,1.06,1.06.22,3.17-1.17,2.89ZM111.69,170.84c0-.33.06-.44.17-.33.06.11.5.72.94,1.33q.78,1.05-.11.33c-.56-.39-1-1-1-1.33ZM115.69,180c.94.11,1.28.56,1.28,1.55s-.33,1.44-1.28,1.55c-.72.11-1.39-.17-1.55-.67-.56-1.44.22-2.66,1.55-2.44ZM116.69,185.44c.5,0,1.17.28,1.55.67,1.83,1.83-.44,5-2.66,3.77-1.94-1.05-1.11-4.44,1.11-4.44ZM103.09,174.61c2.89,1.39,4.44,2.55,5.83,4.44.44.61-.22.17-1.44-1-1.28-1.17-3.72-2.72-5.55-3.44-1.78-.78-2.89-1.39-2.44-1.39s2.11.61,3.61,1.39ZM97.81,162.62c-.28-.39-.33-.94-.17-1.22.39-.67,1.94-.28,2.28.56.28,1-1.55,1.61-2.11.67ZM101.81,162.45q-.89-1,.33-.33c.72.33,1.17.78,1,1-.22.17-.78-.11-1.33-.67ZM104.03,165.01c.67.11,1.28.56,1.28,1,0,1.22-2.17,1.05-2.39-.17-.17-.83.06-1,1.11-.83ZM106.97,165.45c.61.44,1.44,1.17,1.83,1.5.39.39.5.72.22.72-.22,0-1.05-.67-1.83-1.5-1-1.11-1.06-1.28-.22-.72ZM107.53,171c-.39-.61.67-2.22,1.39-2.22.22,0,.72.39,1.11.83.83,1,.28,1.94-1.11,1.94-.56,0-1.22-.28-1.39-.55ZM96.81,172.61c1.05.44.89.56-1.22.56l-2.5.05,1.39-1.11c1.55-1.22,1.89-1.33,1.39-.56-.17.33.22.78.94,1.06ZM96.59,160.51c-1.06.67-1.39.61-1.78-.33-.33-.89.17-1.05,1.61-.5.72.28.78.44.17.83ZM93.7,159.4c.39.67-.83,1.72-1.55,1.28-.22-.17-.44-.67-.44-1.11,0-.94,1.44-1.06,2-.17ZM87.82,159.4c0,.67-1.61,1.33-2.05.89-.17-.22-.17-.72,0-1.17.33-.89,2.05-.61,2.05.28ZM79.66,180.11c.22-6.11-.06-5.55,6.61-13.77,3.22-3.94,7.05-5.27,9.77-3.33,3.83,2.67-1.83,10.22-7.66,10.22-.94,0-2.44.39-3.33.83-2.28,1.17-2.11.56.72-2.44,1.28-1.39,3-3.44,3.83-4.5.83-1.06,1.5-1.67,1.55-1.33,0,.33-.94,1.83-2.05,3.33l-2.11,2.72,2.33-1.83c1.28-1,2.94-2.55,3.72-3.5.89-1,1.44-1.39,1.44-.89,0,.94-2.05,3.22-5,5.55l-1.94,1.55,2.89-1.39c4.16-2.05,6.33-5.61,4.5-7.44-2.11-2.11-5.22.44-11.44,9.33-1.67,2.44-1.72,2.67-1.89,9.5-.17,6.27-.06,7.16.89,8.22.61.67,1.67,1.17,2.39,1.17,2.66,0,3-5.27.67-9.44-.61-1.11-.94-1.39-.78-.72.78,2.94,1.22,7.16.83,8.22-.28.72-.5-.11-.83-2.72-.61-5.72-1.33-7-1.33-2.44-.06,2.11-.22,3.77-.5,3.77s-.44-10.27-.17-13.05c.06-.33.72-.61,1.61-.67,11.88-.89,11.6-.89,15.49.28,6,1.83,10.27,6.27,9.38,9.77-.39,1.56-3.72,3.11-6.61,3.11-5.22,0-11.83-3.5-16.49-8.77-3.33-3.72-3.78-2.55-.56,1.33,2.5,3.05,3.61,6.16,3.11,9.11-.94,5.89-8.05,4.39-8.94-1.94-.17-1.22-.22-4.72-.11-7.83ZM102.42,189.77c-3.33.11-9.16-1.5-9.88-2.67-.17-.28.89,0,2.33.67,1.5.67,4.5,1.39,6.83,1.55l4.16.39-3.44.06ZM104.47,197.32c0,.11-.61.33-1.39.44-.72.17-1.22.06-1.06-.17.28-.5,2.44-.72,2.44-.28ZM100.92,195.49c.17.33-.06,1-.56,1.5-.83.83-.94.83-1.78,0-1.05-1.05-.61-2.11.89-2.11.56,0,1.22.28,1.44.61ZM97.7,198.6c-.56.11-1.55.11-2.22,0-.72-.11-.28-.22.94-.22,1.22-.06,1.78.06,1.28.22ZM94.2,196.54c0,1.22-2.16,1.05-2.39-.17-.17-.83.06-1,1.11-.83.67.11,1.28.56,1.28,1ZM107.14,194.77c.17.89-.11,1.22-.94,1.22-1.33,0-1.94-.83-1.5-2,.5-1.28,2.22-.72,2.44.78ZM89.93,186.11c-.67-1.67-.44-1.94.67-.94.89.78.94,1.11.44,1.44-.44.28-.89.11-1.11-.5ZM90.2,198.04c-.39.11-1.05.11-1.39,0-.39-.17-.11-.28.67-.28s1.05.11.72.28ZM87.48,195.71c.17.5-.06,1-.56,1.22-1.06.39-2.17-.61-1.67-1.44.56-.89,1.83-.72,2.22.22ZM83.76,195.71q0,.94-1.22.5c-.72-.28-.78-.44-.17-.83,1.05-.67,1.39-.61,1.39.33ZM80.99,193.49c.39,1.11-.11,1.61-1.17,1.22-.5-.22-.72-.72-.56-1.22.44-1.06,1.28-1.06,1.72,0ZM71.11,179.11c1.83-1.66,4.61-.11,3.78,2.11-.44,1.11-2.61,1.17-2.61.06,0-.5.33-.67.83-.5.5.22.83,0,.83-.55,0-1-1.94-1.22-2.5-.28-.22.28-.22,1.16-.06,1.94.28,1.06.72,1.33,2.16,1.33,2.55,0,4.28-1.94,4.44-4.94.06-1.22.28-2.28.56-2.28s.39,1.28.28,2.89c-.33,3.39-2.22,5.44-5,5.44-3.33,0-4.94-3.22-2.72-5.22ZM77.27,192.66c.61.33,1.11.72,1.11.89,0,.11-.5,0-1.11-.33-.61-.33-1.11-.72-1.11-.89,0-.11.5,0,1.11.33ZM75.49,190.88c-.61.11-1-.17-1-.72,0-.94,1.67-1,1.83,0,.06.28-.33.61-.83.72ZM77.88,187.99c-.06-.61.11-.94.28-.72.17.17.22.67.06,1.05-.17.44-.33.28-.33-.33ZM72.83,186.49c0,.78-1,1.28-1.67.89-.33-.22-.44-.61-.28-.89.44-.67,1.94-.67,1.94,0ZM67.61,181.44c.28-.44.56-.17.83.72.17.78.67,2,1.06,2.66.44.83.44,1.17.06.94-1-.67-2.33-3.66-1.94-4.33ZM67.44,185.44c.11,0,1,1.11,1.94,2.44,4.05,5.61,13.38,10.83,21.21,11.94,8.27,1.11,19.04-1.67,26.32-6.77,1.22-.89,1.72-1,1.89-.44.11.39,1.33,2.33,2.61,4.27,1.33,1.94,2.22,3.66,2.05,3.77-1.22.72-11.6,3.72-14.82,4.27-4.83.83-17.21.33-21.65-.89-5.89-1.61-12.44-5.22-16.21-8.88q-3.5-3.39-3.5-6.55c0-1.72.06-3.16.17-3.16ZM61.89,200.87c3.44-1.11,2.89-1.61,8.16,7.11,6.61,10.99,15.05,17.93,20.93,17.27,2.94-.33,3.94-1.11,4.39-3.5.56-2.89-1.89-7.27-6-10.99-3.55-3.22-8.72-6-17.66-9.49-2.89-1.11-5.44-2.22-5.66-2.39-.17-.22-.06-1.67.28-3.22l.56-2.83,3.39,3.39c2.5,2.5,4.72,4.05,8.27,5.77,4.55,2.22,12.38,4.55,15.21,4.55,1.5,0,4.72,3.66,6.83,7.83,2.39,4.66,3.39,8.77,3.22,13.1-.17,3.55-.28,3.83-1.83,4.61-2.66,1.28-11.38,1-15.82-.5-6.55-2.28-7.94-3.5-9.99-8.83-3.28-8.27-10.05-17.1-14.93-19.38-1.22-.56-2.28-1.11-2.28-1.28s1.33-.72,2.94-1.22ZM66.72,200.71c0-.44.83-.33,1.44.17.28.28,2.39,1.17,4.66,2.05,7.38,2.77,12.82,5.88,16.38,9.44,5,4.94,6.39,8.61,4.16,10.83-3.89,3.89-13.71-2.55-20.93-13.55-2-3.11-4.11-6.27-4.66-7.11-.61-.83-1.05-1.67-1.05-1.83ZM55.06,203.04c2.72-.44,3.17-.39,5.61,1.17,7.22,4.66,13.27,13.82,16.16,24.65,1,3.72,1.22,6.16,1.22,12.38.06,7.27-.94,15.27-1.83,15.27-.22,0-1.67-.61-3.22-1.39-1.55-.72-3.5-1.5-4.27-1.72-.78-.17-1.44-.39-1.44-.44s.5-1.11,1.05-2.33c1.78-3.61,2.83-8.5,3.17-14.38.39-6.55-.5-11.33-3.22-16.82-2.28-4.55-8.16-10.88-12.66-13.55-3.5-2.05-3.55-2.33-.56-2.83ZM69.61,229.86c0-1.05.11-1.5.28-1,.11.55.11,1.44,0,1.94-.17.55-.28.11-.28-.94ZM63.39,215.2c0,.44-.39.78-.83.78-.83,0-1.17-1.17-.5-1.83.56-.5,1.33.11,1.33,1.06ZM57.84,213.87c1.06,0,1.5.11,1,.28-.56.11-1.44.11-1.94,0-.56-.17-.11-.28.94-.28ZM57.28,211.03c0-.67.33-1.17.89-1.17.5,0,.78.39.67.94-.28,1.39-1.55,1.55-1.55.22ZM54.5,213.87c.78,0,1.06.11.72.28-.39.11-1.06.11-1.39,0-.39-.17-.11-.28.67-.28ZM53.39,208.48c-.61-.39-.22-1.39.56-1.39.28,0,.61.22.83.5.39.67-.67,1.33-1.39.89ZM44.79,217.64c.61-.06,3-.5,5.27-1.11,4.94-1.22,8.11-1.33,9.94-.39.72.33,1.83,1.33,2.44,2.17,2.33,3.11-.39,6-5.72,6-2.39,0-6.11-1.17-6.11-1.89,0-.17,1.89-.11,4.16.05,3.28.28,4.39.11,5.55-.61,1.72-1.11,1.78-2.78.17-3.89-1.67-1.17-2.55-1.11-9.88.5-6.22,1.44-6.27,1.44-8.83,4.28-1.39,1.61-3.11,3.39-3.83,4-1.72,1.55-3.44,4.39-3.44,5.72,0,.61.5,1.56,1.17,2.11,1.05,1,1.22,1,2.61.17,1.61-1,3.72-4.66,4.28-7.38.22-1.28-.06-.94-1.33,1.39-1.44,2.72-4.5,6.38-4.5,5.38,0-.22.83-1.55,1.89-3,3.17-4.5,3.44-5.66.67-2.72-1.39,1.5-2.72,2.55-2.94,2.33-.22-.17.89-1.67,2.39-3.28,1.55-1.55,3.44-3.83,4.28-4.94,1.17-1.55,2.05-2.17,3.61-2.39,1.11-.17,3.94-.67,6.22-1.11,4.94-1,5.16-1,4.72-.28-.17.28-1.61.67-3.17.89-4.05.55-2,1.22,2.5.83,3.5-.33,4.94.06,2.78.72-1.55.44-10.22.5-12.38.06-1.78-.33-1.67-.22,1.28,1.5,7.38,4.33,12.21,11.05,12.27,17.1.06,5.61-3.28,7.27-7.88,3.89-5.11-3.66-7.88-9.99-7.88-17.93,0-3.55-.17-4.33-.67-3.83-.39.39-.78,2.44-.83,4.61-.22,4.66-1.61,7.83-4.22,9.38-2.33,1.44-2.94,1.39-4.55-.28-1.89-1.83-1.89-5,.06-7.77,2.61-3.89,8.77-10.27,9.94-10.27ZM58.84,229.91c-.56-.39-1-.83-1-.94,0-.44.44-.17,1.17.72.72.89.67.94-.17.22ZM56.45,227.08c-.94-.78-1.78-1.5-1.94-1.61-.17-.11.17-.06.72.11.56.22,1.33.39,1.61.39.33,0,.44.17.28.39-.22.17-.06.72.28,1.22.39.5-.06.28-.94-.5ZM58.39,251.68c0,1.22-.94,2.17-2,1.94-1.22-.22-1.78-2.61-.72-3.27.89-.5,2.72.39,2.72,1.33ZM45.07,236.13c.06-.22.44.28.89,1.22.5.89,1.55,2.66,2.39,3.83.78,1.22,2.55,2.89,3.89,3.78,2.66,1.67,2.72,2.11.11.78-2.55-1.39-7.33-7.66-7.27-9.61ZM51.45,249.9c.44,1.33-.5,2.28-1.78,1.78-.78-.28-1-1.94-.33-2.55.72-.78,1.78-.39,2.11.78ZM47.56,250.95c.17.33-.06.39-.5.22-1-.39-1.17-.78-.39-.78.33,0,.72.22.89.56ZM45.34,247.34c0,.61-.39,1.17-.89,1.28-1,.17-1.83-1.28-1.28-2.17.56-.94,2.17-.28,2.17.89ZM43.79,232.69c.39-1.5.44-1.39.89.94.33,1.61.28,1.72-.44,1.05-.44-.44-.61-1.33-.44-2ZM41.24,247.46c.56.67.28.61-1-.33-1-.67-1.83-1.33-1.83-1.5,0-.5,2.05.83,2.83,1.83ZM38.29,244.4c-.78-.78-.17-2.33.89-2.33.39,0,.89.33,1.06.78.44,1.11-1.11,2.39-1.94,1.55ZM35.02,241.18c.33.22.89.89,1.22,1.55.44.83.44,1,0,.78-.33-.22-.89-.89-1.22-1.55-.44-.83-.44-1,0-.78ZM34.41,239.74c-.72.11-1-.17-1-1s.28-1.11,1-1c.5.11.94.56.94,1s-.44.89-.94,1ZM33.18,236.07c.22.39.17.44-.22.22-.44-.22-.67,0-.67.61,0,.83-.11.89-.56.17-.28-.44-.56-1-.56-1.28,0-.61,1.55-.44,2,.28ZM30.19,233.02c-.17-.78.06-1,.83-.83.56.11,1,.56,1,1,0,1.22-1.61,1-1.83-.17ZM32.52,228.75c-.11,0,0-.5.33-1.11.33-.61.72-1.11.89-1.11.11,0,0,.5-.33,1.11-.33.61-.72,1.11-.89,1.11ZM34.46,225.25c.72-.89,1.17-1.17,1.17-.72,0,.11-.44.55-.94.94-.89.72-.94.67-.22-.22ZM31.57,216.98c1-1.17,2.94-1.33,3.94-.33,1.06,1.05.78,3.11-.44,3.5-.61.17-1.33.17-1.67,0-.72-.44-.72-1.94,0-1.94.33,0,.56.22.56.56,0,.28.28.56.61.56.78,0,.39-2.33-.39-2.61-.78-.28-2.44,1.33-2.44,2.33,0,1.39,1.72,2.5,3.78,2.5,1.5,0,2.44-.44,3.83-1.78,1-1,1.83-1.44,1.83-1.06s-.78,1.44-1.72,2.33c-4,3.78-11.49-.05-7.88-4.05ZM30.63,227.41c0,.44-.39.78-.83.78-.83,0-1.17-1.17-.5-1.83.55-.5,1.33.11,1.33,1.05ZM30.08,231.24c0,.28-.28.17-.56-.28-.28-.44-.55-1.11-.55-1.39,0-.33.28-.17.55.28.28.44.56,1.05.56,1.39ZM28.52,222.19c-.11-.39.17-.67.67-.67s.89.39.89.89c0,.94-1.22.78-1.55-.22ZM29.52,215.42c.39,0,.39.33.06.94-.33.55-.72,1.72-.89,2.61-.17.83-.44,1.44-.61,1.28-.44-.44.89-4.83,1.44-4.83ZM22.86,226.19c0-3.5.11-3.89,1.83-5.66l1.78-1.83.33,5.16c.22,3.39.89,6.61,1.83,9.33,1.72,4.94,5.55,10.83,8.99,13.6,5.77,4.72,13.44,8.11,20.49,9.05,2.5.33,3.28.67,3.16,1.22-.11.44-.33,2.67-.5,4.83-.17,2.22-.56,4.05-.78,4.05-.94,0-7.55-2.66-11.33-4.61-14.66-7.38-25.82-22.6-25.82-35.15ZM38.13,255.9c.17.28.06.67-.22.83-.28.17-.61-.05-.83-.5-.33-.89.5-1.17,1.06-.33ZM7.87,260.67c1.89,5.94,7.33,12.55,12.71,15.43,4,2.22,5.27,1.89,8.5-2.05,3.66-4.55,5.5-9.44,5.88-15.49.17-2.94.44-4.72.78-4.39.28.28.28,2.28-.06,4.94-.33,2.44-1.06,5.83-1.72,7.5-2.16,5.77-6.99,12.1-9.27,12.1-1.89,0-6.88-3.28-10.33-6.77-3.78-3.83-8.05-11.1-7.49-12.77.17-.39.61.28,1,1.5ZM6.76,265.06c0,1.83,2.83,5.94,5.61,8.22,2.83,2.28,12.83,9.05,13.38,9.05s8.77-11.44,10.33-14.43c1.11-2.17,1.44-3.61,1.44-6.5.06-2.33.28-3.5.56-3.16.33.28.5,1.67.5,3.16-.06,3.72-1.89,7.66-6.72,14.16-2.28,3.11-4.39,6.22-4.72,6.94-.33.67-.83,1.16-1.17,1.05-1.22-.5-13.99-9.38-15.49-10.83-.89-.83-2.16-2.5-2.89-3.72-1.5-2.55-2.44-6.16-1.44-5.61.33.22.61.94.61,1.66ZM5.42,261.45c.33-.61.44-.61.67,0,.11.39.06.83-.11,1-.56.56-1.06-.28-.56-1Z"/>
      <path class="cls-1" d="M0,237.86v3.01c.22-.33.47-.61.54-1.13.07-.67-.14-1.27-.54-1.88Z"/>
      <path class="cls-1" d="M27.3,4.16c0-.44-.22-.83-.56-.83-.28,0-.56.39-.56.83s.28.83.56.83c.33,0,.56-.39.56-.83Z"/>
      <path class="cls-1" d="M1.7,31.65c.28,0,.78.72,1.17,1.67.39.89.94,1.67,1.22,1.67s.39.22.22.5c-.17.28.06.61.5.83,1.06.39-.56-2.94-3.78-7.72-.25-.37-.7-.9-1.04-1.35v1.9c.48.61.81,1.14.93,1.51.22.56.56,1,.78,1Z"/>
      <path class="cls-1" d="M7.26,46.08c0-1.11-1.55-4.94-1.55-3.89-.06.17.33,1.39.72,2.78.61,1.78.83,2.11.83,1.11Z"/>
      <path class="cls-1" d="M75.77,19.65c.67-.17,1.28-.39,1.28-.44.11-.11.67-4.77.61-4.77-.06.06-.94.78-1.94,1.61-1.44,1.28-1.78,1.89-1.5,2.78.28.94.67,1.11,1.55.83Z"/>
      <path class="cls-1" d="M32.24,34.98c.5,1.72.56,1.5.39-1.67-.28-4.33-1.83-8.66-4.77-13.27-2.39-3.72-3.55-4.16-6.16-2.39-4.16,2.72-8.44,7.61-10.72,12.16-1.72,3.5-1.78,4-.33,2.66.61-.56,1.11-1.22,1.11-1.55,0-1.11,5.66-8.11,8.16-10.05,3.83-3,5.33-2.66,7.77,1.61,1.61,2.94,2.33,4.83,4.55,12.49Z"/>
      <path class="cls-1" d="M21.25,25.21c.67.56,3.28.83,3.28.33,0-.28-.78-.56-1.78-.56-.94,0-1.61.11-1.5.22Z"/>
      <path class="cls-1" d="M3.15,217.75c1.55,1.22,4.94,3.27,7.55,4.61l4.83,2.44,3.83-4c2.11-2.22,4.66-5.33,5.66-6.94,1.39-2.17,2.11-2.83,2.78-2.55,5.55,2.33,12.77,3.55,13.77,2.39.89-1.11,3.5-9.72,3.5-11.6,0-1.55.06-1.61,3.78-1.94,2.05-.17,6-.83,8.83-1.44l5.11-1.11.39-2c.22-1.05.22-5.16.11-9.11-.17-5.22-.11-7.16.39-7.16,1.11,0,10.49-4.77,11.33-5.72,1.06-1.33.44-3.83-2.39-9.44l-2.39-4.77,3-2.94c1.67-1.61,4.28-4.61,5.83-6.66l2.78-3.78-2.11-2.89c-1.17-1.61-3.89-4.77-6-6.94-3.66-3.88-3.83-4.11-2.89-5.11,1.22-1.39,4.77-9.44,4.77-10.94,0-.61-.44-1.55-.94-2.05-1.17-1-10.05-5.39-10.99-5.39-.5,0-.56-2-.39-7.16.11-3.94.11-8.05-.11-9.11l-.39-2-5.11-1.11c-2.83-.61-6.77-1.28-8.83-1.44-3.72-.33-3.78-.39-3.78-1.94,0-1.89-2.61-10.49-3.5-11.6-1-1.17-8.22.06-13.77,2.39-.67.28-1.44-.5-3.16-3.11-1.28-1.94-3.89-5.05-5.77-6.94l-3.5-3.39-4.39,2.22c-2.44,1.22-5.72,3.22-7.33,4.39-1.61,1.17-3.05,2.17-3.22,2.17-.03,0-.32-.21-.43-.28v3.78c1.49-2.01,4.14-4.67,4.48-4.28.17.17-.11.61-.61,1-.67.44-.83,1.11-.61,2,.28,1.11.17,1.22-.89.94-1.44-.39-2.72,1.44-1.78,2.61.44.56.44.89-.11,1.33-.18.14-.32.15-.48.2v5.58c.3-2.25.84-4.48,1.82-6.29,1.5-2.89,5.89-6.38,9.38-7.49,2.83-.94,3.55-.89,5.05.39.72.61,1.61,1.33,1.89,1.5.72.44,2.33,2.83,4.05,5.89,1.89,3.28,1.83,8.61-.11,12.88-1.44,3.11-1.94,5.11-.89,3.55.5-.72.67-.72,1.33.17.72.94.83.89,1.89-.56,1.39-2,2.89-6.38,3.28-9.72.28-2.44.44-2.66,2.94-3.72,1.44-.61,3.66-1.28,4.89-1.5,2.66-.44,2.94-.06,4,5.94l.61,3.44-1.83,1.44c-2.89,2.28-6.44,6.27-7.16,8.11-.39.89-.78,1.78-.83,1.89-.11.11-.83-.33-1.72-.94-2.72-1.89-6.44-3.44-8.33-3.44-1,0-1.83-.17-1.83-.33s.61-1.11,1.33-2.05c1.5-2,3.11-6.94,3.11-9.49,0-4.22-5.94-12.55-8.94-12.55-4.72,0-11.05,4.83-12.44,9.6-1,3.28-1.05,6.5-.22,9.44.33,1.22.5,2.22.39,2.28-.23.18-.93.02-1.65-.24v1.51c2.36.46,5.24,1.17,6.76,1.73,1.94.72,5.16,1.22,8.88,1.44,7.44.39,9.77,1.06,12.38,3.55,1.89,1.83,7.61,9.55,7.61,10.33,0,.11,2.33,2.61,5.22,5.44,6.88,6.83,7.22,7.61,7.16,14.71-.06,3.11-.39,6.66-.72,7.88-.44,1.67-.44,2.89,0,4.61.39,1.28.67,4.83.72,7.94.11,5.39.06,5.77-1.5,8.11-1.28,1.94-6.61,7.55-9.83,10.33-.28.22-1.55,2.05-2.83,4.05-3.33,5.33-5.94,8.27-8.27,9.44-2.5,1.28-8.61,2.33-12.71,2.17-2-.11-4.11.28-6.22,1.05-1.47.52-4.23,1.24-6.65,1.77v1.69c.72-.26,1.42-.42,1.65-.24.11.06-.06,1.06-.39,2.28-.83,2.94-.78,6.16.22,9.44,1.39,4.77,7.72,9.61,12.44,9.61,3,0,8.94-8.33,8.94-12.55,0-2.61-1.61-7.49-3.17-9.55-1.61-2.11-1.44-2.5,1.06-2.61,1.94-.06,6.05-1.78,7.94-3.28,1.5-1.17,1.61-1.11,2.39.89.72,1.94,4.16,5.88,7.22,8.27l1.83,1.44-.61,3.44c-1.05,5.88-1.33,6.33-3.83,5.94-1.11-.17-3.33-.83-4.89-1.5-2.72-1.11-2.83-1.22-3.11-3.72-.39-3.33-1.89-7.72-3.28-9.72-1.06-1.44-1.17-1.5-1.89-.56-.67.89-.83.89-1.33.17-1.06-1.55-.56.44.89,3.55,1.94,4.27,2,9.6.11,12.88-1.72,3.05-3.33,5.44-4.05,5.89-.28.17-1.17.89-1.89,1.5-1.55,1.33-1.83,1.39-4.77.44-3.72-1.11-8.11-4.55-9.66-7.55-.97-1.81-1.52-4.03-1.82-6.28v5.55c.14.06.26.04.43.18.61.5.61.83.17,1.39-.94,1.16.33,3,1.78,2.61,1.06-.28,1.17-.17.89,1.05-.28,1-.11,1.55.44,1.78.44.17.83.61.83,1,0,.86-3.05-2.16-4.54-4.31v3.61l.37-.31,2.78,2.11ZM23.97,79.12c.33.17.56.61.56.89,0,.33-.22.39-.56.22-.28-.17-.56-.61-.56-.89,0-.33.28-.39.56-.22ZM7.87,73.45c-.44.39-.83,1.17-.83,1.72,0,1.39-1.28,1.83-1.78.61-.22-.67.11-1.33,1-2,1.44-1.11,2.94-1.44,1.61-.33ZM9.59,73.62c-.39-.44-.56-1.06-.39-1.39.56-.89,2-.72,2.39.28.44,1.22-1,2.05-2,1.11ZM13.2,71.45c-.5-.83-.39-1.17.44-1.78,1.39-1.05,3.22-.11,3,1.55-.22,1.55-2.55,1.67-3.44.22ZM18.69,75.51c-1,0-1.55-.94-1.17-1.94.39-1.05,1.11-1.05,2,0,.72.89.33,1.94-.83,1.94ZM20.86,74.95c.17,0,.44.22.61.56.17.28.06.56-.22.56-.33,0-.61-.28-.61-.56,0-.33.11-.56.22-.56ZM22.58,78.84c-1.05.89-2.28-.06-1.78-1.33.44-1.11,1.17-1.11,2-.11.5.56.44.89-.22,1.44ZM23.14,98.27c-.44,0-.83-.39-.83-.83s.39-.83.83-.83.83.39.83.83-.39.83-.83.83ZM23.97,95.22c-.33-.22-.44-.61-.28-.89.44-.67,1.94-.67,1.94,0,0,.78-1,1.28-1.67.89ZM24.41,91.72c-.33-.33-.39-.83-.22-1.17.56-.89,2-.72,2,.17,0,1.11-1.06,1.72-1.78,1ZM25.91,87.72c-.5.39-.89.33-1.33-.22-.5-.56-.44-.89.17-1.39.89-.78.56-2.83-.56-2.83-.89,0-1.5-.94-1.06-1.67.44-.72,1.78-.72,2.22-.06.83,1.39,1.22,5.61.56,6.16ZM14.03,99.88c-1.44-.06-2.94.06-3.33.28-.39.28-1.11.06-1.61-.39-.5-.44-2-1.11-3.28-1.44-2.05-.56-2.44-.89-2.94-2.72-1.28-4.72-.39-10.88,2.11-13.6,1.89-2.11,6.55-4.61,8.88-4.77.33-.06,1.67.94,2.94,2.22,5.44,5.44,5.77,12.16,1,18.88-1.05,1.5-1.44,1.67-3.78,1.55ZM16.75,212.64c-2.05,2.05-2.5,2.28-4.05,1.89-4.16-.89-8.38-4.44-9.83-8.27-.83-2.11-.78-7.55,0-10.05.5-1.5,1.05-2,2.39-2.33,1-.17,2-.28,2.22-.22.28.06.33-.11.11-.44-.44-.72,1.94-1.72,3.05-1.28.44.17,2,.28,3.39.22,2.33-.11,2.72.11,3.78,1.55,4.77,6.72,4.44,13.44-1.05,18.93ZM48.84,198.65c-4.33.28-9.49-1.61-8.55-3.11.61-1,1.5-.78,1.83.39.33,1.28,2.22,1.89,2.61.83.44-1.11,1.5-.94,1.83.28.39,1.44,2.78,1.39,3.11-.06.39-1.39,1.78-1,1.78.44,0,.89-.44,1.05-2.61,1.22ZM54.78,197.88c-1.17.22-2.22.28-2.39.11-.17-.17.28-.33.94-.33.72,0,1.05-.22.89-.56-.44-.78.78-2.33,1.61-2.05.33.11.67.72.78,1.33.11.94-.22,1.22-1.83,1.5ZM59.17,196.49c-.83-.67-1.05-2.28-.39-2.94.89-.89,2.66-.05,2.83,1.39.22,1.67-1.22,2.55-2.44,1.55ZM60.89,191.27c-1.44,0-1.78-1.83-.44-2.39,1.28-.5,1.28-1.94.06-2.44-1.22-.5-1.28-1.89-.17-2.33,1.28-.44,1.05-2.55-.28-2.55-.72,0-1.11-.39-1.11-1.11s.39-1.11,1.06-1.11c.83,0,1.17.61,1.61,3.05.28,1.72.5,4.38.44,6-.06,2.5-.22,2.89-1.17,2.89ZM57.61,177.11c-.89,0-1.22-1.16-.5-1.83.67-.72,1.17-.39,2.39,1.33.67.89,1.06,1.83.83,2.05-.22.22-.67-.06-1.06-.61-.39-.5-1.17-.94-1.67-.94ZM71.66,164.95c2.94,5.83,2.94,7.22.06,9.33-1.17.83-3.72,2.16-5.61,2.83-3.33,1.28-3.44,1.28-4.16.28-1.11-1.5-.94-2.5.33-2.5.61,0,2.78-.72,4.72-1.61,2.5-1.17,3.61-1.94,3.61-2.66,0-.56-1-2.83-2.22-5.05-1.22-2.22-2.22-4.16-2.22-4.28,0-.22,1.5-.67,2.61-.78.33,0,1.67,2,2.89,4.44ZM64.55,159.9c-1.39,0-2.05-1-1.17-1.83.5-.5.78-.44,1.28.22.89,1.11,3,.11,2.72-1.33-.11-.67.17-.94.94-.94.67,0,1.17.28,1.17.67,0,.33.44.22,1.05-.33.67-.61.89-1.39.72-2.28-.17-1,0-1.39.67-1.39.5,0,1.05.39,1.28.89.61,1.61-5.89,6.33-8.66,6.33ZM74.38,151.13c-.83-.83-.06-2.44,1.05-2.22.56.11,1.06.61,1.17,1.17.22,1.11-1.39,1.89-2.22,1.05ZM79.16,144.91c1.05,1.05,1.05,1.11.11,2.16-.78.89-1.28,1-2.05.56-1.33-.67-1.39-2.5-.06-3.22.72-.39,1.22-.28,2,.5ZM75.44,140.58c.56.11,1.06.61,1.17,1.16.22,1.11-1.39,1.89-2.22,1.06-.83-.83-.06-2.44,1.05-2.22ZM74.71,146.02l-1.28,2.5c-3.5,7.05-11.33,10.77-18.71,8.83-3-.78-5.22-1-3.66-.39.72.28.94,1.83.22,1.83-.94,0-1.78-1.39-1.78-2.89,0-.83.06-1.55.17-1.55s1.17.5,2.39,1.05c3,1.44,7.22,1.94,9.99,1.22,4.94-1.33,10.77-7,10.77-10.49,0-3.72-5.55-9.33-10.49-10.66-3.05-.83-7.55-.33-10.38,1.17-1.17.56-2.22,1.06-2.28,1.06-.5,0-.06-3.22.5-3.78.89-.89,1.55-.83,1.55.17,0,.44-.33.83-.67.89-.44,0-.5.11-.11.28.33.17,2-.11,3.72-.56,7.44-1.94,15.21,1.72,18.77,8.83l1.28,2.5ZM61.17,159.62c0,.44-.5.83-1.11.83s-1.11-.39-1.11-.83.5-.83,1.11-.83,1.11.39,1.11.83ZM57.28,159.62c0,.44-.33.83-.78.83-.94,0-1.55-.78-1.05-1.33.67-.67,1.83-.33,1.83.5ZM53.95,158.79c0,1.17-.83,1.5-1.39.56-.39-.67.11-1.67.89-1.67.28,0,.5.5.5,1.11ZM49.45,151.02c-.17-2.89-.22-3.05-.94-3.83-.39-.39-.61-1.11-.44-1.55.17-.44.33-1.05.33-1.33,0-.33.17-.44.44-.33.22.17.44-.78.56-2,.17-2.83.39-3.05,4.11-4.33,3.5-1.22,7.55-1.33,10.1-.28,2.55,1.05,5.77,4.05,7.05,6.55q1.06,2.11,0,4.27c-1.5,2.83-5.27,6.05-8.05,6.77-2.94.78-7.16.33-10.44-1.16-2.28-1-2.67-1.39-2.72-2.78ZM52.56,133.81c-.39-.67.11-1.67.89-1.67.28,0,.5.5.5,1.11,0,1.17-.83,1.5-1.39.56ZM55.45,131.92c.67-.67,1.83-.33,1.83.5,0,.44-.33.83-.78.83-.94,0-1.55-.78-1.05-1.33ZM58.95,132.42c0-.44.5-.83,1.11-.83s1.11.39,1.11.83-.5.83-1.11.83-1.11-.39-1.11-.83ZM72.33,136.36c1.28,1.39,1.11,3-.39,3-.67,0-.83-.39-.67-1.39.17-.89-.06-1.67-.72-2.28-.61-.56-1.05-.67-1.05-.33,0,.39-.5.67-1.17.67-.78,0-1.05-.28-.94-1,.28-1.33-1.83-2.39-2.66-1.28-.72.94-2.11.28-1.67-.78.17-.44-.17-.89-.67-1.06-.5-.11.06-.11,1.28.06,1.22.17,3.39.94,4.83,1.72,1.44.72,3.16,1.94,3.83,2.66ZM66.28,114.98c1.61.61,4,1.83,5.33,2.61,2.28,1.44,2.39,1.61,2.11,3.66-.28,2.5-4,10.33-4.83,10.33-.33,0-1.05-.28-1.61-.55-1-.56-.94-.78,1.11-4.61,1.22-2.16,2.22-4.44,2.22-5,0-.72-1.11-1.5-3.61-2.66-1.94-.89-3.94-1.61-4.39-1.61-1.22,0-1.55-.94-.89-2.22.72-1.39.94-1.39,4.55.06ZM60,112.71c-.67,0-1.06-.39-1.06-1.11s.39-1.11,1.11-1.11c1.39,0,1.5-1.94.17-2.67-.56-.33-.78-.89-.56-1.44.39-.89,1.78-1.22,2.22-.5.17.28,0,1.89-.28,3.61-.44,2.61-.78,3.22-1.61,3.22ZM59.56,115.04c-1.22,2-2.44,2.39-2.72.83-.11-.61.17-.94.89-.94.61,0,1.22-.39,1.44-.83.17-.44.56-.83.94-.83.33,0,.11.78-.56,1.78ZM62.11,102.88c.06,1.17-.11,2.05-.44,2.05s-.5-.39-.28-.83c.17-.5,0-.83-.5-.83-.39,0-.94-.28-1.11-.56-.61-1,.22-2.33,1.22-2.11.72.11,1.05.78,1.11,2.28ZM58.95,95.77c.78-.94,1.11-1,2.11-.33.44.22.67,1.06.56,1.78-.11,1-.5,1.33-1.55,1.33-1.55,0-2.16-1.5-1.11-2.78ZM52.62,93.89c.33,0,1.44.11,2.39.28,1.72.39,2.39,1.94,1.17,2.72-.83.5-2.33-.83-2-1.72.17-.39-.22-.83-.94-.94-.67-.11-.94-.28-.61-.33ZM48.12,93.44c2.89.11,3.33.28,3.33,1.17,0,1.5-1.39,1.83-1.78.39-.33-1.33-2.94-1.67-2.94-.39s-1.22,1.72-1.94.67c-.78-1-2.5-.67-2.5.5,0,1.06-1.11,1.61-1.78.94-.83-.83.39-2.22,2.55-2.83.94-.28,3.22-.5,5.05-.44ZM39.74,85.72l-.94-3.61-1.72.39c-.94.17-3.16.83-4.89,1.39-3.94,1.33-4.11,1.33-4.5-.06-.44-1.83,3.28-3.61,9.27-4.39,3.44-.5,3.89-.17,5.27,3.89.61,1.67,1.28,4.33,1.44,5.89.39,2.66.33,2.78-1.06,3.05-1.72.33-2,.11-2-1.61,0-.72-.39-2.94-.89-4.94ZM37.52,97.16c.44,0,.94.22,1.11.44.44.72-.61,1.94-1.28,1.55-.89-.56-.78-2,.17-2ZM34.29,99.77c.56-.5,1.33.11,1.33,1.06,0,.44-.39.78-.83.78-.83,0-1.17-1.17-.5-1.83ZM32.96,102.27c.39.17.72.56.72.89,0,1-1.11.83-1.28-.22-.17-.56.06-.83.56-.67ZM40.85,118.48c-1.22-1-2.44-1.89-2.72-1.89-.33,0-1.28-1.5-2.11-3.39-1.89-4.16-1.55-5.77,2.11-9.83,3.94-4.39,9.72-5.55,15.43-3.16,1.78.72,2.05,1.11,2.39,3.33,1.17,8.05-2.5,13.71-10.55,16.1-2.39.72-2.44.72-4.55-1.17ZM43.18,121.7l1.89-.39c5.11-1.11,10.27-5.27,11.72-9.49.94-2.72.94-8.94,0-10.66-1.89-3.5-10.33-4.61-15.49-2-3.22,1.61-6.44,5-7.33,7.77-.39,1.06-.83,1.89-1.05,1.89-.61,0-2.17-3-1.89-3.78.39-1.05,1.17-.78,1.39.56.17,1.06.33.94,1.67-1.05,1.78-2.67,5.11-5.5,8.11-6.83,2.72-1.22,8.94-1.11,12.38.22,1.44.56,2.89,1.55,3.22,2.22.78,1.44,1.17,9.16.5,9.55-.22.17-.44.89-.44,1.61,0,2.78-4.16,7.38-8.83,9.77-1.72.89-2.66,1.55-2.11,1.61,1.11,0,1.28,1.67.17,1.67-.44,0-1.5-.61-2.33-1.33l-1.55-1.33ZM56.06,118.98c.11.56-.17.94-.67.94-1,0-1.61-.89-1.17-1.72.5-.78,1.61-.33,1.83.78ZM53.01,121.31c.06.28-.33.61-.83.72-.61.11-1-.17-1-.72,0-.94,1.67-1,1.83,0ZM48.73,123.26c-.5-.5,0-1.67.78-1.67.28,0,.67.28.89.61.44.78-1,1.72-1.67,1.05ZM47.51,126.53c-1.22-1-.94-1.44,1.33-1.89,2.11-.39,8.11-3.94,9.83-5.83,1.22-1.39,1.78-1.39,5.33-.05,1.55.61,3.39,1.5,4.11,1.94,1.61,1.06,1.39,2.06-1.55,6.83l-1.72,2.94h-4.27c-3.66,0-6.94.61-9.99,1.89-.67.28-1-.28-1.55-2.39-.39-1.5-1.06-3.05-1.5-3.44ZM47.51,165.51c.44-.39,1.11-1.94,1.5-3.44.56-2.11.89-2.66,1.55-2.39.5.17,2,.72,3.33,1.11,1.33.44,4.39.78,6.66.78h4.27l1.72,2.89c1,1.61,2.05,3.61,2.33,4.5.56,1.39.44,1.61-1.22,2.61-.94.61-3.05,1.55-4.66,2.06l-2.89.89-1.83-1.61c-3.05-2.66-7.27-5.11-9.44-5.5-2.28-.44-2.55-.89-1.33-1.89ZM56.17,172.89c0,.44-.28,1-.61,1.22-.78.44-1.83-.61-1.39-1.39.56-.89,2-.72,2,.17ZM53.01,170.73c.06.28-.33.61-.83.72-.61.11-1-.17-1-.72,0-.94,1.67-1,1.83,0ZM50.62,169.34c0,.28-.28.67-.61.89-.78.44-1.83-.61-1.39-1.39.39-.61,2-.22,2,.5ZM35.41,179.89c.72-1.06,1.33-2.33,1.33-2.89,0-.5.56-1.28,1.28-1.61.67-.39,2.05-1.33,3.11-2.22,1.78-1.44,1.94-1.5,4.27-.78,1.33.39,3.55,1.39,4.94,2.16,4.39,2.61,6.5,7.88,5.61,13.94-.33,2.22-.61,2.61-2.44,3.39-1.11.5-3.66.89-5.66.94-5.77.06-9.38-2.39-12.44-8.44l-1.33-2.55,1.33-1.94ZM33.52,189.44c-.83.83-1.44.22-1-1,.28-.72.5-.83,1-.33.5.5.5.83,0,1.33ZM34.07,191.32c-.11-.56.17-.89.72-.89s.83.39.72.94c-.22,1.22-1.22,1.11-1.44-.06ZM38.07,194.71c-1.05.39-1.55-.11-1.17-1.22.44-1.06,1.28-1.06,1.72,0,.17.5-.06,1-.56,1.22ZM33.3,186.55q-.94-1.39-.94-.17c-.06,1.39-.89,1.72-1.33.55-.28-.72,1.28-3.72,1.89-3.72.22,0,.67.83,1.05,1.78,3.11,7.77,12.71,11.6,19.99,8.05,2.11-1.06,2.61-1.61,3.22-3.72.83-2.83.5-6.88-.78-9.94-1.61-3.89-6.5-7.61-11.33-8.66l-1.89-.39,1.55-1.33c1.72-1.5,3.11-1.72,3.11-.5,0,.44-.44.83-.94.83-.56.05.39.72,2.11,1.61,4.66,2.39,8.83,7,8.83,9.77,0,.72.22,1.44.44,1.61.67.39.28,8.11-.5,9.55-1.61,3-11.16,4.44-15.94,2.33-2.44-1.11-6.83-5-8.55-7.66ZM28.91,206.87c2.39,1.05,6.61,2.39,8.11,2.55,1.44.17,1.72-.06,2.39-2.05.39-1.22.89-3.55,1.06-5.16.17-1.56.5-2.89.67-2.89s.94.17,1.67.39c1.22.28,1.28.5.94,3.05-.22,1.44-.94,4.22-1.61,6.16q-1.22,3.44-3.61,3.61c-2.5.17-7.88-1.11-9.88-2.39-1.5-.94-1.22-3.94.28-3.27ZM24.08,212.76c-.39.39-.67.44-.67.11,0-.78.67-1.44,1.05-1.06.11.17-.06.61-.39.94ZM25.36,197.15c.56.83-.06,1.28-1.11.83-.5-.17-.72-.55-.56-.89.44-.72,1.22-.72,1.67.06ZM26.08,201.15c.11.55-.17.94-.67.94-1,0-1.61-.89-1.17-1.72.5-.78,1.61-.33,1.83.78ZM23.14,195.43c-.44,0-.83-.39-.83-.83s.39-.83.83-.83.83.39.83.83-.39.83-.83.83ZM23.91,208.92c1.33-.33,1.83-2.16.83-3-.61-.5-.67-.83-.17-1.39.44-.56.83-.61,1.33-.22.5.39.56,1.28.22,3.16-.56,3-1.17,3.78-2.39,3.33-1.22-.5-1.11-1.55.17-1.89ZM21.75,212.64c.33,0,.72.39.94.89.44,1.17-.72,2.33-1.55,1.5-.72-.72-.28-2.39.61-2.39ZM21.19,215.98c.33,0,.56.11.56.22,0,.17-.22.44-.56.61-.28.17-.56.06-.56-.22,0-.33.28-.61.56-.61ZM19.86,217.14c.56.94-1.28,2.55-2.05,1.78-.39-.39-.5-1.05-.33-1.5.39-1,1.83-1.17,2.39-.28ZM13.53,219.97c1-1,2.89-.56,3.11.67.33,1.5-1.39,2.67-2.72,1.94-1.22-.61-1.33-1.67-.39-2.61ZM9.48,218.53c.78-.94,2.28-.56,2.28.55s-1.55,1.67-2.33.89c-.44-.44-.44-.83.06-1.44ZM7.03,216.86c0,.55.39,1.33.83,1.72,1.33,1.11-.17.78-1.61-.33-.89-.67-1.22-1.33-1-2,.5-1.22,1.78-.78,1.78.61Z"/>
      <path class="cls-1" d="M31.74,87.61c.89,0,1.67-.22,1.67-.5,0-.33.67-.5,1.5-.39,1.17.11,1.61.56,1.83,1.83.22.94.67,2.22,1,2.78q.61,1.11.67,0c0-1.78-1-4.89-1.78-5.39-.94-.56-2-.5-4.16.28-2.44.94-2.67,1.33-.72,1.39Z"/>
      <path class="cls-1" d="M27.3,100.21c0-1.5-.5-1.72-1.44-.61-.5.56-.39.83.39,1.33.94.61,1.06.5,1.06-.72Z"/>
      <path class="cls-1" d="M29.91,101.6c.06-.61.06-1.11,0-1.11s-.56.28-1.17.61c-.83.5-.89.72-.28,1.11,1.17.72,1.39.61,1.44-.61Z"/>
      <path class="cls-1" d="M10.81,79.39c-.39,0-.83.28-1,.61-.22.28-1,.78-1.78,1.11-.72.28-1.17.72-1,1.06.17.28.06.56-.28.56-.56,0-2.78,3.16-2.78,4,0,1.11,1.17.22,2-1.5.5-1.05,1.17-1.94,1.44-1.94.33,0,.39-.39.22-.89-.28-.67-.06-.78.83-.5.78.28,1.06.17.83-.17-.17-.33.22-1,.89-1.44.67-.5.94-.89.61-.89Z"/>
      <path class="cls-1" d="M15.64,79.95c-.61-.33-1.11-.44-1.11-.33,0,.17.5.56,1.11.89.61.33,1.11.44,1.11.33,0-.17-.5-.56-1.11-.89Z"/>
      <path class="cls-1" d="M17.53,82.28c-.44-.39-.78-.44-.78-.17,0,.56,1.05,1.39,1.39,1.11.06-.11-.17-.56-.61-.94Z"/>
      <path class="cls-1" d="M18.42,84.95c.33,0,.56-.28.56-.56,0-.33-.22-.56-.56-.56-.28,0-.56.22-.56.56,0,.28.28.56.56.56Z"/>
      <path class="cls-1" d="M11.2,85.78c.33-.17.56-.56.56-.89,0-.28-.22-.5-.56-.5-.28,0-.56.39-.56.89,0,.44.28.67.56.5Z"/>
      <path class="cls-1" d="M13.42,85.67c0,.72.17.94.44.61.22-.33.78-.72,1.22-.89.56-.17.44-.33-.44-.56-1-.28-1.22-.11-1.22.83Z"/>
      <path class="cls-1" d="M19.8,88.17c-.39-2.78-1.61-3.83-1.33-1.17.11.89.39,1.89.67,2.22.33.44.22,1.39-.33,2.5-.44,1-.94,2.55-1.11,3.5-.22,1.11.11.67,1.06-1.33,1.17-2.5,1.33-3.55,1.05-5.72Z"/>
      <path class="cls-1" d="M8.98,86.61c0,.28.28.56.61.56.28,0,.39-.28.22-.56-.17-.33-.44-.56-.61-.56-.11,0-.22.22-.22.56Z"/>
      <path class="cls-1" d="M3.43,90.22c0,1.55.22,2.44.56,2.22.33-.17.56-1.17.56-2.22s-.22-2.05-.56-2.22c-.33-.22-.56.67-.56,2.22Z"/>
      <path class="cls-1" d="M11.53,92.05c-.67-.94-.78-.94-1.11-.17-.17.5-.33,2.33-.28,4.05v3.16l1.11-3c.89-2.5.94-3.11.28-4.05Z"/>
      <path class="cls-1" d="M7.65,91.78c-.17-.22-.33.11-.28.72,0,.61.17.78.33.33.17-.39.11-.89-.06-1.06Z"/>
      <path class="cls-1" d="M7.7,95.05c-.17.5.06,1.33.44,1.94.61.78.78.83.78.17,0-.44-.22-1.33-.44-1.89-.33-.94-.44-.94-.78-.22Z"/>
      <path class="cls-1" d="M12.86,97.44c.44-.5.44-.83.11-.83s-.78.28-.94.61c-.61.94.06,1.17.83.22Z"/>
      <path class="cls-1" d="M14.81,188.77c9.61-.61,10.6-.94,13.99-5.11,1.5-1.94,3.5-4.77,4.33-6.27.89-1.55,3.61-4.66,6.11-7,2.44-2.33,5.22-5.27,6.05-6.55,1.61-2.28,1.61-2.39,1.28-8.27-.17-3.28-.61-6.77-.89-7.77-.33-1.17-.33-2.39,0-3.61.28-.94.72-4.44.89-7.66.39-7.22.17-7.77-7-14.49-2.72-2.55-5.44-5.61-6.05-6.88-.61-1.22-2.55-4.05-4.33-6.22-3.72-4.72-4.55-5.05-13.27-5.5-4.72-.22-7.22-.67-10.99-1.94-1.46-.49-3.23-.94-4.92-1.3v1.28c.28.07.54.11.82.19,2.5.61,5,1.39,5.66,1.78.61.33,4.11.78,7.83,1,9.27.56,10.6,1,13.27,4.39,1.22,1.5,3.16,4.28,4.27,6.16,1.11,1.83,4.16,5.33,6.77,7.77,6.77,6.38,7.22,7.22,6.83,13.32-.22,2.66-.61,6.05-.94,7.44-.39,1.67-.39,3.33,0,5,.33,1.39.72,4.77.94,7.44.39,6.11-.06,6.94-6.83,13.32-2.61,2.44-5.66,5.94-6.77,7.77-1.11,1.89-3.05,4.66-4.27,6.16-2.66,3.39-4,3.83-13.27,4.39-3.72.22-7.22.67-7.83,1-.88.49-3.74,1.3-6.48,1.96v1.28c1.44-.33,2.9-.74,4.04-1.13,3.11-1.17,5.72-1.61,10.77-1.94Z"/>
      <path class="cls-1" d="M8.09,106.6c2.11,0,5.27,5.72,5.72,10.22.11,1.61-.11,4.16-.61,5.88-.44,1.67-.72,3.11-.61,3.22.11.11,1.11-1.66,2.22-3.94,2.55-5.22,3.17-9.94,1.55-11.99-1.17-1.44-3.16-1.33-2.61.17.17.44.67.67,1.05.56,1.11-.44,1.5.67.5,1.5-.67.56-1,.56-1.61-.11-1.39-1.44-1.28-3.55.33-4.39.89-.5,1.33-.44,2.11.22.89.83,1.17.83,2.61.06.89-.44,2.39-.83,3.28-.83,1.44-.06,1.55-.11.61-.61-.56-.33-1.94-.44-3.11-.28-1.22.17-2.28.11-2.5-.22-.17-.28-2.05-.56-4.11-.56-2.33,0-5-.44-7.05-1.11-1.39-.49-3.73-1.16-5.87-1.72v2.83c.18.04.23.23.65,0,2.67-1.44,4.55,2.05,2.22,4.16-1.06.94-1.22,1-2.05.11-.78-.78-.83-1.06-.22-1.61.61-.56.78-.56,1-.06.39,1.11,1.28.83,1.28-.33,0-1.78-.94-1.83-2.78-.22-.04.03-.06.09-.09.13v7.98c.8-2.08,2.08-3.99,4.04-5.88,1.78-1.72,3.61-3.17,4.05-3.17Z"/>
      <path class="cls-1" d="M36.18,127.75c0-2.05-.94-2.72-2.11-1.5-.83.83-.83.89.06.89.5,0,.94.39.94.83,0,1.11-2,1.05-2.44-.06-.44-1.11,1.06-3.55,2.11-3.55,1.67,0,2.55.72,2.55,2,0,1,.28,1.33,1.28,1.33.67,0,2.05.5,3.05,1.11,1,.61,1.94,1.11,2.17,1.11.17,0-2.28-2.61-5.44-5.83-6.33-6.33-7.38-7.5-7.61-8.61-.11-.39-.89-1.39-1.78-2.22-.94-.89-1.67-1.89-1.67-2.33,0-.39-.61-1.5-1.39-2.39l-1.39-1.67.83,2.05c.44,1.17.83,2.78.83,3.61,0,1.11.39,1.72,1.22,2.11,2.55,1.11,1.61,4.16-1.22,4.16-1.78,0-2.55-1.28-1.33-2.22.72-.67,1-.39.83.72-.06.28.33.39.89.28.56-.11,1-.55,1-1,0-1.11-2.72-1.39-4.77-.5-2,.78-6.44,5.61-8.22,8.88l-1.33,2.44,2.72-2.61c1.5-1.39,3.78-3.11,5.05-3.77,2.83-1.44,8.11-2,10.38-1.17,1.5.61,1.55.78,1.28,3.27-.67,4.89-1.5,6.83-4.44,9.77-1.61,1.61-3.5,3.33-4.27,3.83-1.33.89-1.28.89.89.17,6.16-2.11,11.33-6.22,11.33-9.16Z"/>
      <path class="cls-1" d="M23.97,111.99c0,.94.28,1.94.61,2.16.94.56.28-4.72-.67-5.55-.44-.39-1.28-.61-1.89-.5-2.05.39-4.16,1.39-4.16,1.94,0,.33.44.39,1,.17,4.5-1.83,5.11-1.67,5.11,1.78Z"/>
      <path class="cls-1" d="M19.42,117.09c1.17-1.06,2.55-2.17,3.05-2.44.72-.44.89-1,.61-2.66-.39-2.33-.39-2.28-2.83-1.22-1.61.67-1.83,1-1.83,3,0,1.22-.28,2.89-.56,3.72-.61,1.5-.56,1.5,1.55-.39ZM20.91,112.15c.44,0,.83.33.83.78s-.39.89-.83,1.11c-.56.22-.83-.06-.83-.78,0-.61.39-1.11.83-1.11Z"/>
      <path class="cls-1" d="M6.48,180.83c1.55.83,1.67.83,3.11-.94,3.39-4,3.44-9.38.28-17.99l-1.89-5.05,1.72,2.22c3.05,3.89,8.05,8.44,10.55,9.66,2.33,1.11,6.55,1.55,8.38.83,1.22-.5,1.17-4.33-.17-7.16-1.67-3.66-4.94-6.55-11.27-10.11-2.55-1.39-3.05-1.83-1.83-1.61,5.22,1,11.49,1.55,13.71,1.22,2.78-.39,6.55-2.66,7.99-4.66.78-1.11.78-1.33,0-2.44-1.44-2-5.22-4.28-7.99-4.66-2.22-.33-8.5.22-13.71,1.22-1.22.22-.72-.22,1.83-1.61,6.33-3.55,9.6-6.44,11.27-10.1,1.33-2.83,1.39-6.66.17-7.16-1.83-.72-6.05-.28-8.38.83-2.5,1.22-7.49,5.77-10.55,9.66l-1.72,2.22,1.89-5.11c3.16-8.5,3.11-13.44-.17-17.82-1.55-2.05-1.61-2.11-3.78-.72-3.9,2.41-5.4,5.5-5.92,12v16.7c.16.11.31.23.59.23.89,0,.94-.33.72-2.66-.33-3.61,1-6.77,2.83-6.77.78,0,1.55.39,1.72.89.61,1.55.33,3.78-.83,6.27-1.5,3.39-.33,4.11,1.83,1.11,2-2.78,5-4.33,6.27-3.28.44.39.83,1.05.83,1.5,0,1.33-3.61,4.61-5.55,4.94-1.17.28-1.67.67-1.55,1.28.11.56.67.83,1.28.72,4.83-.78,7.33-.72,8.22.17.5.5.94,1.11.94,1.39s-.44.89-.94,1.39c-.89.89-3.39.94-8.22.17-.61-.11-1.17.17-1.28.72-.11.61.39,1,1.55,1.28,1.94.33,5.55,3.61,5.55,4.94,0,.44-.39,1.11-.83,1.5-1.28,1.05-4.27-.5-6.27-3.28-2.17-3-3.33-2.28-1.83,1.11,1.83,4,1.44,7.16-.89,7.16-1.83,0-3.16-3.16-2.83-6.77.22-2.33.17-2.66-.72-2.66-.28,0-.43.12-.59.23v16.43c.57,6.91,2.32,10.45,6.48,12.6ZM4.54,130.08c-.61-.17-1.11-.5-1.11-.78s.5-.5,1.11-.5,1.11.33,1.11.78c0,.5-.39.67-1.11.5ZM5.48,125.2c-1.22,0-1.22-.11-.72-2.11.33-1.11.89-2.05,1.28-2.05.44,0,.72.72.72,2.05,0,1.83-.17,2.11-1.28,2.11ZM7.31,125.7c.83-4.66.61-5.66-1.22-5.55-1.39.06-2,1.5-3.28,7.83l-.67,3.33-.83-1.94c-.89-2.17-.61-6.5.78-11.05.56-2,1.44-3.33,3.11-4.72,1.22-1.11,2.5-1.83,2.78-1.67.22.17,1.11,1.55,1.89,3.11,1.5,3,1.55,4.17.11,10.88-.44,2.06-.78,2.72-1.17,2.22-.33-.5-.39-.33-.22.55.17.67.11,1.11-.17.94-.22-.17-.61.28-.83,1-.78,2.5-1-.78-.28-4.94ZM12.81,132.47c.89-.94,1.06-1.39.56-1.55-1-.33,6.55-6.44,8.66-7.05.89-.28,2.72-.56,4.05-.56,2-.06,2.33.11,2.33,1.11,0,3.5-1.28,6.11-4.55,9.16-1.89,1.67-3.66,2.94-4.11,2.78-.39-.17-.89,0-1.11.33-.28.39-.11.44.33.17s.61-.22.33.17c-.22.33-.78.44-1.28.28-.5-.22-.78-.11-.61.17.22.28-.28.56-1,.56-.72.06-1.33,0-1.33-.17s1.78-1.94,4-4c3.83-3.61,4-3.83,3.05-4.77-1.28-1.22-2.28-.83-6.66,2.78-3.22,2.66-5,3.05-2.66.61ZM18.42,130.64c2.16-1.39,2.55-1.5,3-.83.17.28-.44,1.22-1.33,2.05-.94.89-1.67,1.33-1.67,1,0-.39-.44-.72-.94-.83-.72-.11-.5-.5.94-1.39ZM14.2,134.36c.44,0,.89.39,1.05.83.5,1.22-.44,1.44-1.17.22-.56-.83-.56-1.06.11-1.06ZM19.8,148.18c1.83,0,4.44-.22,5.83-.39,2.16-.33,2.44-.56,2.44-1.78s-.28-1.44-2.44-1.78c-1.39-.17-4-.39-5.83-.39-2.39-.05-3.11-.22-2.5-.61.44-.28,1.44-.56,2.22-.61,1.28,0,1.28-.05.28-.5-.83-.33-.44-.5,1.67-.67,4.33-.33,9.22.11,10.77.94.78.44,2.22,1.44,3.11,2.22l1.67,1.39-1.67,1.39c-3.55,3-5.83,3.5-13.88,3.11-2.11-.11-2.5-.22-1.67-.61,1-.44,1-.5-.28-.5-.78-.05-1.78-.33-2.22-.61-.61-.39.11-.56,2.5-.61ZM17.86,146.02c0-.61.33-1.11.72-1.11s.72.5.72,1.11-.33,1.11-.72,1.11-.72-.5-.72-1.11ZM22.86,146.02c0-.83.39-1.11,1.55-1.11.83,0,1.89.28,2.33.55.72.5.72.61,0,1.11-.44.28-1.5.55-2.33.55-1.17,0-1.55-.28-1.55-1.11ZM14.09,156.62c.72-1.22,1.67-1,1.17.22-.17.44-.61.83-1.05.83-.67,0-.67-.22-.11-1.06ZM15.47,160.18c4.39,3.61,5.39,4,6.66,2.78.94-.94.78-1.17-3.05-4.77-2.22-2.05-4-3.83-4-4s.61-.22,1.33-.17c.72,0,1.22.28,1,.56-.17.28.11.39.61.17.5-.17,1.06-.06,1.28.28.28.39.11.44-.33.17s-.61-.22-.33.17c.22.33.72.5,1.11.33.44-.17,2.22,1.11,4.11,2.78,2.55,2.39,3.44,3.66,3.94,5.55,1.06,4.27.89,4.77-1.44,4.77-1.17,0-3-.28-4.05-.56-2.33-.61-9.99-6.77-8.94-7.11.5-.17.33-.61-.56-1.55-2.33-2.44-.56-2.05,2.66.61ZM17.47,160.01c.5-.11.94-.44.94-.83,0-.33.78.11,1.67,1,1.05,1,1.5,1.78,1.17,2.11-.33.33-1.33.06-2.67-.78-1.55-1-1.89-1.39-1.11-1.5ZM6.76,168.89c0,1.39-.28,2.11-.72,2.11-.39,0-.94-.94-1.28-2.11-.5-1.94-.5-2.05.72-2.05,1.11,0,1.28.28,1.28,2.05ZM4.43,161.95c.5-.17,1-.28,1.11-.33.06,0,.11.33.11.78s-.5.83-1.11.83c-1.39,0-1.44-.94-.11-1.28ZM1.32,162.68l.83-1.94.67,3.33c1.33,6.5,1.83,7.77,3.39,7.77,1.28,0,1.39-.22,1.33-2.22-.06-1.22-.28-3.83-.5-5.77-.33-2.66-.28-3.44.17-3.16.39.22.67.78.67,1.22s.22.72.5.56c.28-.22.39.22.22.89-.17.89-.11,1.05.22.55.39-.5.72.17,1.17,2.22,1.44,6.72,1.39,7.88-.11,10.88-.78,1.55-1.67,2.94-1.89,3.11-.28.17-1.55-.56-2.78-1.67-1.67-1.39-2.55-2.72-3.11-4.72-1.39-4.55-1.67-8.88-.78-11.05Z"/>
      <path class="cls-1" d="M4.31,117.32c-.5,1.22-.83,2.44-.72,2.78.33,1,2.17-2.89,1.89-3.94-.17-.67-.5-.28-1.17,1.17Z"/>
      <path class="cls-1" d="M9.14,120.48c.39-1.61-.33-5-.89-4.11-.17.33-.17,1.72.06,3.05.39,2.16.5,2.28.83,1.05Z"/>
      <path class="cls-1" d="M21.25,126.09c-1,.61-1.72,1.22-1.61,1.39.39.33,4.16-1.28,4.61-2,.56-.94-1-.61-3,.61Z"/>
      <path class="cls-1" d="M25.3,129.64c1.11-1.44,1.28-1.94.67-1.94-.44,0-1,.33-1.22.67-.22.39-.78,1.28-1.22,1.94-1.28,2,.17,1.44,1.78-.67Z"/>
      <path class="cls-1" d="M1.26,141.58c-.67,0-1.17.22-1.17.56,0,.28.33.55.78.55s1-.28,1.17-.55c.17-.33-.17-.56-.78-.56Z"/>
      <path class="cls-1" d="M4.54,142.8c0-.28-.39-.72-.89-.89-.56-.22-.78-.06-.67.33.28.83,1.55,1.28,1.55.56Z"/>
      <path class="cls-1" d="M2.76,147.91c1.89-1.22,1.22-4.11-1-4.11-.56,0-1.28.39-1.67.83-.07.09-.04.2-.09.29v2.08c.54.97,1.64,1.61,2.76.91ZM1.76,144.91c.28,0,.67.28.89.61.56.94-.72,2-1.5,1.22-.67-.67-.22-1.83.61-1.83Z"/>
      <path class="cls-1" d="M5.2,143.91c-.39-.11-.56.11-.33.67.17.5.61.89.89.89.72,0,.28-1.28-.56-1.55Z"/>
      <path class="cls-1" d="M5.76,146.58c-.28,0-.72.39-.89.89-.22.56-.06.78.33.67.83-.28,1.28-1.55.56-1.55Z"/>
      <path class="cls-1" d="M4.54,149.29c0-.61-.78-.67-1.28-.11-.67.67-.39,1.22.44.94.44-.22.83-.56.83-.83Z"/>
      <path class="cls-1" d="M2.04,149.91c-.17-.33-.72-.55-1.17-.55s-.78.22-.78.55c0,.28.5.56,1.17.56.61,0,.94-.28.78-.56Z"/>
      <path class="cls-1" d="M32.3,144.47c0-.61-1.89-1.22-3.89-1.22-1.06.06-1.17.17-.56.5,1.39.83,4.44,1.28,4.44.72Z"/>
      <path class="cls-1" d="M32.3,147.69c0-.67-.78-.61-3.33.11-1.06.33-1.61.72-1.22.83,1.05.39,4.55-.33,4.55-.94Z"/>
      <path class="cls-1" d="M25.97,164.23c.72.17.56-.28-.61-1.78-1.89-2.5-3-2.61-1.44-.22.61,1,1.55,1.94,2.05,2Z"/>
      <path class="cls-1" d="M23.86,167.12c1.22,0,.17-1.06-1.94-1.94-2.16-.94-2.39-.94-2.39-.56,0,.44,3.55,2.5,4.33,2.5Z"/>
      <path class="cls-1" d="M9.03,171.45c-.39-1-.5-.83-.78,1.28-.17,1.33-.11,2.66.11,2.89.67.67,1.22-2.72.67-4.16Z"/>
      <path class="cls-1" d="M4.81,173.28c-.89-1.78-1.39-2.17-1.39-1.17,0,.33.39,1.5.94,2.66.61,1.44.94,1.78,1.11,1.11.11-.5-.17-1.67-.67-2.61Z"/>
      <path class="cls-1" d="M40.07,136.58c.61,0,2.78-4,2.78-5.16,0-.44-.83-1.22-1.89-1.72-2.11-1-3.89-1.17-3.39-.33.17.28.78.55,1.33.55.61,0,1.55.44,2.22.94l1.22,1-1.44,2.05c-1.5,2.28-1.67,2.67-.83,2.67Z"/>
      <path class="cls-1" d="M38.07,130.7c-1.28-.22-1.83-.11-2.05.56-.17.44-1.28,1.55-2.5,2.39l-2.11,1.55h3.83c3.66-.06,3.89-.11,4.66-1.61.94-1.78.56-2.39-1.83-2.89ZM37.29,133.81c-1.11,0-1.44-.61-.72-1.28.67-.72,1.83-.39,1.83.44,0,.44-.5.83-1.11.83Z"/>
      <path class="cls-1" d="M39.18,154.74c1.78-1.17,1.94-3.16.28-3.16-.89,0-1.06.22-.78,1.17.33.89.17,1.11-.61.94-1.33-.22-1.55-1.28-.5-2.33,2.16-2.11,5.5-.11,4.16,2.5-.5.89-.44,1.33.22,2.11.5.55,1.22,1.94,1.67,3.16l.83,2.16v-2.28c.06-1.22-.11-2.44-.33-2.66-1.06-1.06-1-18.54.06-20.99.22-.5.33-1.72.22-2.78l-.17-1.83-.44,1.78c-.28,1-.94,2.39-1.55,3.16-.89,1.11-1,1.67-.5,2.55,1.33,2.55-2.05,4.55-4.16,2.44-1.06-1.05-.83-2.11.5-2.33.78-.17.94.06.61.94-.28.94-.11,1.17.78,1.17,1.67,0,1.5-2-.28-3.16-1.94-1.28-7.22-1.17-11.88.17l-3.61,1.05,4.72.28c2.94.22,5.55.72,6.88,1.39,2.5,1.22,6.44,4.77,6.44,5.83s-3.94,4.61-6.44,5.83c-1.33.67-3.94,1.17-6.88,1.39l-4.72.28,3.61,1.06c4.66,1.33,9.94,1.44,11.88.17Z"/>
      <path class="cls-1" d="M22.8,175.95c2.05.89,4.77.61,4.77-.5,0-.44-.44-.89-1.05-1-.61-.11-.89,0-.67.33.56.94-.61,1.28-1.33.39-.89-1.11-.22-1.94,1.61-1.94,2.89,0,3.83,3.05,1.28,4.16-.83.39-1.22,1-1.22,2.11,0,.83-.39,2.44-.83,3.61l-.83,2.06,1.39-1.67c.78-.94,1.39-2,1.39-2.39,0-.44.72-1.44,1.67-2.33.89-.83,1.66-1.83,1.78-2.22.22-1.11,1.28-2.28,7.61-8.61,3.16-3.22,5.61-5.83,5.44-5.83-.22,0-1.17.5-2.17,1.11-1,.61-2.39,1.11-3.05,1.11-1,0-1.28.33-1.28,1.33,0,1.28-.89,2-2.55,2-1.05,0-2.55-2.44-2.11-3.55.44-1.11,2.44-1.17,2.44-.06,0,.44-.44.83-.94.83-.89,0-.89.05-.06.89,1.17,1.22,2.11.56,2.11-1.5,0-2.94-5.16-7.05-11.33-9.16-2.17-.72-2.22-.72-.89.17.78.5,2.66,2.22,4.27,3.83,2.94,2.94,3.78,4.89,4.44,9.77.28,2.5.22,2.66-1.28,3.27-2.28.83-7.55.28-10.38-1.17-1.28-.67-3.55-2.39-5.05-3.77l-2.72-2.61,1.33,2.44c1.78,3.27,6.22,8.11,8.22,8.88Z"/>
      <path class="cls-1" d="M40.96,162.34c2.17-1.06,2.28-1.67.78-4.66-.94-1.89-2.22-2.94-2.22-1.89,0,.17.61,1.22,1.39,2.33l1.44,2.05-1.22.94c-.67.56-1.61,1-2.22,1-.56,0-1.17.22-1.33.55-.5.83,1.28.67,3.39-.33Z"/>
      <path class="cls-1" d="M39.9,158.4c-.78-1.44-1.06-1.5-4.66-1.55h-3.83l2.05,1.5c1.17.83,2.33,1.89,2.61,2.44.39.67.94.83,2.22.5,2.28-.5,2.55-1,1.61-2.89ZM37.46,159.79c-1.39-.28-1.55-1.55-.22-1.55.67,0,1.17.33,1.17.89,0,.5-.39.78-.94.67Z"/>
      <path class="cls-1" d="M6.03,187.6c1.89-.61,4.61-1.05,6.88-1.05,2.05,0,3.94-.28,4.11-.56.22-.33,1.28-.39,2.5-.22,1.17.17,2.55.06,3.11-.28.94-.5.83-.56-.61-.61-.89,0-2.39-.39-3.28-.83-1.44-.78-1.72-.78-2.61.06-.78.67-1.22.72-2.11.22-1.61-.83-1.72-2.94-.33-4.38.61-.67.94-.67,1.61-.11,1,.83.61,1.94-.5,1.5-.39-.11-.89.11-1.05.55-.56,1.5,1.44,1.61,2.61.17,1.44-1.78,1.06-6.5-.89-10.72-1.55-3.39-3.61-6.61-2.94-4.5,1,2.89,1.55,6.77,1.22,8.94-.56,4.33-3.72,9.66-5.66,9.66-.44,0-2.28-1.44-4.05-3.22-1.95-1.86-3.23-3.76-4.04-5.84v7.98s.06.1.09.13c1.83,1.61,2.78,1.55,2.78-.22,0-1.17-.89-1.44-1.28-.39-.22.56-.39.56-1,0-.61-.55-.56-.83.22-1.61.83-.89,1-.83,2.05.11,2.33,2.11.44,5.61-2.22,4.16-.42-.23-.47-.04-.65,0v2.72c.51-.12,1.03-.23,1.37-.27.83-.17,2.94-.78,4.66-1.39Z"/>
      <path class="cls-1" d="M20.42,181.33c1.11.44,2.05.78,2.16.67.06-.11.28-1.11.5-2.22.33-1.78.22-2.16-.89-2.72-.72-.33-2.11-1.39-3.11-2.39l-1.83-1.72.56,1.55c.33.89.61,2.55.61,3.78,0,2,.17,2.28,2,3.05ZM20.91,178c.44.22.83.67.83,1.11s-.39.78-.83.78-.83-.5-.83-1.11c0-.72.28-1,.83-.78Z"/>
      <path class="cls-1" d="M24.58,182.27c.61-1.67.44-4.94-.17-4.28-.28.22-.44,1.17-.44,2.11,0,3.33-.61,3.55-5.11,1.72-.56-.22-1-.17-1,.11,0,.78,2.55,1.83,4.5,1.83,1.28,0,1.78-.33,2.22-1.5Z"/>
      <path class="cls-1" d="M40.01,104.6c1.22-1.78,3.78-3,6.33-3,.5,0,.94-.28.94-.55,0-.72-2.05-.67-3.89.06-2.16.89-4.61,3-5.72,4.94q-1.06,1.72,0,1.06c.61-.33,1.67-1.5,2.33-2.5Z"/>
      <path class="cls-1" d="M51.73,101.66c0,.33.28.39.61.17.83-.5-.5-1.33-2-1.22q-.94.06.17.28c.67.11,1.22.5,1.22.78Z"/>
      <path class="cls-1" d="M47.06,102.71c-.17,0-.44.22-.61.56-.17.28-.06.56.22.56.33,0,.61-.28.61-.56,0-.33-.11-.56-.22-.56Z"/>
      <path class="cls-1" d="M54.95,105.82c.11-.56,0-1.22-.33-1.55s-.39,0-.22,1.06c.28,1.17.39,1.28.56.5Z"/>
      <path class="cls-1" d="M48.45,104.93c-.33,0-.72.22-.89.56-.17.33.06.39.5.22,1-.39,1.17-.78.39-.78Z"/>
      <path class="cls-1" d="M50.28,106.71c-.06-.11-.22.06-.39.28-.17.28.22.83.89,1.28q1.17.67.39-.33c-.44-.56-.83-1.11-.89-1.22Z"/>
      <path class="cls-1" d="M47.29,116.87c-1.11,1.33.22.94,2.55-.78,2.44-1.72,3.61-3.28,4.55-6.11.5-1.44.5-2.05.06-2.5-.5-.44-.56-.33-.33.33.22.56.11,1-.22,1s-.5.33-.39.67c.17.39-.06,1.06-.5,1.44-.39.39-.72,1.22-.72,1.83,0,.72-.22,1-.67.72-.33-.22-.44-.17-.28.17.44.67-.94,2-1.44,1.44-.22-.17-.39-.06-.39.28,0,.39-.33.67-.78.67-.39,0-1.05.39-1.44.83Z"/>
      <path class="cls-1" d="M39.01,110.1c-.44-1.5-.44-1.44-.67.78-.17,1.33-.11,2.39.11,2.39.72,0,1-1.55.56-3.16Z"/>
      <path class="cls-1" d="M40.29,112.76c-1.17,1.17-2,2.28-1.83,2.39.39.39,5.33-2.83,5.66-3.66.61-1.61-1.78-.83-3.83,1.28Z"/>
      <path class="cls-1" d="M40.62,115.48c-.67.44-.5.55.72.55.89,0,1.44-.22,1.22-.55-.44-.67-.89-.67-1.94,0Z"/>
      <path class="cls-1" d="M64.05,121.04c.5,0,1.11.22,1.28.55.44.67,1.39.72,1.39.06,0-.44-4.22-2.28-5.27-2.28-.28,0,0,.39.61.83.56.44,1.5.83,2,.83Z"/>
      <path class="cls-1" d="M65.5,124.7c-1.5,3-1.17,4.16.39,1.39.78-1.28,1.39-2.61,1.39-2.89,0-1.11-.89-.39-1.78,1.5Z"/>
      <path class="cls-1" d="M51.56,130.36c.39-.33.72-.83.72-1.17s-.17-.39-.39-.22c-.17.22-.67.11-1.11-.28-.61-.5-.61-.78.17-1.61.89-1,.89-1.06-.5-1.06h-1.44l.89,2.5c.72,1.89,1.11,2.33,1.67,1.83Z"/>
      <path class="cls-1" d="M56.61,139.08c.83-.17,2.05-.5,2.78-.67.72-.17,1.22-.06,1.22.39,0,.33.22.5.44.33.28-.17,1.28.22,2.28.83,1,.61,2,1,2.16.83.17-.17.61.11,1.05.67.67.89.72.89.39-.06-.72-2.11-7.11-4.11-10.6-3.33-.72.11-1.28.5-1.28.83s.61.44,1.55.17Z"/>
      <path class="cls-1" d="M54.5,139.36c0-.33-.39-.56-.83-.56s-.83.11-.83.22.39.33.83.55c.44.17.83.06.83-.22Z"/>
      <path class="cls-1" d="M52.28,143.8c0-.33-.22-.56-.5-.56-.33,0-.72.22-.89.56-.17.28.06.55.5.55.5,0,.89-.28.89-.55Z"/>
      <path class="cls-1" d="M63.05,144.41c-.61,0-.78.17-.33.33.39.17.89.11,1.05-.06.22-.17-.11-.33-.72-.28Z"/>
      <path class="cls-1" d="M51.06,146.58c.5,0,1.83.17,2.89.28,2.33.39,4.11-.5,2.78-1.39-.83-.55-1.55-.55-4.83-.17-1.89.22-2.55,1.28-.83,1.28Z"/>
      <path class="cls-1" d="M62.72,147.52c.39.17.89.11,1.05-.06.22-.17-.11-.33-.72-.28-.61,0-.78.17-.33.33Z"/>
      <path class="cls-1" d="M50.9,148.24c.17.28.56.56.89.56.28,0,.5-.28.5-.56,0-.33-.39-.55-.89-.55-.44,0-.67.22-.5.55Z"/>
      <path class="cls-1" d="M66.39,150.74c-.22.44-.56.67-.83.5-.28-.17-.5,0-.5.39s-.17.55-.33.33c-.22-.17-1.05,0-1.94.5-.89.44-1.61.61-1.61.39,0-.28-.22-.11-.5.28-.33.56-1,.61-2.89.17-2.39-.55-3.28-.44-2.5.33.89.94,6.72.39,8.99-.83,1.94-1,3.66-2.89,2.66-2.89-.11,0-.39.39-.56.83Z"/>
      <path class="cls-1" d="M53.39,152.68c-.72.44-.67.56.17.56.5,0,.94-.28.94-.56,0-.67-.06-.67-1.11,0Z"/>
      <path class="cls-1" d="M50.95,164.95c-.78-.83-.78-1.11-.17-1.61.44-.39.94-.5,1.11-.28.22.17.39.11.39-.22s-.33-.83-.72-1.17c-.56-.5-.94-.06-1.67,1.83l-.89,2.5h1.44c1.39,0,1.39-.06.5-1.06Z"/>
      <path class="cls-1" d="M66.16,168.56c0,.44.28.78.56.78.89,0,.67-.78-.83-3.39-1.22-2.22-1.39-2.33-1.39-1,0,.83.39,1.78.83,2.17s.83,1.05.83,1.44Z"/>
      <path class="cls-1" d="M65.05,170.39c-.44.28-1.5.78-2.33,1.22-.89.39-1.44.78-1.33.94.39.39,5.33-1.67,5.33-2.16,0-.61-.56-.61-1.67,0Z"/>
      <path class="cls-1" d="M51.34,178.33c-.17.33-.11.44.17.28.33-.17.89.78,1.28,2.16.39,1.33.94,2.44,1.22,2.44s.33.44.11.94c-.22.72-.17.83.28.44,1-.89-.39-4.5-2.61-7-1.72-1.83-6.16-4.44-6.16-3.55,0,.17,1.39,1.05,3.05,2,1.72,1,2.89,1.94,2.66,2.28Z"/>
      <path class="cls-1" d="M42.46,176.61c.44-.44.17-.61-1-.61-1.44.06-1.55.11-.67.61.78.44,1.22.44,1.67,0Z"/>
      <path class="cls-1" d="M43.57,181.39c.83,0,.83-.17.28-1.06-.83-1.22-5.44-4.05-5.44-3.39,0,.89,4.16,4.5,5.16,4.44Z"/>
      <path class="cls-1" d="M39.01,181.94c.44-1.61.17-3.17-.56-3.17-.22,0-.28,1.06-.11,2.33.22,2.28.22,2.33.67.83Z"/>
      <path class="cls-1" d="M49.9,185.05c.28.17.78-.17,1.17-.78.78-1.22.72-1.28-.61-.28-.56.44-.78.89-.56,1.06Z"/>
      <path class="cls-1" d="M47.29,190.99c0-.33-.44-.56-.94-.56-2.61,0-5.11-1.22-6.33-3.05-.72-1.06-1.67-1.94-2.05-1.94-.44,0-.17.72.72,1.89,2.11,2.78,8.61,5.55,8.61,3.66Z"/>
      <path class="cls-1" d="M54.39,186.72c-.17,1.05-.11,1.39.22,1.05.33-.33.44-1,.33-1.55-.17-.78-.28-.67-.56.5Z"/>
      <path class="cls-1" d="M47.68,186.61c.39.39.83.56,1,.39.17-.17-.11-.5-.67-.67-.78-.33-.83-.28-.33.28Z"/>
      <path class="cls-1" d="M49.95,191.38c.33.11,1,.11,1.39,0,.33-.17.06-.28-.72-.28s-1.05.11-.67.28Z"/>
      <path class="cls-1" d="M29.63,190.05c-.28-.39-.72-.5-1.17-.22-.61.39-.5.61.44,1.11,1.17.67,1.5.33.72-.89Z"/>
      <path class="cls-1" d="M27.19,191.82c.11-1.61.11-1.55-1.06-.67-.78.55-.78.78-.17,1.39,1,.89,1.05.89,1.22-.72Z"/>
      <path class="cls-1" d="M37.85,203.71c.83-3,.5-4.61-.44-2.5-.39.89-.56,1.72-.44,1.89.17.11.06.72-.28,1.28-.56,1.05-3.28,1.5-3.28.55,0-.28-.78-.5-1.67-.5-2.05.06-1.61.61,1.22,1.55,2.94.89,4.22.33,4.89-2.28Z"/>
      <path class="cls-1" d="M10.14,192.93v3.16c-.06,1.72.11,3.55.28,4.05.33.78.44.78,1.11-.17.67-.94.61-1.55-.28-4.05l-1.11-3Z"/>
      <path class="cls-1" d="M11.75,194.21c0,.67,1.05,1.44,1.44,1.05.11-.11-.11-.55-.61-.94-.5-.44-.83-.44-.83-.11Z"/>
      <path class="cls-1" d="M8.64,196.27c.5-1.83.06-2.44-.67-1-.33.61-.39,1.39-.17,1.78.33.5.56.28.83-.78Z"/>
      <path class="cls-1" d="M17.69,196.82c.17.89.67,2.44,1.11,3.44.5,1,.61,2.11.39,2.5-.28.39-.5,1-.56,1.33-.06.33-.28,1.44-.5,2.39-.22,1.17-.17,1.72.28,1.72.39,0,.56-.39.33-.83-.17-.44-.06-.83.17-.83.28,0,.67-1.22.89-2.67.28-2.16.11-3.22-1.05-5.72-.94-2-1.28-2.44-1.06-1.33Z"/>
      <path class="cls-1" d="M7.7,199.99c.17-.39.11-.89-.06-1.05-.17-.22-.33.11-.28.72,0,.61.17.78.33.33Z"/>
      <path class="cls-1" d="M4.54,201.82c0-1.06-.22-2.05-.56-2.22-.33-.22-.56.67-.56,2.22s.22,2.44.56,2.22c.33-.17.56-1.17.56-2.22Z"/>
      <path class="cls-1" d="M9.31,210.31c.22-.39-.11-.44-.94-.17-.72.22-1.17.22-.94,0,.22-.22-.17-1.22-.83-2.16-.67-.94-1.22-1.94-1.22-2.22s-.33-.61-.67-.78c-.39-.11-.72,0-.72.28,0,.83,2.22,4.05,2.78,4.05.33,0,.44.28.28.55-.17.33.28.78,1,1.05.78.33,1.55.83,1.78,1.11.17.33.61.61,1,.61.33,0,.06-.39-.61-.89-.67-.44-1.06-1.11-.89-1.44Z"/>
      <path class="cls-1" d="M10.09,205.09c0-.11-.22-.22-.56-.22-.28,0-.56.28-.56.61,0,.28.28.39.56.22.33-.17.56-.44.56-.61Z"/>
      <path class="cls-1" d="M13.86,205.76c-.28-.33-.44-.11-.44.61,0,.94.22,1.11,1.22.83.89-.22,1-.39.44-.56-.44-.17-1-.55-1.22-.89Z"/>
      <path class="cls-1" d="M10.64,206.81c0,.44.22.83.56.83.28,0,.39-.39.22-.83-.22-.44-.44-.83-.56-.83s-.22.39-.22.83Z"/>
      <path class="cls-1" d="M17.75,209.53c.39-.44.44-.78.17-.78s-.72.28-.89.61c-.61.89-.06,1.06.72.17Z"/>
      <path class="cls-1" d="M19.92,271.16c-2.5-1.94-8.16-8.94-8.16-10.05,0-.33-.5-1-1.11-1.55-1.44-1.33-1.39-.83.33,2.66,2.78,5.38,9.22,12.21,12.38,12.99,1.89.44,2.66-.22,5.16-4.27,2.66-4.44,4.44-10.16,4.22-13.38l-.22-2.44-.44,2.22c-.78,4-2.55,8.83-4.44,12.21-2.39,4.27-3.89,4.61-7.72,1.61Z"/>
      <path class="cls-1" d="M24.52,266.5c0-.61-.28-.61-2.22,0-1.33.44-1.28.44.44.5.94.05,1.78-.22,1.78-.5Z"/>
      <path class="cls-1" d="M69.94,33.26c4-1.94,4.44-2.94,3.44-7.16q-.72-3.05-4.61-1.83c-2,.61-2.83,1.17-3.22,2.28-.61,1.55-.22,7.27.5,8,.28.28,2-.33,3.89-1.28Z"/>
      <path class="cls-1" d="M41.35,38.03c2.33-1.72,8.88-4.72,10.33-4.72.61,0,1.28-.28,1.44-.56.17-.33.61-.56.89-.56.33,0,.39.33.17.67-.28.5-.11.5.5-.06.5-.39.94-.56.94-.28s.22.17.5-.28c.28-.39.78-.56,1.17-.33.89.56-.11,1.55-1.78,1.78-1.5.22-4.89,1.94-4.89,2.44,0,.22,1.44.06,3.22-.39,1.72-.44,3.89-.89,4.77-1.06,1.28-.28,1.5-.56,1.22-1.55-.17-.67-.33-2.16-.33-3.33,0-2.44-.28-2.44-4.44-.72-7.05,2.94-14.32,7.55-17.77,11.27l-1.94,2.05,2.11-1.5c1.11-.83,2.89-2.11,3.89-2.89Z"/>
      <path class="cls-1" d="M18.47,57.13c1.17-1.83,4.05-9.99,4.83-13.82.83-4,.83-4.33-.22-6.39-1.17-2.39-1.72-2.72-3.17-1.89-.5.28-1.5,1.61-2.16,2.89-1.06,2-1.22,3.5-1.44,10.77-.22,7.66-.17,8.49.72,8.83.56.22,1.17.06,1.44-.39Z"/>
      <path class="cls-1" d="M72.77,46.19c-.11-3.39-.06-3.61.83-2.72.44.44.83,1.28.83,1.83,0,.61.28,2.28.61,3.83.39,1.61.5,5.22.33,8.61-.17,4.16-.11,5.33.28,4.16,1.72-5.39,1.33-24.82-.5-24.65-.22,0-1.5.56-2.89,1.22-1.39.67-2.55,1.22-2.66,1.28-.33.17,2.39,8.55,2.83,8.55.22,0,.39-.94.33-2.11ZM72.6,41.14c.67.56.67.78.11,1.11-.39.22-.89.17-1.11-.22-.61-1,.11-1.61,1-.89Z"/>
      <path class="cls-1" d="M48.12,62.07c1.44-6.05,3.05-8.77,4.44-7.49.56.56.56.94-.06,2.16-1.05,2.05-1.94,4.33-1.61,4.33.11,0,1-1.11,2-2.5,1.11-1.55,1.94-2.28,2.22-1.89.28.44.44.39.67-.11.22-.56.33-.44.33.22.06,1.67-1,3.22-4.89,7.27l-3.66,3.83,2.72-1.89c3.55-2.5,5.77-5.05,7.38-8.72,1.55-3.33,1.39-6.38-.39-7.33-1.22-.67-1.55-.67-3.11,0-1.67.67-4.61,4.22-5.83,7-1.06,2.5-2.28,9.77-1.55,9.38.22-.17.83-2.05,1.33-4.28ZM54.06,52.52c1.67-1.17,2.39-.83,2.39,1.11,0,1.22-.28,1.67-1.22,1.78-.78.11-1.44-.22-1.78-.94-.5-.89-.39-1.28.61-1.94Z"/>
      <path class="cls-1" d="M50.84,58.13c1.44-3.39,1.5-3.89.22-1.94-1,1.61-2.28,6-1.89,6.44.17.17.33-.06.33-.5s.61-2.22,1.33-4Z"/>
      <path class="cls-1" d="M54.95,57.74c-.11,0-1,1-1.94,2.22-2.05,2.44-2.44,3.5-.67,1.89,1-.89,3.05-4.11,2.61-4.11Z"/>
      <path class="cls-1" d="M112.8,53.3c0-.33-.22-.56-.56-.56-.28,0-.56.22-.56.56,0,.28.28.56.56.56.33,0,.56-.28.56-.56Z"/>
      <path class="cls-1" d="M101.14,63.52c.89,2.39-1.33,10.77-4.22,15.71-2,3.44-1.61,4.16.56,1.11,2.83-4,4.83-9.44,5.22-14.21.22-3.55.17-4.22-.72-4.83-1.33-1-9.99-.94-13.88,0-3.05.78-9.44,3.94-6.83,3.39.83-.17,2.22-.56,3.05-.94,1.78-.72,1.83-.72,6.72-1.5,6.44-1.06,9.33-.67,10.1,1.28Z"/>
      <path class="cls-1" d="M96.7,69.07c0-.33-.39-1.06-.89-1.67q-.78-1-.17.33c.78,1.72,1.06,2,1.06,1.33Z"/>
      <path class="cls-1" d="M88.59,73.56c-.44-1.17-3.39-1-5.77.28-2.22,1.17-8.72,7.83-11.55,11.77-1.72,2.44-1.72,2.61-.67,2.94,1.5.5,8.66-3.33,13.33-7.16,3.61-2.89,5.39-5.89,4.66-7.83Z"/>
      <path class="cls-1" d="M111.41,91.22c1.28.72,1.5.78,3.11.89.61,0,1,.28.83.56-.17.22.33.72,1.17,1.11,1.11.5,1.28.83.83,1.28-.5.5-.83.39-1.44-.44-.44-.56-1-.89-1.17-.67-.22.22-.89.17-1.5-.17-.56-.28-1.28-.39-1.61-.17-.33.17,1,1.28,2.94,2.39l3.5,2,1.83-2.72c1-1.5,1.61-2.89,1.39-3.11-.61-.61-7.11-2.55-10.72-3.33-4-.83-15.49-1.39-14.55-.67.39.28,2.28.56,4.16.61,3.55.11,9.27,1.33,11.22,2.44Z"/>
      <path class="cls-1" d="M142.89,95.5l1.83-1.61-2.61-.06c-2.17,0-2.66.22-2.94,1.17-.28.78-.11,1.39.33,1.67,1.17.72,1.44.61,3.39-1.17Z"/>
      <path class="cls-1" d="M122.18,102.16l1.55.67c.83.33,3.05.67,4.89.67l3.33.06,1.5-2.78c.78-1.5,1.33-2.94,1.22-3.16-.39-.61-5.16-2.67-6.22-2.67-.44,0-1.61.83-2.55,1.89-.94,1-2.17,2.61-2.72,3.61l-1,1.72Z"/>
      <path class="cls-1" d="M91.98,110.99c4.16-3.17,7.22-4.11,7.33-2.33.06.67-.83,1.39-2.78,2.28-1.5.67-2.67,1.33-2.55,1.5.17.11,1.61-.11,3.28-.56,1.66-.44,3.11-.72,3.22-.56.44.39-2.33,1.5-4.83,1.94l-2.55.44,2.11.06c1.17,0,2.89-.33,3.78-.83,1.78-.89,2.72-.78,1.5.17-1.39,1.11-4.55,1.83-7.88,1.83-1.89,0-3.78.28-4.22.61-.61.39.67.5,4.44.33,7.83-.28,13.32-3.11,13.32-6.77,0-3.44-5.33-4.11-10.83-1.44-1.83.94-4.55,2.83-6.11,4.22-3.16,2.94-1.55,2.44,2.78-.89ZM100.36,108.21c.22-.39,3-.11,3.44.33.56.5-.61,2.39-1.55,2.67-1.39.39-2.72-1.72-1.89-3Z"/>
      <path class="cls-1" d="M96.7,109.82c1.05-.56,1.5-1,1.05-1s-2,.72-3.44,1.67c-1.44.89-2.61,1.78-2.61,2,0,.17.67-.11,1.55-.67.83-.56,2.39-1.44,3.44-2Z"/>
      <path class="cls-1" d="M126.35,113.48c1.11-1.78,2-3.44,2-3.72,0-.22-.61-.39-1.39-.39s-2.28-.33-3.33-.78l-1.89-.83-.67,2.05c-.33,1.11-1.11,3-1.72,4.16-.61,1.22-.94,2.28-.78,2.44.39.44,2.5-2.17,2.55-3.11,0-.61.17-.61.83-.06,1,.83,1.05,1.33.17,2.33-.39.39-.78,1.11-.89,1.5-.33,1.44-3.66,5.88-7.16,9.49-4.94,5.05-4.72,5.11,1.05.33,3.28-2.66,8.61-9.05,11.22-13.44ZM122.24,111.99c0-1.33.61-1.94,1.94-1.94.33,0,.22.11-.11.28-1.22.44-.78,1.17.55.94.67-.11.83-.06.39.11-.44.22-1.28.72-1.78,1.22-.94.78-1,.72-1-.61Z"/>
      <path class="cls-1" d="M101.7,133.25c-.5.33-.56.56-.17.56.33,0,.83-.28,1-.56.44-.67.22-.67-.83,0Z"/>
      <path class="cls-1" d="M133.34,145.91c0-1.44-6.5-7-10.6-8.94-3.83-1.89-8.27-3.16-8.27-2.39,0,.44,3.83,2,5.05,2,.61,0,1.05.17,1.05.39,0,.28,1.33,1.17,3,2,2.83,1.5,8.11,6.05,8.11,7.05s-5.27,5.55-8.11,7.05c-1.67.83-3,1.72-3,1.94,0,.28-.44.44-1.05.44-1.44,0-5.5,1.78-4.66,2.05,1.22.44,6.44-1.39,10.05-3.55,3.55-2.11,8.44-6.77,8.44-8.05Z"/>
      <path class="cls-1" d="M124.07,144.19c-.28-.17-.44.67-.44,1.83s.17,2,.44,1.83c.22-.11.39-.94.39-1.83s-.17-1.72-.39-1.83Z"/>
      <path class="cls-1" d="M112.86,148.07c1.05-.67,1.89-1.61,1.89-2.05s-.83-1.39-1.89-2.05c-1.61-1.05-2.55-1.28-6.39-1.22-2.5,0-6.72.5-9.44,1.06-7.94,1.66-7.88,2.78.28,4.44,7.38,1.56,13.1,1.5,15.55-.17Z"/>
      <path class="cls-1" d="M146.67,146.02c0-.33-.39-.56-.83-.56s-.83.22-.83.56c0,.28.39.56.83.56s.83-.28.83-.56Z"/>
      <path class="cls-1" d="M102.53,158.79c-.33-.56-1.39-.78-1.39-.33,0,.11.39.39.89.55.44.17.67.11.5-.22Z"/>
      <path class="cls-1" d="M121.24,174.95c.11.39.5,1.11.89,1.5.89,1,.83,1.5-.17,2.33-.67.56-.83.56-.83-.05-.06-.94-2.16-3.55-2.55-3.11-.17.17.17,1.22.78,2.44.61,1.17,1.39,3.05,1.72,4.16l.67,2.05,1.89-.83c1.05-.44,2.55-.78,3.33-.78s1.39-.17,1.39-.44c0-.89-4.16-7.22-7.27-10.94-3.22-3.94-10.49-10.55-10.49-9.55,0,.17,1.55,1.83,3.5,3.78,3.44,3.5,6.83,7.94,7.16,9.44ZM125.02,180.66c.44.17.28.22-.39.11-.72-.11-1.28,0-1.28.28s.28.5.67.5c.33,0,.5.11.33.28-.67.72-2.11-.5-2.11-1.83s.06-1.33,1-.55c.5.5,1.33,1,1.78,1.22Z"/>
      <path class="cls-1" d="M106.14,182.83c0-3.55-5.55-6.38-13.32-6.66-3.78-.17-5.05-.06-4.44.33.44.33,2.33.61,4.22.61,3.33,0,6.5.72,7.88,1.83,1.22.94.28,1.05-1.5.17-.89-.5-2.61-.83-3.78-.83l-2.11.05,2.55.44c2.5.44,5.27,1.55,4.83,1.94-.11.17-1.55-.11-3.22-.56-1.67-.44-3.11-.67-3.28-.55-.11.17,1.06.83,2.55,1.5,1.94.89,2.83,1.61,2.78,2.22-.11,1.83-3.16.89-7.33-2.28-4.33-3.33-5.94-3.83-2.78-.89,6.94,6.44,16.93,8,16.93,2.66ZM100.75,181.11c.67-.89,1.22-.83,2.28.22,1.11,1.11,1.17,2.44.06,2.5-.44.05-1.28.11-1.78.17-1.11.06-1.44-1.72-.56-2.89Z"/>
      <path class="cls-1" d="M96.7,182.22c-1.06-.56-2.61-1.44-3.44-2-.89-.56-1.55-.83-1.55-.67,0,.56,5.11,3.66,6.05,3.66.44,0,0-.44-1.05-1Z"/>
      <path class="cls-1" d="M110.58,203.21c3.61-.78,10.1-2.72,10.72-3.33.22-.22-.39-1.61-1.39-3.11l-1.83-2.72-3.5,2c-1.94,1.11-3.28,2.22-2.94,2.39.33.22,1.05.11,1.61-.17.61-.33,1.28-.39,1.5-.17.17.22.72-.11,1.17-.72.78-1.06.83-1.06,2,.17.72.67.94,1.22.56,1.22-.33,0-.67-.28-.67-.55,0-.61-2.22.33-2.78,1.17-.17.28-.83.56-1.39.67-.61.11-1.61.44-2.22.78-2,1.11-7.66,2.33-11.22,2.44-1.89.06-3.78.33-4.16.61-.94.72,10.55.17,14.55-.67Z"/>
      <path class="cls-1" d="M124.46,188.99c-2.22.89-2.22,1.28.06,4.61,2.33,3.39,3.72,3.94,6.72,2.67,3.83-1.67,3.94-1.83,2.22-5-1.5-2.72-1.55-2.78-4.27-2.89-1.5-.06-3.66.22-4.72.61Z"/>
      <path class="cls-1" d="M101.97,230.74c.89-.61.94-1.28.72-4.83-.39-4.77-2.39-10.22-5.22-14.21-1.06-1.44-1.89-2.33-1.89-1.94,0,.44.61,1.78,1.33,3.05,2.89,4.94,5.11,13.32,4.22,15.71-.89,2.28-4.55,2.39-14.55.55-.39-.06-1.67-.55-2.89-1.05-2.44-1.11-2.55-1.11-2.55-.5,0,.67,4.83,2.78,7.77,3.44,3.78.83,11.83.72,13.05-.22Z"/>
      <path class="cls-1" d="M96.7,223.08c0-.83-.39-.44-1.06,1.05-.56,1.44-.56,1.5.22.5.44-.61.83-1.28.83-1.55Z"/>
      <path class="cls-1" d="M142.12,198.21l2.61-.06-1.83-1.61c-1.94-1.78-2.22-1.89-3.39-1.17-.44.28-.61.89-.33,1.67.28.94.78,1.17,2.94,1.17Z"/>
      <path class="cls-1" d="M82.93,218.25c7.11,3.61,7.88-2.05,1-7.61-3.33-2.72-11.49-7.5-12.55-7.38-.28,0-.83.17-1.22.33-1.55.61,8.94,12.71,12.77,14.66Z"/>
      <path class="cls-1" d="M75.44,254.62c1.33-1.28,1.78-16.05.67-22.21-.33-2-.72-3.66-.83-3.66s-.06,2.44.11,5.38c.22,3.39.11,6.61-.28,8.5-.39,1.66-.67,3.5-.67,4.11,0,.56-.39,1.39-.83,1.83-.89.89-.94.67-.83-2.78.06-1.11-.11-2.05-.33-2.05-.44,0-3.16,8.38-2.83,8.55,2.39,1.22,5.66,2.55,5.83,2.33ZM72.55,250.9c-.5.89-1.39.17-1-.83.22-.56.5-.67.83-.33s.39.83.17,1.17Z"/>
      <path class="cls-1" d="M51.45,239.74c4.94,5.5,9.44,1.89,6.22-5-1.61-3.66-3.83-6.22-7.38-8.72l-2.72-1.89,3.66,3.83c3.89,4.05,4.94,5.61,4.89,7.27,0,.67-.11.78-.33.22-.22-.5-.39-.56-.67-.11-.28.39-1.11-.33-2.22-1.89-1-1.39-1.89-2.5-2-2.5-.33,0,.56,2.28,1.61,4.33.61,1.22.61,1.61.06,2.16-1.39,1.28-3-1.44-4.44-7.5-1.22-5.11-1.89-5.61-1.28-.89.61,4.55,2.05,7.88,4.61,10.66ZM53.45,237.57c.83-1.55,2.94-1.22,3.16.55.28,2-.67,2.61-2.39,1.5-1.17-.78-1.33-1.11-.78-2.05Z"/>
      <path class="cls-1" d="M52.34,237.35l-.61-1.33c-.39-.72-1.17-2.61-1.72-4.16-.61-1.55-.94-2.22-.78-1.44.17.78.44,2,.61,2.78.17.78.83,2.05,1.39,2.78l1.11,1.39Z"/>
      <path class="cls-1" d="M54.34,232.91c-.89-1.72-3.17-4.16-3.17-3.27.06.28.94,1.5,2.05,2.72,1.78,2,1.89,2.05,1.11.55Z"/>
      <path class="cls-1" d="M59.5,262.28c0-1.22.17-2.72.33-3.39.28-1,.06-1.28-1.22-1.55-.89-.17-3.05-.61-4.77-1.06-1.78-.44-3.22-.61-3.22-.39,0,.5,3.39,2.22,4.89,2.44,1.67.22,2.66,1.22,1.78,1.78-.39.22-.89.06-1.17-.33-.28-.44-.5-.56-.5-.28s-.44.11-.94-.28c-.61-.55-.78-.55-.5-.11.5.83.11.89-1.22.22-.5-.28-2.33-.94-4-1.44-2.78-.89-7.38-3.61-11.94-7q-1.55-1.17.28.83c3.83,4.11,15.44,10.99,20.71,12.27,1.44.39,1.5.33,1.5-1.72Z"/>
      <path class="cls-1" d="M6.81,245.51c0,.5-.22,1.39-.39,1.94-.28.78-.22.83.28.39.39-.39.61-1.22.44-1.94-.11-.72-.28-.89-.33-.39Z"/>
      <path class="cls-1" d="M5.54,255.45c-.11,0-.5.17-.89.33-.33.11-.56.5-.33.78.17.28.06.5-.22.5s-.83.72-1.22,1.67c-.39.89-.89,1.67-1.17,1.67-.22,0-.56.44-.78.94-.11.39-.45.92-.93,1.54v1.86c1.8-2.4,3.37-4.81,4.48-7.01.67-1.28,1.11-2.33,1.06-2.28Z"/>
      <path class="cls-1" d="M17.75,254.12c.67,1.28,1.78,2.66,2.44,3,1,.55,1.33.44,2.22-.56.5-.72,1.11-2.05,1.33-3.11.39-2.28-1.28-9.16-3.66-14.93-1.72-4.11-3-5.22-3.72-3.39-.17.5-.17,4.44-.06,8.77.22,6.72.44,8.22,1.44,10.22Z"/>
      <path class="cls-1" d="M112.8,238.74c0-.33-.22-.56-.56-.56-.28,0-.56.22-.56.56,0,.28.28.55.56.55.33,0,.56-.28.56-.55Z"/>
      <path class="cls-1" d="M65.94,257.56c-.67,1.05-.94,6.55-.39,7.94.44,1.11,1.22,1.67,3.55,2.33,1.67.5,3.17.89,3.33.89.56,0,1.61-5.61,1.28-6.83-.39-1.72-7.11-5.44-7.77-4.33Z"/>
      <path class="cls-1" d="M75.82,276.05l1.89,1.5-.28-2.33c-.39-2.72-.17-2.39-1.61-2.83-.83-.28-1.33-.11-1.55.56-.5,1.39-.44,1.5,1.55,3.11Z"/>
      <path class="cls-1" d="M26.19,287.87c0,.44.28.83.56.83.33,0,.56-.39.56-.83s-.22-.83-.56-.83c-.28,0-.56.39-.56.83Z"/>
    </g>
  </g>
</svg>